<?xml version="1.0" encoding="utf-8"?>
<!-- Generator: Adobe Illustrator 16.0.4, SVG Export Plug-In . SVG Version: 6.00 Build 0)  -->
<!DOCTYPE svg PUBLIC "-//W3C//DTD SVG 1.1 Tiny//EN" "http://www.w3.org/Graphics/SVG/1.1/DTD/svg11-tiny.dtd">
<svg version="1.1" baseProfile="tiny" id="Layer_1" xmlns="http://www.w3.org/2000/svg" xmlns:xlink="http://www.w3.org/1999/xlink"
	 x="0px" y="0px" width="372.5px" height="95.771px" viewBox="0 0 372.5 95.771" xml:space="preserve">
<g>
	<path fill="#FFFFFF" d="M208.707,35.315c-0.041-2.835-0.575-5.545-1.52-8.047h-6.135c-1.15,0-2.217-0.458-3.038-1.271
		c-0.821-0.834-1.251-1.938-1.251-3.105v-7.651c-3.202-1.751-6.876-2.753-10.755-2.753c-3.9,0-7.573,1.001-10.774,2.753v7.651
		c0,1.167-0.43,2.271-1.252,3.105c-0.821,0.812-1.888,1.271-3.037,1.271h-6.136c-0.944,2.501-1.478,5.211-1.52,8.047h-0.02v60.498
		h45.458V35.315H208.707z M175.233,32.105c0-2.002,1.601-3.628,3.571-3.628c1.971,0,3.571,1.625,3.571,3.628
		c0,2.001-1.601,3.626-3.571,3.626C176.834,35.732,175.233,34.106,175.233,32.105 M186.008,54.869c-5.028,0-9.092-4.147-9.092-9.233
		c0-5.108,4.063-9.236,9.092-9.236c5.008,0,9.071,4.128,9.071,9.236C195.079,50.721,191.016,54.869,186.008,54.869 M193.191,35.732
		c-1.971,0-3.571-1.625-3.571-3.626c0-2.002,1.6-3.628,3.571-3.628s3.571,1.625,3.571,3.628
		C196.763,34.106,195.163,35.732,193.191,35.732"/>
	<path fill="#FFFFFF" d="M172.645,22.896l-0.014-9.909c-0.002-0.94-0.738-1.736-1.653-1.736c-0.025,0-0.051,0-0.076,0.001
		c-2.88,0.141-5.722,1.328-7.922,3.562c-2.204,2.239-3.374,5.132-3.506,8.065c-0.043,0.964,0.758,1.753,1.708,1.753h9.754
		C171.88,24.634,172.646,23.855,172.645,22.896"/>
	<path fill="#FFFFFF" d="M209.017,14.814c-2.2-2.234-5.042-3.421-7.922-3.561c-0.026-0.002-0.05-0.002-0.077-0.002
		c-0.915,0-1.65,0.795-1.652,1.735l-0.015,9.91c-0.001,0.959,0.764,1.737,1.709,1.737h9.754c0.952,0,1.753-0.789,1.708-1.753
		C212.39,19.947,211.221,17.054,209.017,14.814"/>
	<path fill="#FFFFFF" d="M182.609,43.09c-1.38,0-2.499,1.136-2.499,2.538c0,1.403,1.119,2.54,2.499,2.54c1.38,0,2.5-1.137,2.5-2.54
		C185.108,44.227,183.989,43.09,182.609,43.09"/>
	<path fill="#FFFFFF" d="M189.613,43.09c-1.379,0-2.499,1.136-2.499,2.538c0,1.403,1.12,2.54,2.499,2.54
		c1.381,0,2.499-1.137,2.499-2.54C192.112,44.227,190.994,43.09,189.613,43.09"/>
	<path fill="#FFFFFF" d="M60.426,25.81c1.457-1.48,2.236-3.356,2.38-5.296c0.062-0.75-0.555-1.375-1.313-1.375h-9.811
		c-1.354,1.689-2.525,2.501-2.626,2.562l-0.431,0.272l-0.493,0.103c-0.739,0.146-1.437,0.209-2.093,0.209
		c-2.072,0-3.859-0.709-5.172-2.064c-2.257-2.335-2.278-5.69-2.278-6.065v-0.479c-2.258-0.751-4.659-1.19-7.183-1.19
		c-2.523,0-4.926,0.439-7.183,1.19v0.479c0,0.375-0.021,3.73-2.278,6.065c-1.314,1.355-3.1,2.064-5.172,2.064
		c-0.658,0-1.356-0.062-2.094-0.209l-0.494-0.103l-0.431-0.272c-0.102-0.083-1.271-0.874-2.626-2.562h-9.81
		c-0.76,0-1.375,0.625-1.313,1.375c0.144,1.94,0.922,3.816,2.381,5.296c1.785,1.813,4.227,2.626,6.567,2.396h0.944
		c-0.759,2.231-1.169,4.607-1.19,7.109H8.666v16.699c0,0.021,0.02,0.042,0.02,0.062v43.736h45.439V52.076
		c0-0.021,0.021-0.042,0.021-0.062V35.315h-0.042c-0.02-2.501-0.431-4.878-1.19-7.109h0.944
		C56.198,28.436,58.64,27.623,60.426,25.81 M18.045,32.105c0-2.002,1.601-3.628,3.571-3.628c1.969,0,3.571,1.625,3.571,3.628
		c0,2.001-1.602,3.626-3.571,3.626C19.646,35.732,18.045,34.106,18.045,32.105 M42.077,49.241c0,2.376-1.888,4.294-4.228,4.294
		H24.878c-2.339,0-4.227-1.918-4.227-4.294v-4.107c0-2.397,1.888-4.315,4.227-4.315H37.85c2.34,0,4.228,1.918,4.228,4.315V49.241z
		 M41.195,35.732c-1.97,0-3.571-1.625-3.571-3.626c0-2.002,1.601-3.628,3.571-3.628s3.571,1.625,3.571,3.628
		C44.766,34.106,43.165,35.732,41.195,35.732"/>
	<path fill="#FFFFFF" d="M15.178,19.488c0.583,0.115,1.113,0.167,1.596,0.167c4.924,0,4.849-5.455,4.849-5.455
		c-5.626-0.529-9.5-4.064-11.325-6.151c-0.113-0.129-0.256-0.185-0.398-0.185c-0.313,0-0.619,0.276-0.559,0.653
		C10.606,16.464,15.178,19.488,15.178,19.488"/>
	<path fill="#FFFFFF" d="M46.037,19.655c0.482,0,1.012-0.054,1.596-0.167c0,0,4.571-3.023,5.837-10.969
		c0.06-0.377-0.245-0.653-0.559-0.653c-0.142,0-0.286,0.055-0.399,0.184c-1.824,2.085-5.697,5.622-11.324,6.151
		C41.188,14.201,41.112,19.655,46.037,19.655"/>
	<path fill="#FFFFFF" d="M131.416,35.316c-0.124-10.174-6.691-18.742-15.742-21.703v4.463c0,3.919-3.119,7.086-6.978,7.086
		c-3.837,0-6.978-3.167-6.978-7.086v-4.463c-9.051,2.961-15.62,11.529-15.721,21.703h-0.02v60.497h45.458V35.316H131.416z
		 M101.514,29.27c1.97,0,3.57,1.625,3.57,3.627c0,2.002-1.601,3.627-3.57,3.627c-1.972,0-3.573-1.625-3.573-3.627
		C97.941,30.896,99.542,29.27,101.514,29.27 M118.199,45.051l-8.086,8.235c-0.78,0.792-2.052,0.792-2.832,0l-8.086-8.215
		c-0.8-0.812-0.82-2.146,0.021-2.897c2.504-2.314,5.829-3.73,9.481-3.73c3.653,0,6.978,1.396,9.481,3.71
		C118.999,42.925,118.979,44.238,118.199,45.051 M115.879,36.524c-1.97,0-3.57-1.625-3.57-3.627c0-2.001,1.601-3.627,3.57-3.627
		c1.971,0,3.571,1.625,3.571,3.627C119.45,34.899,117.85,36.524,115.879,36.524"/>
	<path fill="#FFFFFF" d="M108.702,22.528c2.42,0,4.381-1.993,4.381-4.451V4.827c0-2.458-1.961-4.452-4.381-4.452
		s-4.381,1.994-4.381,4.452v13.25C104.32,20.535,106.282,22.528,108.702,22.528"/>
	<path fill="#FFFFFF" d="M363.207,44.779h-0.042v-9.485h-0.041c-0.102-10.006-6.485-18.47-15.352-21.555v0.167
		c0,4.106-3.303,7.463-7.348,7.463c-4.042,0-7.347-3.357-7.347-7.463c0-0.063,0.021-0.105,0.021-0.167
		c-8.866,3.085-15.27,11.549-15.372,21.555h-0.02v9.485c-4.27,0-7.8,3.148-8.497,7.255c-0.123,0.792,0.513,1.501,1.292,1.501h7.266
		v42.277h45.439V53.536h7.204c0.779,0,1.416-0.708,1.293-1.501C371.006,47.928,367.476,44.779,363.207,44.779 M326.758,35.732
		c-1.971,0-3.571-1.625-3.571-3.626c0-2.002,1.601-3.628,3.571-3.628c1.97,0,3.571,1.625,3.571,3.628
		C330.329,34.106,328.728,35.732,326.758,35.732 M346.173,47.698c0,3.232-2.565,5.838-5.748,5.838c-3.159,0-5.726-2.605-5.726-5.838
		c0-2.001,0.985-3.773,2.504-4.814c-1.52-1.043-2.504-2.814-2.504-4.815c0-3.231,2.567-5.838,5.726-5.838
		c3.183,0,5.748,2.606,5.748,5.838c0,2.001-1.007,3.772-2.524,4.815C345.166,43.924,346.173,45.697,346.173,47.698 M354.095,35.732
		c-1.971,0-3.551-1.625-3.551-3.626c0-2.002,1.58-3.628,3.551-3.628c1.99,0,3.57,1.625,3.57,3.628
		C357.665,34.106,356.085,35.732,354.095,35.732"/>
	<path fill="#FFFFFF" d="M341.118,17.909c2.009-0.342,3.352-2.268,3.314-4.336c-0.085-4.597-1.93-9.731-3.451-13.206
		c-0.212-0.489-0.892-0.489-1.105,0c-1.557,3.558-3.452,8.853-3.452,13.533C336.425,16.372,338.606,18.335,341.118,17.909"/>
	<path fill="#FFFFFF" d="M294.269,31.125l-11.514-9.631c0.041-0.25,0.082-0.521,0.082-0.793c0-2.772-2.216-5.022-4.944-5.022
		c-0.657,0-1.274,0.125-1.848,0.375c0-0.126,0.021-0.25,0.021-0.375c0-3.691-2.935-6.693-6.588-6.693
		c-2.607,0-4.864,1.563-5.911,3.816c-1.067-2.252-3.304-3.816-5.931-3.816c-3.633,0-6.588,3.002-6.588,6.693
		c0,0.125,0.021,0.249,0.041,0.375c-0.574-0.25-1.191-0.375-1.846-0.375c-2.75,0-4.968,2.25-4.968,5.022
		c0,0.167,0.042,0.334,0.062,0.501l-11.862,9.923c-0.616,0.52-0.657,1.501-0.041,2.022c2.318,2.001,5.499,2.564,8.332,1.563
		c-0.02,0.312-0.041,0.626-0.061,0.938h-0.021v60.165h45.377V35.649h-0.021c0-0.312-0.041-0.626-0.062-0.938
		c2.833,1.001,6.014,0.438,8.333-1.563C294.925,32.626,294.883,31.646,294.269,31.125 M252.503,36.086
		c-1.969,0-3.57-1.626-3.57-3.626c0-2.002,1.602-3.628,3.57-3.628c1.972,0,3.551,1.626,3.551,3.628
		C256.054,34.46,254.475,36.086,252.503,36.086 M270.564,43.841c-0.532,2.189-2.032,3.982-4.021,4.899
		c0.061,0.229,0.082,0.459,0.082,0.688c0,1.71-1.375,3.107-3.059,3.107c-1.703,0-3.078-1.397-3.078-3.107
		c0-0.229,0.041-0.458,0.082-0.688c-1.97-0.917-3.489-2.71-4.021-4.899c-0.205-0.896,0.511-1.751,1.416-1.751h11.185
		C270.072,42.09,270.79,42.946,270.564,43.841 M274.628,36.086c-1.971,0-3.571-1.626-3.571-3.626c0-2.002,1.6-3.628,3.571-3.628
		c1.95,0,3.55,1.626,3.55,3.628C278.178,34.46,276.578,36.086,274.628,36.086"/>
</g>
</svg>
