<?xml version="1.0" encoding="utf-8"?>
<!-- Generator: Adobe Illustrator 16.0.4, SVG Export Plug-In . SVG Version: 6.00 Build 0)  -->
<!DOCTYPE svg PUBLIC "-//W3C//DTD SVG 1.1//EN" "http://www.w3.org/Graphics/SVG/1.1/DTD/svg11.dtd">
<svg version="1.1" id="Layer_1" xmlns="http://www.w3.org/2000/svg" xmlns:xlink="http://www.w3.org/1999/xlink" x="0px" y="0px"
	 width="459px" height="286px" viewBox="0 0 459 286" enable-background="new 0 0 459 286" xml:space="preserve">
<g>
	<path fill="#F26200" d="M9.729,161.152c0.958,0,1.736,0.779,1.736,1.736v2.469c0.993,0.383,2.066,0.602,3.19,0.614v0.011h6.63
		c0.018,0,0.034-0.005,0.052-0.006h37.594c12.306,0,22.318-10.011,22.318-22.318v-59.54c0-2.166,1.762-3.928,3.929-3.928h15.523
		c4.785,0,8.707-3.67,9.12-8.348c0.019,0.022,0.038,0.045,0.055,0.064c0.384,0.46,0.82,0.878,1.286,1.247
		c0.391,0.311,0.811,0.592,1.265,0.792c0.435,0.192,1.069,0.345,1.473-0.004c0.252-0.218,0.31-0.614,0.205-0.936
		c-0.212-0.652-0.457-1.273-0.457-1.978c0-0.705,0.245-1.326,0.457-1.977c0.105-0.323,0.047-0.719-0.205-0.937
		c-0.404-0.35-1.038-0.196-1.473-0.005c-0.454,0.2-0.874,0.482-1.265,0.792c-0.466,0.369-0.902,0.787-1.286,1.247
		c-0.017,0.021-0.036,0.043-0.055,0.065c-0.413-4.679-4.335-8.348-9.12-8.348H85.178c-12.27,0-22.251,9.981-22.251,22.25v59.54
		c0,2.203-1.793,3.996-3.996,3.996H21.337c-0.018,0-0.035-0.005-0.052-0.005h-6.63v0.01c-1.124,0.014-2.197,0.232-3.19,0.615v2.469
		c0,0.957-0.778,1.735-1.738,1.735l-3.037-0.004c-0.697,1.292-1.094,2.77-1.094,4.341s0.397,3.049,1.094,4.342L9.729,161.152
		L9.729,161.152z M13.383,152.479c0.795,0,1.44,0.644,1.44,1.438c0,0.796-0.645,1.44-1.44,1.44c-0.795,0-1.44-0.645-1.44-1.44
		C11.943,153.123,12.588,152.479,13.383,152.479 M18.752,160.48c-2.024,0-3.665-1.641-3.665-3.665c0-2.022,1.641-3.664,3.665-3.664
		s3.664,1.642,3.664,3.664C22.416,158.84,20.776,160.48,18.752,160.48 M13.383,158.273c0.795,0,1.44,0.645,1.44,1.44
		c0,0.795-0.645,1.438-1.44,1.438c-0.795,0-1.44-0.644-1.44-1.438C11.943,158.918,12.588,158.273,13.383,158.273"/>
	<path fill="#F26200" d="M5.795,162.205c-0.383,0.001-0.706,0.314-0.688,0.697c0.055,1.162,0.527,2.307,1.414,3.194
		c0.889,0.889,2.037,1.359,3.201,1.414c0.01,0,0.02,0,0.03,0c0.369,0,0.666-0.316,0.666-0.689v-3.933
		c0-0.381-0.308-0.689-0.689-0.689L5.795,162.205z"/>
	<path fill="#F26200" d="M9.729,151.432L9.729,151.432c0.381,0,0.69-0.308,0.69-0.688v-3.934c0-0.373-0.297-0.688-0.666-0.688
		c-0.01,0-0.02,0-0.03,0c-1.164,0.054-2.313,0.524-3.202,1.414c-0.887,0.887-1.358,2.033-1.413,3.193
		c-0.018,0.384,0.304,0.697,0.687,0.697L9.729,151.432z"/>
	<path fill="#F26200" d="M18.751,157.175c-0.557,0-1.008,0.451-1.008,1.008c0,0.556,0.451,1.007,1.008,1.007
		c0.556,0,1.008-0.451,1.008-1.007C19.76,157.626,19.308,157.175,18.751,157.175"/>
	<path fill="#F26200" d="M18.751,154.351c-0.557,0-1.008,0.451-1.008,1.008s0.451,1.007,1.008,1.007c0.556,0,1.008-0.45,1.008-1.007
		S19.308,154.351,18.751,154.351"/>
	<path fill="#F26200" d="M95.715,18.031L95.715,18.031c0.958,0,1.737,0.779,1.737,1.736v2.469c0.992,0.382,2.065,0.602,3.19,0.614
		v0.011h6.629c0.018,0,0.035-0.005,0.053-0.006h22.005c4.669,0,8.515-3.496,9.081-8.012c0.323,0.354,0.668,0.688,1.041,0.983
		c0.391,0.311,0.81,0.592,1.265,0.792c0.435,0.192,1.069,0.344,1.473-0.005c0.252-0.218,0.31-0.614,0.205-0.936
		c-0.213-0.652-0.458-1.273-0.458-1.978s0.245-1.325,0.458-1.977c0.105-0.322,0.047-0.719-0.205-0.937
		c-0.404-0.35-1.038-0.197-1.473-0.005c-0.455,0.2-0.874,0.482-1.265,0.792c-0.372,0.295-0.717,0.628-1.039,0.982
		c-0.561-4.522-4.41-8.024-9.083-8.024h-22.006c-0.018,0-0.034-0.005-0.052-0.005h-6.629v0.01c-1.125,0.013-2.198,0.232-3.19,0.615
		v2.469c0,0.957-0.779,1.735-1.739,1.735l-3.037-0.004c-0.697,1.292-1.093,2.77-1.093,4.341s0.396,3.049,1.093,4.342L95.715,18.031z
		 M104.738,17.359c-2.024,0-3.664-1.641-3.664-3.665s1.64-3.664,3.664-3.664c2.024,0,3.665,1.64,3.665,3.664
		S106.762,17.359,104.738,17.359 M99.37,15.152c0.795,0,1.439,0.644,1.439,1.438c0,0.797-0.644,1.44-1.439,1.44
		c-0.796,0-1.44-0.644-1.44-1.44C97.93,15.796,98.574,15.152,99.37,15.152 M97.93,10.797c0-0.795,0.644-1.439,1.44-1.439
		c0.795,0,1.439,0.645,1.439,1.439s-0.644,1.44-1.439,1.44C98.574,12.237,97.93,11.592,97.93,10.797"/>
	<path fill="#F26200" d="M91.781,19.084c-0.383,0-0.706,0.314-0.688,0.697c0.055,1.161,0.527,2.307,1.414,3.194
		c0.889,0.889,2.037,1.359,3.201,1.414c0.01,0,0.02,0,0.03,0c0.369,0,0.666-0.316,0.666-0.689v-3.933
		c0-0.381-0.308-0.689-0.688-0.689h-0.001L91.781,19.084z"/>
	<path fill="#F26200" d="M95.715,8.311L95.715,8.311c0.381,0,0.69-0.308,0.69-0.689V3.688C96.405,3.315,96.108,3,95.739,3
		c-0.01,0-0.02,0-0.03,0.001c-1.165,0.053-2.313,0.523-3.202,1.413c-0.887,0.887-1.358,2.032-1.413,3.193
		c-0.019,0.383,0.304,0.697,0.687,0.697L95.715,8.311z"/>
	<path fill="#F26200" d="M104.738,14.054c-0.556,0-1.008,0.45-1.008,1.008c0,0.556,0.452,1.007,1.008,1.007
		c0.557,0,1.008-0.451,1.008-1.007C105.746,14.504,105.295,14.054,104.738,14.054"/>
	<path fill="#F26200" d="M104.738,11.229c-0.556,0-1.008,0.451-1.008,1.008c0,0.556,0.452,1.007,1.008,1.007
		c0.557,0,1.008-0.451,1.008-1.007C105.746,11.681,105.295,11.229,104.738,11.229"/>
	<path fill="#F26200" d="M206.225,214.246v15.56c0,2.169-1.765,3.934-3.934,3.934h-37.568c-0.017,0-0.034-0.005-0.051-0.005h-6.63
		v0.011c-1.124,0.012-2.197,0.231-3.19,0.614v2.469c0,0.957-0.778,1.736-1.738,1.736l-3.037-0.006
		c-0.697,1.293-1.094,2.771-1.094,4.343c0,1.57,0.397,3.049,1.094,4.341l3.039-0.005h0.001c0.957,0,1.735,0.778,1.735,1.735v2.47
		c0.993,0.383,2.066,0.602,3.19,0.614v0.011h6.63c0.018,0,0.035-0.005,0.053-0.005h37.566c12.272,0,22.256-9.985,22.256-22.257
		v-15.56c0-4.786-3.672-8.709-8.35-9.12c0.023-0.02,0.046-0.04,0.067-0.058c0.46-0.383,0.878-0.819,1.247-1.285
		c0.31-0.393,0.592-0.812,0.792-1.266c0.192-0.436,0.345-1.069-0.004-1.474c-0.218-0.252-0.614-0.31-0.937-0.205
		c-0.651,0.213-1.272,0.458-1.976,0.458c-0.705,0-1.326-0.245-1.977-0.458c-0.323-0.104-0.719-0.047-0.937,0.205
		c-0.349,0.404-0.196,1.038-0.004,1.474c0.2,0.454,0.482,0.873,0.792,1.266c0.369,0.466,0.787,0.902,1.247,1.285
		c0.021,0.018,0.044,0.038,0.067,0.058C209.896,205.537,206.225,209.46,206.225,214.246 M155.331,245.798
		c0-0.795,0.644-1.439,1.439-1.439s1.44,0.645,1.44,1.439s-0.645,1.439-1.44,1.439S155.331,246.593,155.331,245.798 M156.77,238.564
		c0.795,0,1.44,0.644,1.44,1.438s-0.645,1.44-1.44,1.44s-1.439-0.646-1.439-1.44S155.975,238.564,156.77,238.564 M162.138,246.565
		c-2.024,0-3.664-1.642-3.664-3.664c0-2.024,1.64-3.665,3.664-3.665c2.024,0,3.664,1.641,3.664,3.665
		C165.802,244.924,164.163,246.565,162.138,246.565"/>
	<path fill="#F26200" d="M153.805,248.974c0-0.38-0.308-0.689-0.689-0.689h-0.001l-3.933,0.006
		c-0.384,0.001-0.706,0.314-0.688,0.697c0.055,1.161,0.526,2.308,1.413,3.194c0.889,0.889,2.038,1.359,3.202,1.414
		c0.01,0,0.02,0,0.03,0c0.369,0,0.666-0.316,0.666-0.689V248.974z"/>
	<path fill="#F26200" d="M153.115,237.517L153.115,237.517c0.381,0,0.69-0.308,0.69-0.688v-3.934c0-0.373-0.297-0.688-0.666-0.688
		c-0.01,0-0.02,0-0.03,0c-1.164,0.054-2.313,0.524-3.202,1.414c-0.887,0.887-1.358,2.033-1.413,3.193
		c-0.018,0.384,0.304,0.697,0.687,0.697L153.115,237.517z"/>
	<path fill="#F26200" d="M162.138,243.26c-0.556,0-1.008,0.451-1.008,1.008c0,0.556,0.452,1.007,1.008,1.007
		c0.557,0,1.008-0.451,1.008-1.007C163.146,243.711,162.695,243.26,162.138,243.26"/>
	<path fill="#F26200" d="M162.138,240.436c-0.556,0-1.008,0.451-1.008,1.008s0.452,1.007,1.008,1.007
		c0.557,0,1.008-0.45,1.008-1.007S162.695,240.436,162.138,240.436"/>
	<path fill="#F26200" d="M135.469,67.812c-0.464,0-0.9-0.181-1.228-0.51c-0.328-0.328-0.508-0.764-0.508-1.229l0.005-3.037
		c-1.292-0.697-2.77-1.093-4.342-1.093c-1.571,0-3.049,0.396-4.341,1.093l0.004,3.037c0.002,0.464-0.179,0.899-0.507,1.229
		c-0.328,0.328-0.764,0.51-1.228,0.51h-2.469c-0.383,0.992-0.602,2.065-0.614,3.189h-0.011v6.63c0,0.02,0.005,0.036,0.006,0.054
		v65.954c0,12.307,10.011,22.318,22.318,22.318h59.715c2.181,0,3.955,1.775,3.955,3.956v15.683c0,4.775,3.654,8.692,8.318,9.118
		c-0.011,0.01-0.024,0.021-0.035,0.031c-0.46,0.383-0.878,0.818-1.247,1.285c-0.31,0.391-0.592,0.811-0.792,1.266
		c-0.192,0.436-0.345,1.069,0.004,1.473c0.218,0.252,0.614,0.311,0.936,0.205c0.652-0.213,1.273-0.458,1.977-0.458
		c0.705,0,1.326,0.245,1.977,0.458c0.323,0.105,0.718,0.047,0.936-0.205c0.35-0.403,0.197-1.037,0.005-1.473
		c-0.2-0.455-0.482-0.875-0.792-1.266c-0.369-0.467-0.787-0.902-1.247-1.285c-0.011-0.01-0.024-0.021-0.036-0.031
		c4.664-0.426,8.318-4.343,8.318-9.118v-15.683c0-12.284-9.993-22.278-22.277-22.278h-59.715c-2.204,0-3.996-1.792-3.996-3.996
		V77.682c0-0.017,0.005-0.032,0.005-0.05v-6.63h-0.011c-0.012-1.124-0.231-2.197-0.614-3.189H135.469z M125.06,69.73
		c0-0.796,0.644-1.439,1.439-1.439s1.44,0.644,1.44,1.439s-0.645,1.439-1.44,1.439S125.06,70.526,125.06,69.73 M130.854,69.73
		c0-0.796,0.645-1.439,1.44-1.439s1.439,0.644,1.439,1.439s-0.644,1.439-1.439,1.439S130.854,70.526,130.854,69.73 M125.731,75.099
		c0-2.023,1.641-3.664,3.664-3.664c2.024,0,3.665,1.641,3.665,3.664c0,2.024-1.641,3.664-3.665,3.664
		C127.373,78.763,125.731,77.123,125.731,75.099"/>
	<path fill="#F26200" d="M123.323,66.766c0.381,0,0.69-0.309,0.689-0.69l-0.006-3.933c-0.001-0.373-0.298-0.689-0.666-0.689
		c-0.01,0-0.021,0-0.031,0.002c-1.162,0.055-2.307,0.525-3.194,1.412c-0.889,0.89-1.36,2.038-1.414,3.202
		c-0.017,0.383,0.306,0.696,0.689,0.696H123.323z"/>
	<path fill="#F26200" d="M134.78,66.076c-0.001,0.381,0.308,0.689,0.689,0.689h3.933c0.383,0,0.706-0.312,0.688-0.696
		c-0.053-1.164-0.524-2.312-1.413-3.201c-0.887-0.888-2.033-1.358-3.194-1.413c-0.01-0.001-0.021-0.001-0.031-0.001
		c-0.369,0-0.666,0.314-0.666,0.688L134.78,66.076z"/>
	<path fill="#F26200" d="M128.03,74.092c-0.556,0-1.008,0.451-1.008,1.007c0,0.557,0.452,1.008,1.008,1.008
		c0.557,0,1.008-0.451,1.008-1.008C129.038,74.543,128.586,74.092,128.03,74.092"/>
	<path fill="#F26200" d="M130.854,76.106c0.557,0,1.008-0.451,1.008-1.008c0-0.556-0.451-1.007-1.008-1.007
		c-0.556,0-1.008,0.451-1.008,1.007C129.846,75.655,130.298,76.106,130.854,76.106"/>
	<path fill="#F26200" d="M89.007,95.945c0.709,0.711,1.661,1.025,2.588,0.953c-0.03,0.303-0.046,0.608-0.046,0.917v1.902h-0.005
		v6.63c0,0.018,0.005,0.033,0.005,0.051v107.848c0,4.814,3.716,8.754,8.436,9.124c-0.062,0.054-0.12,0.104-0.169,0.145
		c-0.46,0.384-0.878,0.82-1.247,1.286c-0.31,0.391-0.592,0.811-0.792,1.265c-0.192,0.437-0.345,1.07,0.004,1.474
		c0.218,0.252,0.614,0.31,0.937,0.205c0.651-0.212,1.272-0.457,1.976-0.457c0.705,0,1.326,0.245,1.977,0.457
		c0.323,0.104,0.719,0.047,0.937-0.205c0.349-0.403,0.196-1.037,0.004-1.474c-0.2-0.454-0.482-0.874-0.792-1.265
		c-0.369-0.466-0.787-0.902-1.247-1.286c-0.049-0.04-0.106-0.09-0.167-0.143c4.733-0.357,8.465-4.302,8.465-9.126V106.401
		c0-0.018,0.005-0.034,0.005-0.054v-6.63h-0.005v-1.902c0-0.309-0.017-0.614-0.047-0.917c0.928,0.072,1.88-0.242,2.589-0.953
		c0.724-0.724,1.041-1.7,0.95-2.646h-4.474c-0.551,0.67-1.021,0.987-1.065,1.016l-0.171,0.112l-0.201,0.038
		c-0.293,0.057-0.576,0.086-0.843,0.086c-0.835,0-1.556-0.283-2.084-0.819c-0.912-0.925-0.92-2.259-0.918-2.407l0.013-0.941
		l0.938-0.087c0.372-0.034,0.721-0.111,1.049-0.213c-1.417-0.9-3.094-1.43-4.897-1.43c-1.805,0-3.482,0.529-4.9,1.431
		c0.328,0.101,0.678,0.178,1.052,0.212l0.937,0.087l0.014,0.941c0.002,0.148-0.006,1.482-0.919,2.407
		c-0.528,0.536-1.248,0.819-2.083,0.819c-0.267,0-0.551-0.029-0.843-0.086l-0.201-0.038l-0.171-0.112
		c-0.045-0.028-0.514-0.346-1.066-1.016h-4.474C87.966,94.245,88.283,95.222,89.007,95.945 M95.326,98.447
		c0-0.797,0.645-1.44,1.44-1.44s1.439,0.644,1.439,1.44c0,0.795-0.644,1.438-1.439,1.438S95.326,99.242,95.326,98.447
		 M103.215,98.447c0-0.797,0.644-1.44,1.439-1.44c0.795,0,1.44,0.644,1.44,1.44c0,0.795-0.645,1.438-1.44,1.438
		C103.858,99.886,103.215,99.242,103.215,98.447 M105.016,105.771c0,0.944-0.765,1.709-1.709,1.709h-5.225
		c-0.944,0-1.709-0.765-1.709-1.709v-1.633c0-0.943,0.765-1.708,1.709-1.708h5.225c0.944,0,1.709,0.765,1.709,1.708V105.771z"/>
	<path fill="#F26200" d="M91.718,88.291c0.3,3.748,2.449,5.147,2.449,5.147c0.235,0.046,0.449,0.067,0.643,0.067
		c1.986,0,1.955-2.166,1.955-2.166C93.517,91.039,91.718,88.291,91.718,88.291"/>
	<path fill="#F26200" d="M106.609,93.505c0.194,0,0.408-0.021,0.644-0.067c0,0,2.148-1.398,2.448-5.146c0,0-1.799,2.749-5.047,3.049
		C104.654,91.34,104.623,93.505,106.609,93.505"/>
	<path fill="#F26200" d="M70.351,178.83c0,0.977,0.791,1.767,1.767,1.767c0.975,0,1.766-0.79,1.766-1.767v-5.26
		c0-0.975-0.791-1.766-1.766-1.766c-0.976,0-1.767,0.791-1.767,1.766V178.83z"/>
	<path fill="#F26200" d="M125.359,185.597c0,1.552-1.263,2.813-2.814,2.813h-1.774c1.177,3.651,4.582,6.298,8.614,6.342v0.012h6.629
		c0.007,0,0.014-0.002,0.02-0.002h50.677c4.857,0,8.82-3.783,9.131-8.562c0.084,0.105,0.171,0.202,0.235,0.278
		c0.384,0.46,0.82,0.878,1.286,1.247c0.391,0.31,0.811,0.592,1.265,0.792c0.435,0.191,1.069,0.345,1.473-0.004
		c0.252-0.219,0.31-0.614,0.205-0.938c-0.212-0.65-0.457-1.271-0.457-1.976c0-0.705,0.245-1.326,0.457-1.978
		c0.105-0.322,0.047-0.719-0.205-0.937c-0.404-0.35-1.038-0.196-1.473-0.004c-0.454,0.199-0.874,0.481-1.265,0.792
		c-0.466,0.369-0.902,0.787-1.286,1.247c-0.064,0.075-0.151,0.173-0.235,0.277c-0.311-4.777-4.274-8.56-9.131-8.56H136.1
		c-0.029-0.001-0.055-0.009-0.085-0.009h-6.629v0.011c-4.032,0.044-7.437,2.69-8.614,6.342h1.774
		C124.097,182.783,125.359,184.045,125.359,185.597 M136.52,186.169l-3.262,3.263c-0.318,0.317-0.845,0.325-1.148-0.006
		c-0.921-1.011-1.483-2.354-1.483-3.829c0-1.472,0.559-2.812,1.477-3.821c0.302-0.333,0.83-0.325,1.148-0.007l3.268,3.257
		C136.835,185.342,136.835,185.854,136.52,186.169 M129.868,182.699c0,0.795-0.645,1.44-1.44,1.44c-0.795,0-1.44-0.646-1.44-1.44
		s0.645-1.439,1.44-1.439C129.223,181.26,129.868,181.904,129.868,182.699 M128.428,187.055c0.795,0,1.44,0.645,1.44,1.439
		s-0.645,1.439-1.44,1.439c-0.795,0-1.44-0.645-1.44-1.439S127.632,187.055,128.428,187.055"/>
	<path fill="#F26200" d="M124.312,185.597c0-0.976-0.791-1.767-1.767-1.767h-5.259c-0.976,0-1.766,0.791-1.766,1.767
		s0.79,1.767,1.766,1.767h5.259C123.521,187.363,124.312,186.572,124.312,185.597"/>
	<path fill="#F26200" d="M133.444,42.478c0-1.552,1.263-2.813,2.814-2.813h1.774c-1.177-3.651-4.582-6.298-8.614-6.342v-0.012
		h-6.629c-0.008,0-0.016,0.003-0.023,0.003h-66.29c-12.307,0-22.319,10.012-22.319,22.318v72.666c0,4.9,3.85,8.89,8.689,9.137
		c-0.204,0.12-0.399,0.304-0.533,0.416c-0.46,0.383-0.878,0.819-1.248,1.285c-0.31,0.391-0.591,0.812-0.792,1.265
		c-0.192,0.437-0.344,1.07,0.005,1.475c0.218,0.251,0.614,0.309,0.936,0.204c0.652-0.212,1.273-0.457,1.977-0.457
		c0.704,0,1.325,0.245,1.977,0.457c0.322,0.104,0.718,0.047,0.936-0.204c0.35-0.404,0.197-1.038,0.005-1.475
		c-0.2-0.453-0.482-0.874-0.792-1.265c-0.37-0.466-0.787-0.902-1.248-1.285c-0.129-0.108-0.316-0.284-0.512-0.403
		c4.948-0.129,8.922-4.171,8.922-9.149V55.632c0-2.203,1.793-3.996,3.997-3.996h66.231c0.028,0.001,0.054,0.008,0.082,0.008h6.629
		v-0.011c4.032-0.044,7.437-2.691,8.614-6.342h-1.774C134.707,45.291,133.444,44.029,133.444,42.478 M122.284,41.904l3.262-3.262
		c0.318-0.317,0.845-0.326,1.148,0.006c0.922,1.011,1.483,2.354,1.483,3.828c0,1.473-0.559,2.813-1.476,3.822
		c-0.303,0.332-0.831,0.325-1.149,0.007l-3.267-3.257C121.968,42.732,121.968,42.221,122.284,41.904 M128.937,45.375
		c0-0.795,0.644-1.44,1.439-1.44c0.795,0,1.44,0.646,1.44,1.44s-0.645,1.438-1.44,1.438
		C129.581,46.813,128.937,46.17,128.937,45.375 M130.375,41.02c-0.795,0-1.439-0.645-1.439-1.439s0.644-1.439,1.439-1.439
		c0.795,0,1.44,0.645,1.44,1.439S131.171,41.02,130.375,41.02"/>
	<path fill="#F26200" d="M141.517,40.711h-5.26c-0.975,0-1.766,0.791-1.766,1.766c0,0.977,0.791,1.768,1.766,1.768h5.26
		c0.975,0,1.766-0.791,1.766-1.768C143.283,41.502,142.492,40.711,141.517,40.711"/>
	<path fill="#F26200" d="M114.188,239.939c-0.403-0.351-1.038-0.197-1.473-0.005c-0.454,0.199-0.874,0.481-1.265,0.792
		c-0.466,0.369-0.902,0.787-1.286,1.248c-0.089,0.106-0.225,0.253-0.336,0.41c-0.245-4.841-4.236-8.693-9.138-8.693H85.271
		c-2.203,0-3.996-1.793-3.996-3.997v-37.312c0.001-0.027,0.008-0.054,0.008-0.082v-6.63h-0.01c-0.045-4.031-2.692-7.437-6.343-8.613
		v1.773c0,1.552-1.262,2.814-2.813,2.814s-2.814-1.263-2.814-2.814v-1.773c-3.651,1.177-6.298,4.582-6.342,8.613h-0.01v6.63
		c0,0.008,0.002,0.015,0.002,0.021v37.373c0,12.307,10.011,22.319,22.318,22.319h15.418c4.902,0,8.893-3.854,9.138-8.694
		c0.111,0.158,0.247,0.304,0.336,0.411c0.384,0.461,0.82,0.878,1.286,1.248c0.391,0.31,0.811,0.591,1.265,0.792
		c0.435,0.191,1.07,0.344,1.473-0.005c0.252-0.219,0.31-0.614,0.205-0.937c-0.212-0.652-0.457-1.272-0.457-1.977
		s0.245-1.325,0.457-1.978C114.498,240.553,114.439,240.157,114.188,239.939 M71.545,192.805l-3.262-3.263
		c-0.317-0.316-0.326-0.845,0.006-1.147c1.01-0.921,2.354-1.483,3.829-1.483c1.471,0,2.812,0.56,3.821,1.478
		c0.333,0.302,0.325,0.829,0.007,1.147l-3.257,3.269C72.374,193.12,71.861,193.12,71.545,192.805 M75.015,183.272
		c0.795,0,1.44,0.645,1.44,1.439s-0.645,1.44-1.44,1.44s-1.439-0.646-1.439-1.44S74.22,183.272,75.015,183.272 M70.66,184.712
		c0,0.795-0.645,1.44-1.439,1.44c-0.795,0-1.44-0.646-1.44-1.44s0.645-1.439,1.44-1.439C70.015,183.272,70.66,183.917,70.66,184.712
		"/>
	<path fill="#F26200" d="M27.801,280.695h66.173c0.029,0.001,0.056,0.009,0.085,0.009h6.63v-0.011
		c4.032-0.044,7.436-2.691,8.614-6.342h-1.775c-1.551,0-2.813-1.263-2.813-2.814c0-1.551,1.262-2.812,2.813-2.812h1.775
		c-1.178-3.651-4.582-6.298-8.614-6.342v-0.012h-6.63c-0.007,0-0.013,0.002-0.019,0.002H27.801c-2.197,0-3.984-1.788-3.984-3.984
		V242.9c0-4.879-3.818-8.856-8.628-9.134c0.132-0.101,0.253-0.21,0.345-0.286c0.46-0.384,0.878-0.82,1.247-1.286
		c0.31-0.391,0.592-0.812,0.792-1.265c0.192-0.436,0.345-1.07-0.005-1.474c-0.217-0.252-0.614-0.31-0.936-0.205
		c-0.651,0.212-1.273,0.457-1.977,0.457c-0.704,0-1.325-0.245-1.977-0.457c-0.322-0.104-0.718-0.047-0.936,0.205
		c-0.349,0.403-0.196,1.038-0.004,1.474c0.2,0.453,0.482,0.874,0.792,1.265c0.369,0.466,0.787,0.902,1.247,1.286
		c0.092,0.076,0.213,0.186,0.344,0.286c-4.809,0.277-8.626,4.255-8.626,9.134v15.488C5.495,270.688,15.501,280.695,27.801,280.695
		 M103.085,268.641c0,0.795-0.645,1.439-1.44,1.439s-1.439-0.645-1.439-1.439s0.644-1.44,1.439-1.44
		S103.085,267.846,103.085,268.641 M101.646,275.874c-0.795,0-1.439-0.644-1.439-1.438c0-0.796,0.644-1.44,1.439-1.44
		s1.44,0.645,1.44,1.44C103.085,275.23,102.44,275.874,101.646,275.874 M93.554,270.965l3.262-3.262
		c0.318-0.317,0.846-0.326,1.149,0.006c0.921,1.011,1.483,2.354,1.483,3.828c0,1.473-0.56,2.812-1.477,3.821
		c-0.302,0.333-0.83,0.326-1.149,0.008l-3.267-3.258C93.238,271.793,93.238,271.281,93.554,270.965"/>
	<path fill="#F26200" d="M112.787,269.771h-5.26c-0.975,0-1.766,0.791-1.766,1.766c0,0.977,0.791,1.768,1.766,1.768h5.26
		c0.976,0,1.766-0.791,1.766-1.768C114.553,270.562,113.763,269.771,112.787,269.771"/>
	<path fill="#F26200" d="M149.857,134.749c0.551-0.67,1.021-0.987,1.065-1.016l0.172-0.112l0.2-0.039
		c0.293-0.056,0.576-0.085,0.843-0.085c0.835,0,1.556,0.283,2.084,0.819c0.912,0.925,0.92,2.259,0.918,2.408l-0.003,0.188
		c0.913,0.305,1.886,0.476,2.9,0.476c1.015,0,1.988-0.171,2.9-0.476l-0.002-0.188c-0.002-0.149,0.006-1.483,0.918-2.408
		c0.528-0.536,1.249-0.819,2.084-0.819c0.266,0,0.55,0.029,0.843,0.085l0.2,0.039l0.172,0.112c0.044,0.028,0.513,0.346,1.065,1.016
		h4.474c0.09-0.945-0.227-1.922-0.95-2.646c-0.726-0.727-1.705-1.042-2.652-0.95h-0.376c0.299-0.888,0.469-1.836,0.48-2.822h0.011
		v-6.63c0-0.017-0.005-0.034-0.006-0.051V26.814c0-2.18,1.773-3.952,3.952-3.952h31.123c2.179,0,3.952,1.772,3.952,3.952V42.35
		c0,4.775,3.654,8.693,8.319,9.119c-0.012,0.011-0.025,0.021-0.036,0.03c-0.46,0.384-0.878,0.82-1.247,1.286
		c-0.31,0.391-0.592,0.811-0.793,1.265c-0.191,0.436-0.344,1.069,0.005,1.474c0.218,0.252,0.614,0.31,0.936,0.205
		c0.652-0.213,1.273-0.458,1.977-0.458s1.326,0.245,1.977,0.458c0.322,0.104,0.718,0.047,0.936-0.205
		c0.35-0.404,0.197-1.038,0.005-1.474c-0.2-0.454-0.482-0.874-0.792-1.265c-0.369-0.466-0.787-0.902-1.248-1.286
		c-0.01-0.009-0.024-0.02-0.035-0.03c4.664-0.426,8.318-4.344,8.318-9.119V26.814c0-12.282-9.992-22.274-22.274-22.274h-31.123
		c-12.282,0-22.274,9.992-22.274,22.274v94.833c0,0.019-0.005,0.036-0.005,0.054v6.63h0.01c0.011,0.986,0.181,1.935,0.481,2.822
		h-0.376c-0.947-0.092-1.927,0.224-2.652,0.95c-0.724,0.724-1.041,1.7-0.95,2.646H149.857z M163.42,129.604
		c0,0.794-0.644,1.438-1.44,1.438c-0.794,0-1.439-0.645-1.439-1.438c0-0.797,0.645-1.44,1.439-1.44
		C162.776,128.163,163.42,128.807,163.42,129.604 M162.373,122.278v1.633c0,0.943-0.765,1.708-1.708,1.708h-5.226
		c-0.944,0-1.709-0.765-1.709-1.708v-1.633c0-0.944,0.765-1.709,1.709-1.709h5.226C161.608,120.569,162.373,121.334,162.373,122.278
		 M154.092,128.163c0.795,0,1.44,0.644,1.44,1.44c0,0.794-0.645,1.438-1.44,1.438s-1.44-0.645-1.44-1.438
		C152.652,128.807,153.297,128.163,154.092,128.163"/>
	<path fill="#F26200" d="M164.579,134.61c-0.235-0.046-0.449-0.066-0.644-0.066c-1.985,0-1.955,2.165-1.955,2.165
		c3.249,0.301,5.047,3.049,5.047,3.049C166.728,136.01,164.579,134.61,164.579,134.61"/>
	<path fill="#F26200" d="M152.137,134.544c-0.194,0-0.408,0.021-0.644,0.066c0,0-2.149,1.399-2.448,5.146
		c0,0,1.799-2.748,5.047-3.048C154.092,136.709,154.122,134.544,152.137,134.544"/>
	<path fill="#F26200" d="M6.489,134.716c0.551-0.67,1.021-0.987,1.065-1.016l0.172-0.112l0.2-0.039
		c0.293-0.056,0.576-0.085,0.843-0.085c0.835,0,1.556,0.283,2.084,0.819c0.912,0.925,0.92,2.259,0.918,2.408l-0.003,0.188
		c0.913,0.305,1.886,0.476,2.9,0.476c1.015,0,1.988-0.171,2.9-0.476l-0.002-0.188c-0.002-0.149,0.006-1.483,0.918-2.408
		c0.528-0.536,1.249-0.819,2.084-0.819c0.266,0,0.55,0.029,0.843,0.085l0.2,0.04l0.172,0.111c0.044,0.028,0.513,0.346,1.065,1.016
		h4.474c0.09-0.944-0.226-1.922-0.95-2.646c-0.726-0.726-1.705-1.042-2.652-0.95h-0.376c0.3-0.888,0.469-1.835,0.48-2.822h0.011
		v-6.63c0-0.018-0.005-0.035-0.006-0.053V27.012c0-2.288,1.862-4.149,4.15-4.149h44.037c4.765,0,8.677-3.639,9.117-8.288
		c0,0,0.003,0.004,0.005,0.005c0.383,0.461,0.819,0.878,1.285,1.248c0.391,0.31,0.811,0.592,1.266,0.792
		c0.435,0.191,1.069,0.345,1.473-0.005c0.252-0.218,0.31-0.614,0.205-0.937c-0.213-0.65-0.458-1.272-0.458-1.977
		s0.245-1.325,0.458-1.978c0.105-0.321,0.047-0.718-0.205-0.936c-0.404-0.349-1.038-0.197-1.473-0.005
		c-0.455,0.201-0.875,0.481-1.266,0.792c-0.466,0.37-0.902,0.788-1.285,1.248l-0.005,0.005c-0.44-4.649-4.352-8.288-9.117-8.288
		H27.979c-12.391,0-22.472,10.081-22.472,22.472v94.604c0,0.018-0.005,0.034-0.005,0.052v6.63h0.01
		c0.011,0.987,0.181,1.935,0.481,2.822H5.617c-0.947-0.092-1.927,0.225-2.652,0.95c-0.724,0.724-1.041,1.701-0.95,2.646H6.489z
		 M20.052,129.57c0,0.795-0.644,1.438-1.439,1.438s-1.44-0.644-1.44-1.438s0.645-1.44,1.44-1.44S20.052,128.775,20.052,129.57
		 M19.005,122.245v1.633c0,0.944-0.765,1.708-1.708,1.708h-5.226c-0.944,0-1.709-0.764-1.709-1.708v-1.633
		c0-0.944,0.765-1.709,1.709-1.709h5.226C18.24,120.536,19.005,121.301,19.005,122.245 M10.724,128.13c0.795,0,1.44,0.646,1.44,1.44
		s-0.645,1.438-1.44,1.438s-1.44-0.644-1.44-1.438S9.929,128.13,10.724,128.13"/>
	<path fill="#F26200" d="M21.211,134.577c-0.235-0.046-0.449-0.065-0.644-0.065c-1.985,0-1.954,2.165-1.954,2.165
		c3.248,0.3,5.047,3.048,5.047,3.048C23.36,135.977,21.211,134.577,21.211,134.577"/>
	<path fill="#F26200" d="M8.77,134.511c-0.194,0-0.408,0.021-0.644,0.066c0,0-2.148,1.398-2.448,5.147c0,0,1.799-2.749,5.047-3.049
		C10.725,136.676,10.754,134.511,8.77,134.511"/>
	<path fill="#F26200" d="M221.458,67.796c-0.464,0-0.901-0.181-1.228-0.51c-0.328-0.327-0.509-0.765-0.508-1.229l0.004-3.037
		c-1.292-0.697-2.77-1.094-4.341-1.094c-1.571,0-3.049,0.396-4.341,1.094l0.004,3.037c0.001,0.464-0.18,0.901-0.508,1.229
		c-0.328,0.329-0.764,0.51-1.228,0.51h-2.468c-0.383,0.992-0.603,2.065-0.615,3.189h-0.01v6.63c0,0.019,0.005,0.035,0.005,0.053
		v50.629c0,4.67,3.496,8.515,8.012,9.08c-0.354,0.323-0.688,0.669-0.983,1.041c-0.31,0.392-0.592,0.812-0.792,1.266
		c-0.192,0.435-0.345,1.07,0.004,1.473c0.218,0.252,0.614,0.311,0.937,0.205c0.651-0.212,1.272-0.457,1.976-0.457
		c0.705,0,1.326,0.245,1.977,0.457c0.323,0.105,0.719,0.047,0.937-0.205c0.349-0.402,0.196-1.038,0.004-1.473
		c-0.2-0.454-0.482-0.874-0.792-1.266c-0.295-0.371-0.628-0.716-0.982-1.038c4.522-0.562,8.024-4.409,8.024-9.083V77.668
		c0-0.019,0.005-0.034,0.005-0.053v-6.63h-0.01c-0.013-1.124-0.232-2.197-0.615-3.189H221.458z M211.048,69.714
		c0-0.796,0.645-1.439,1.44-1.439c0.795,0,1.439,0.644,1.439,1.439s-0.644,1.439-1.439,1.439
		C211.693,71.153,211.048,70.51,211.048,69.714 M215.385,78.747c-2.024,0-3.664-1.641-3.664-3.665c0-2.023,1.64-3.664,3.664-3.664
		c2.024,0,3.664,1.641,3.664,3.664C219.049,77.106,217.409,78.747,215.385,78.747 M218.282,71.153c-0.795,0-1.439-0.644-1.439-1.439
		s0.644-1.439,1.439-1.439c0.795,0,1.44,0.644,1.44,1.439S219.077,71.153,218.282,71.153"/>
	<path fill="#F26200" d="M209.312,66.749c0.381,0,0.689-0.309,0.689-0.69l-0.006-3.933c0-0.373-0.297-0.688-0.666-0.688
		c-0.01,0-0.021,0-0.031,0c-1.161,0.056-2.307,0.526-3.194,1.413c-0.889,0.89-1.36,2.038-1.414,3.202
		c-0.017,0.383,0.306,0.696,0.689,0.696H209.312z"/>
	<path fill="#F26200" d="M221.472,61.438c-0.01,0-0.021-0.001-0.031-0.001c-0.369,0-0.666,0.316-0.666,0.689l-0.006,3.933
		c-0.001,0.381,0.308,0.69,0.689,0.69h3.933c0.383,0,0.706-0.313,0.689-0.696c-0.054-1.164-0.525-2.312-1.414-3.202
		C223.779,61.964,222.633,61.493,221.472,61.438"/>
	<path fill="#F26200" d="M214.019,74.075c-0.556,0-1.008,0.451-1.008,1.008c0,0.556,0.452,1.007,1.008,1.007
		s1.008-0.451,1.008-1.007C215.026,74.526,214.575,74.075,214.019,74.075"/>
	<path fill="#F26200" d="M216.842,74.075c-0.556,0-1.007,0.451-1.007,1.008c0,0.556,0.451,1.007,1.007,1.007
		c0.557,0,1.008-0.451,1.008-1.007C217.851,74.526,217.399,74.075,216.842,74.075"/>
	<path fill="#F26200" d="M9.811,217.919c0.328,0.328,0.508,0.765,0.508,1.229l-0.005,3.037c1.292,0.697,2.77,1.094,4.341,1.094
		c1.571,0,3.049-0.396,4.342-1.094l-0.005-3.037c0-0.464,0.18-0.9,0.508-1.229c0.328-0.329,0.764-0.509,1.228-0.509h2.469
		c0.383-0.993,0.602-2.066,0.614-3.19h0.011v-6.63c0-0.017-0.005-0.033-0.005-0.05v-22.008c0-4.669-3.497-8.516-8.013-9.081
		c0.354-0.323,0.688-0.668,0.983-1.04c0.311-0.393,0.592-0.812,0.793-1.266c0.192-0.436,0.344-1.069-0.005-1.474
		c-0.218-0.252-0.614-0.31-0.936-0.205c-0.652,0.213-1.273,0.458-1.977,0.458s-1.326-0.245-1.977-0.458
		c-0.322-0.104-0.718-0.047-0.936,0.205c-0.35,0.404-0.197,1.038-0.005,1.474c0.2,0.454,0.482,0.873,0.792,1.266
		c0.295,0.371,0.629,0.716,0.982,1.038c-4.521,0.561-8.024,4.41-8.024,9.083v22.004c0,0.018-0.005,0.035-0.005,0.054v6.63h0.01
		c0.013,1.124,0.232,2.197,0.615,3.19h2.469C9.047,217.41,9.483,217.59,9.811,217.919 M18.992,215.492
		c0,0.795-0.644,1.438-1.44,1.438c-0.795,0-1.439-0.644-1.439-1.438c0-0.796,0.644-1.44,1.439-1.44
		C18.348,214.052,18.992,214.696,18.992,215.492 M14.655,206.458c2.024,0,3.665,1.641,3.665,3.665c0,2.023-1.641,3.664-3.665,3.664
		c-2.023,0-3.664-1.641-3.664-3.664C10.991,208.099,12.632,206.458,14.655,206.458 M11.758,214.052c0.795,0,1.44,0.645,1.44,1.44
		c0,0.795-0.645,1.438-1.44,1.438s-1.44-0.644-1.44-1.438C10.318,214.696,10.963,214.052,11.758,214.052"/>
	<path fill="#F26200" d="M20.728,218.456c-0.381,0-0.689,0.31-0.689,0.69l0.006,3.933c0,0.373,0.298,0.689,0.666,0.689
		c0.01,0,0.021,0,0.031-0.001c1.161-0.055,2.307-0.526,3.194-1.413c0.889-0.889,1.36-2.038,1.414-3.202
		c0.017-0.383-0.306-0.696-0.689-0.696H20.728z"/>
	<path fill="#F26200" d="M8.568,223.768c0.01,0,0.021,0.001,0.031,0.001c0.369,0,0.666-0.315,0.666-0.688l0.006-3.934
		c0-0.381-0.308-0.689-0.689-0.689H4.649c-0.383,0-0.706,0.312-0.689,0.695c0.054,1.164,0.525,2.313,1.414,3.202
		C6.261,223.241,7.407,223.713,8.568,223.768"/>
	<path fill="#F26200" d="M16.021,211.131c0.556,0,1.008-0.451,1.008-1.009c0-0.556-0.452-1.007-1.008-1.007
		c-0.557,0-1.008,0.451-1.008,1.007C15.013,210.68,15.464,211.131,16.021,211.131"/>
	<path fill="#F26200" d="M13.197,211.131c0.557,0,1.008-0.451,1.008-1.009c0-0.556-0.451-1.007-1.008-1.007
		c-0.556,0-1.008,0.451-1.008,1.007C12.189,210.68,12.641,211.131,13.197,211.131"/>
	<path fill="#F26200" d="M220.276,267.207c-0.957,0-1.736-0.778-1.736-1.735v-2.469c-0.992-0.383-2.065-0.603-3.19-0.614v-0.01
		h-6.629c-0.017,0-0.033,0.004-0.05,0.005h-50.688c-4.67,0-8.515,3.496-9.081,8.012c-0.323-0.354-0.668-0.688-1.041-0.983
		c-0.391-0.31-0.811-0.592-1.265-0.793c-0.435-0.19-1.069-0.344-1.473,0.006c-0.252,0.218-0.31,0.613-0.205,0.936
		c0.212,0.652,0.458,1.273,0.458,1.977c0,0.704-0.246,1.326-0.458,1.978c-0.105,0.322-0.047,0.718,0.205,0.936
		c0.404,0.351,1.038,0.197,1.473,0.005c0.454-0.199,0.874-0.481,1.265-0.792c0.372-0.295,0.716-0.628,1.039-0.981
		c0.561,4.521,4.409,8.023,9.083,8.023h50.683c0.019,0,0.036,0.006,0.055,0.006h6.629V280.7c1.125-0.013,2.198-0.231,3.19-0.614
		v-2.47c0-0.957,0.779-1.734,1.736-1.734h0.001h0.001h0.001l3.037,0.004c0.697-1.292,1.093-2.771,1.093-4.341
		c0-1.571-0.396-3.05-1.093-4.343L220.276,267.207z M211.254,267.88c2.023,0,3.664,1.641,3.664,3.665
		c0,2.023-1.641,3.664-3.664,3.664c-2.024,0-3.665-1.641-3.665-3.664C207.589,269.521,209.23,267.88,211.254,267.88
		 M216.622,270.087c-0.795,0-1.439-0.645-1.439-1.439s0.644-1.44,1.439-1.44c0.796,0,1.44,0.646,1.44,1.44
		S217.418,270.087,216.622,270.087 M218.062,274.441c0,0.795-0.644,1.44-1.44,1.44c-0.795,0-1.439-0.646-1.439-1.44
		s0.644-1.439,1.439-1.439C217.418,273.002,218.062,273.646,218.062,274.441"/>
	<path fill="#F26200" d="M224.21,266.154c0.383-0.001,0.706-0.313,0.688-0.696c-0.055-1.162-0.526-2.308-1.413-3.194
		c-0.889-0.889-2.038-1.36-3.202-1.414c-0.01,0-0.02,0-0.03,0c-0.369,0-0.666,0.316-0.666,0.689v3.933
		c0,0.38,0.308,0.689,0.688,0.689h0.002L224.21,266.154z"/>
	<path fill="#F26200" d="M220.277,276.928L220.277,276.928c-0.382,0-0.69,0.309-0.69,0.689v3.933c0,0.373,0.297,0.689,0.667,0.689
		c0.009,0,0.019,0,0.029-0.001c1.164-0.053,2.313-0.524,3.202-1.413c0.887-0.887,1.358-2.033,1.413-3.194
		c0.018-0.383-0.304-0.696-0.688-0.696L220.277,276.928z"/>
	<path fill="#F26200" d="M211.254,271.186c0.557,0,1.008-0.451,1.008-1.008s-0.451-1.007-1.008-1.007
		c-0.556,0-1.008,0.45-1.008,1.007S210.698,271.186,211.254,271.186"/>
	<path fill="#F26200" d="M211.254,274.01c0.557,0,1.008-0.451,1.008-1.008s-0.451-1.008-1.008-1.008
		c-0.556,0-1.008,0.451-1.008,1.008S210.698,274.01,211.254,274.01"/>
	<path fill="#F26200" d="M142.603,223.433h44.109c4.857,0,8.82-3.782,9.131-8.562c0.084,0.106,0.171,0.202,0.235,0.278
		c0.384,0.461,0.82,0.878,1.286,1.248c0.391,0.31,0.811,0.592,1.265,0.792c0.435,0.191,1.069,0.345,1.473-0.005
		c0.252-0.219,0.31-0.614,0.205-0.937c-0.212-0.652-0.457-1.272-0.457-1.977s0.245-1.325,0.457-1.978
		c0.105-0.321,0.047-0.718-0.205-0.936c-0.404-0.351-1.038-0.197-1.473-0.005c-0.454,0.199-0.874,0.481-1.265,0.792
		c-0.466,0.37-0.902,0.787-1.286,1.248c-0.064,0.075-0.151,0.172-0.235,0.277c-0.311-4.777-4.274-8.561-9.131-8.561h-44.109
		c-12.325,0-22.352,10.026-22.352,22.352v37.295c0,0.018-0.005,0.033-0.005,0.052v6.63h0.01c0.011,0.985,0.181,1.934,0.481,2.821
		h-0.377c-0.946-0.092-1.926,0.225-2.651,0.95c-0.724,0.725-1.041,1.701-0.95,2.646h4.474c0.551-0.67,1.021-0.987,1.065-1.017
		l0.171-0.111l0.201-0.039c0.293-0.057,0.576-0.085,0.843-0.085c0.835,0,1.555,0.282,2.084,0.818c0.912,0.926,0.92,2.26,0.918,2.408
		l-0.003,0.189c0.913,0.305,1.885,0.476,2.9,0.476c1.015,0,1.988-0.171,2.9-0.476l-0.002-0.189
		c-0.002-0.148,0.005-1.482,0.918-2.408c0.528-0.536,1.249-0.818,2.083-0.818c0.267,0,0.551,0.028,0.843,0.085l0.201,0.039
		l0.171,0.111c0.045,0.029,0.514,0.347,1.066,1.017h4.474c0.09-0.945-0.227-1.922-0.951-2.646c-0.725-0.726-1.704-1.042-2.651-0.95
		h-0.376c0.299-0.888,0.469-1.836,0.48-2.821h0.01v-6.63c0-0.019-0.005-0.035-0.005-0.054v-37.293
		C138.572,225.24,140.38,223.433,142.603,223.433 M134.795,272.709c0,0.795-0.645,1.44-1.44,1.44s-1.439-0.646-1.439-1.44
		s0.644-1.438,1.439-1.438S134.795,271.914,134.795,272.709 M126.907,272.709c0,0.795-0.644,1.44-1.439,1.44
		c-0.795,0-1.44-0.646-1.44-1.44s0.645-1.438,1.44-1.438C126.263,271.271,126.907,271.914,126.907,272.709 M133.749,265.385v1.634
		c0,0.942-0.765,1.708-1.709,1.708h-5.225c-0.944,0-1.709-0.766-1.709-1.708v-1.634c0-0.943,0.765-1.709,1.709-1.709h5.225
		C132.983,263.676,133.749,264.441,133.749,265.385"/>
	<path fill="#F26200" d="M135.955,277.718c-0.235-0.046-0.449-0.066-0.644-0.066c-1.985,0-1.954,2.165-1.954,2.165
		c3.248,0.3,5.047,3.048,5.047,3.048C138.104,279.116,135.955,277.718,135.955,277.718"/>
	<path fill="#F26200" d="M123.513,277.651c-0.194,0-0.408,0.021-0.644,0.065c0,0-2.148,1.4-2.448,5.148c0,0,1.799-2.749,5.047-3.049
		C125.467,279.816,125.498,277.651,123.513,277.651"/>
	<path fill="#F26200" d="M186.721,38.44c-1.552,0-2.814-1.262-2.814-2.813v-1.774c-3.651,1.177-6.298,4.582-6.342,8.614h-0.011
		v6.629c0,0.007,0.002,0.014,0.002,0.02v79.183c0,4.864,3.794,8.831,8.582,9.132c-0.114,0.09-0.218,0.184-0.299,0.251
		c-0.46,0.384-0.878,0.82-1.247,1.286c-0.31,0.391-0.592,0.811-0.792,1.265c-0.192,0.437-0.345,1.07,0.004,1.474
		c0.218,0.252,0.614,0.31,0.936,0.205c0.652-0.213,1.273-0.457,1.977-0.457c0.705,0,1.326,0.244,1.977,0.457
		c0.323,0.104,0.718,0.047,0.936-0.205c0.35-0.403,0.197-1.037,0.005-1.474c-0.2-0.454-0.482-0.874-0.792-1.265
		c-0.369-0.466-0.787-0.902-1.247-1.286c-0.081-0.067-0.185-0.161-0.299-0.251c4.788-0.301,8.581-4.268,8.581-9.132V49.181
		c0.001-0.029,0.009-0.056,0.009-0.085v-6.629h-0.01c-0.045-4.032-2.692-7.438-6.343-8.614v1.774
		C189.534,37.179,188.272,38.44,186.721,38.44 M189.618,40.068c0.795,0,1.439,0.646,1.439,1.44s-0.644,1.439-1.439,1.439
		s-1.44-0.645-1.44-1.439S188.823,40.068,189.618,40.068 M190.549,46.333l-3.257,3.268c-0.316,0.316-0.828,0.316-1.144,0
		l-3.262-3.262c-0.318-0.317-0.326-0.845,0.006-1.148c1.01-0.922,2.354-1.482,3.828-1.482c1.472,0,2.813,0.559,3.822,1.477
		C190.874,45.486,190.867,46.015,190.549,46.333 M185.263,41.509c0,0.795-0.645,1.439-1.44,1.439s-1.439-0.645-1.439-1.439
		s0.644-1.44,1.439-1.44S185.263,40.714,185.263,41.509"/>
	<path fill="#F26200" d="M188.487,35.627v-5.26c0-0.976-0.791-1.767-1.766-1.767c-0.976,0-1.767,0.791-1.767,1.767v5.26
		c0,0.976,0.791,1.766,1.767,1.766C187.696,37.393,188.487,36.603,188.487,35.627"/>
	<path fill="#F26200" d="M55.014,181.837c0.724-0.724,1.041-1.701,0.95-2.646H51.49c-0.551,0.669-1.021,0.986-1.065,1.016
		l-0.171,0.112l-0.201,0.038c-0.293,0.057-0.576,0.086-0.843,0.086c-0.835,0-1.556-0.283-2.084-0.819
		c-0.912-0.925-0.92-2.259-0.918-2.408l0.003-0.188c-0.913-0.306-1.886-0.478-2.9-0.478c-1.015,0-1.988,0.172-2.9,0.478l0.003,0.188
		c0.002,0.149-0.006,1.483-0.919,2.408c-0.528,0.536-1.249,0.819-2.083,0.819c-0.267,0-0.551-0.029-0.843-0.086l-0.201-0.038
		l-0.171-0.112c-0.045-0.029-0.514-0.347-1.066-1.016h-4.474c-0.09,0.944,0.227,1.922,0.951,2.646
		c0.725,0.726,1.704,1.042,2.651,0.95h0.376c-0.299,0.888-0.469,1.835-0.48,2.822h-0.011v6.63c0,0.018,0.005,0.035,0.006,0.053
		v50.56c0,4.836,3.75,8.788,8.5,9.129c-0.088,0.071-0.168,0.143-0.233,0.197c-0.46,0.385-0.878,0.82-1.247,1.286
		c-0.31,0.392-0.592,0.811-0.792,1.265c-0.192,0.436-0.345,1.069,0.004,1.474c0.218,0.252,0.614,0.31,0.937,0.205
		c0.651-0.213,1.272-0.458,1.976-0.458c0.705,0,1.326,0.245,1.977,0.458c0.323,0.104,0.719,0.047,0.937-0.205
		c0.349-0.404,0.196-1.038,0.004-1.474c-0.2-0.454-0.482-0.873-0.792-1.265c-0.369-0.466-0.787-0.901-1.247-1.286
		c-0.065-0.054-0.144-0.125-0.231-0.196c4.763-0.326,8.529-4.283,8.529-9.13V192.29c0-0.017,0.005-0.034,0.005-0.051v-6.63h-0.01
		c-0.011-0.987-0.181-1.935-0.481-2.822h0.376C53.31,182.879,54.289,182.562,55.014,181.837 M37.927,184.337
		c0-0.795,0.645-1.438,1.44-1.438s1.439,0.644,1.439,1.438s-0.644,1.44-1.439,1.44S37.927,185.132,37.927,184.337 M47.617,191.662
		c0,0.943-0.765,1.708-1.709,1.708h-5.226c-0.943,0-1.708-0.765-1.708-1.708v-1.633c0-0.944,0.765-1.709,1.708-1.709h5.226
		c0.944,0,1.709,0.765,1.709,1.709V191.662z M47.255,185.777c-0.795,0-1.44-0.646-1.44-1.44s0.645-1.438,1.44-1.438
		c0.795,0,1.44,0.644,1.44,1.438S48.05,185.777,47.255,185.777"/>
	<path fill="#F26200" d="M36.768,179.329c0.235,0.046,0.449,0.067,0.644,0.067c1.985,0,1.955-2.166,1.955-2.166
		c-3.249-0.3-5.048-3.048-5.048-3.048C34.619,177.931,36.768,179.329,36.768,179.329"/>
	<path fill="#F26200" d="M49.21,179.396c0.195,0,0.409-0.021,0.644-0.067c0,0,2.148-1.399,2.448-5.147c0,0-1.799,2.749-5.047,3.05
		C47.255,177.231,47.224,179.396,49.21,179.396"/>
	<path fill="#F26200" d="M377.923,142.206v59.527c0,2.172-1.768,3.94-3.941,3.94h-15.511c-4.785,0-8.708,3.67-9.12,8.348
		c-0.019-0.022-0.039-0.045-0.055-0.064c-0.384-0.46-0.82-0.878-1.286-1.247c-0.391-0.311-0.811-0.593-1.265-0.792
		c-0.436-0.193-1.07-0.346-1.473,0.004c-0.252,0.218-0.31,0.614-0.205,0.936c0.212,0.652,0.457,1.273,0.457,1.978
		s-0.245,1.326-0.457,1.977c-0.105,0.322-0.047,0.718,0.205,0.937c0.403,0.35,1.037,0.196,1.473,0.005
		c0.454-0.2,0.874-0.482,1.265-0.792c0.466-0.369,0.902-0.787,1.286-1.247c0.016-0.021,0.036-0.043,0.055-0.065
		c0.412,4.679,4.335,8.348,9.12,8.348h15.511c12.276,0,22.263-9.987,22.263-22.263v-59.527c0-2.204,1.793-3.997,3.996-3.997h37.592
		c0.019,0.001,0.036,0.006,0.054,0.006h6.63v-0.011c1.124-0.013,2.197-0.231,3.19-0.614l-0.001-2.469
		c0-0.957,0.779-1.736,1.736-1.736h0.001h0.001h0.001l3.037,0.005c0.697-1.292,1.093-2.771,1.093-4.342s-0.396-3.049-1.093-4.341
		l-3.04,0.005c-0.957,0-1.736-0.779-1.736-1.736l0.001-2.469c-0.993-0.383-2.066-0.603-3.19-0.614v-0.011h-6.63
		c-0.017,0-0.033,0.005-0.051,0.005h-37.595C387.934,119.887,377.923,129.899,377.923,142.206 M445.788,124.712
		c0.796,0,1.44,0.644,1.44,1.438s-0.644,1.44-1.44,1.44c-0.794,0-1.439-0.646-1.439-1.44S444.994,124.712,445.788,124.712
		 M445.788,133.385c-0.794,0-1.439-0.645-1.439-1.439s0.645-1.439,1.439-1.439c0.796,0,1.44,0.645,1.44,1.439
		S446.584,133.385,445.788,133.385 M440.42,125.384c2.024,0,3.664,1.641,3.664,3.664s-1.64,3.665-3.664,3.665
		c-2.024,0-3.664-1.642-3.664-3.665S438.396,125.384,440.42,125.384"/>
	<path fill="#F26200" d="M448.753,122.976c0,0.381,0.309,0.688,0.689,0.688h0.001l3.934-0.006c0.383-0.001,0.706-0.313,0.687-0.696
		c-0.055-1.161-0.526-2.308-1.413-3.194c-0.889-0.889-2.038-1.36-3.202-1.414c-0.01,0-0.02,0-0.029,0
		c-0.37,0-0.667,0.316-0.667,0.689V122.976z"/>
	<path fill="#F26200" d="M449.443,134.432L449.443,134.432c-0.381,0-0.69,0.309-0.69,0.689v3.933c0,0.373,0.297,0.689,0.667,0.689
		c0.009,0,0.019,0,0.029,0c1.164-0.054,2.313-0.525,3.202-1.414c0.887-0.887,1.358-2.033,1.413-3.194
		c0.019-0.383-0.304-0.697-0.687-0.697L449.443,134.432z"/>
	<path fill="#F26200" d="M440.42,128.689c0.556,0,1.008-0.451,1.008-1.008s-0.452-1.007-1.008-1.007
		c-0.556,0-1.008,0.45-1.008,1.007S439.864,128.689,440.42,128.689"/>
	<path fill="#F26200" d="M440.42,131.514c0.556,0,1.008-0.451,1.008-1.008s-0.452-1.008-1.008-1.008
		c-0.556,0-1.008,0.451-1.008,1.008S439.864,131.514,440.42,131.514"/>
	<path fill="#F26200" d="M363.456,267.833c-0.957,0-1.736-0.779-1.736-1.736v-2.469c-0.992-0.383-2.065-0.603-3.19-0.614v-0.011
		h-6.629c-0.018,0-0.034,0.005-0.051,0.005h-22.007c-4.67,0-8.515,3.497-9.081,8.013c-0.323-0.354-0.668-0.688-1.041-0.983
		c-0.391-0.311-0.811-0.592-1.265-0.792c-0.435-0.192-1.069-0.346-1.473,0.005c-0.252,0.218-0.31,0.614-0.205,0.936
		c0.213,0.652,0.458,1.273,0.458,1.978s-0.245,1.325-0.458,1.977c-0.105,0.322-0.047,0.718,0.205,0.937
		c0.404,0.35,1.038,0.196,1.473,0.005c0.454-0.2,0.874-0.482,1.265-0.792c0.372-0.295,0.716-0.629,1.039-0.982
		c0.561,4.521,4.409,8.023,9.083,8.023h22.004c0.018,0.001,0.035,0.006,0.054,0.006h6.629v-0.011
		c1.125-0.013,2.198-0.231,3.19-0.614v-2.469c0-0.957,0.779-1.735,1.736-1.735h0.001h0.001h0.001l3.037,0.004
		c0.697-1.292,1.093-2.77,1.093-4.341c0-1.572-0.396-3.05-1.093-4.342L363.456,267.833z M354.434,268.505
		c2.023,0,3.664,1.641,3.664,3.665c0,2.022-1.641,3.664-3.664,3.664c-2.024,0-3.665-1.642-3.665-3.664
		C350.769,270.146,352.41,268.505,354.434,268.505 M359.802,270.712c-0.795,0-1.439-0.646-1.439-1.44s0.644-1.438,1.439-1.438
		s1.44,0.644,1.44,1.438S360.597,270.712,359.802,270.712 M361.242,275.066c0,0.795-0.645,1.44-1.44,1.44s-1.439-0.646-1.439-1.44
		s0.644-1.439,1.439-1.439S361.242,274.271,361.242,275.066"/>
	<path fill="#F26200" d="M367.391,266.779c0.383,0,0.706-0.313,0.688-0.696c-0.056-1.162-0.527-2.308-1.414-3.194
		c-0.889-0.889-2.037-1.359-3.201-1.414c-0.01,0-0.02,0-0.03,0c-0.369,0-0.666,0.316-0.666,0.689v3.933
		c0,0.381,0.308,0.689,0.688,0.689h0.001L367.391,266.779z"/>
	<path fill="#F26200" d="M363.457,277.554L363.457,277.554c-0.381,0-0.69,0.308-0.69,0.688v3.934c0,0.373,0.297,0.688,0.667,0.688
		c0.009,0,0.019,0,0.029,0c1.164-0.054,2.313-0.525,3.202-1.414c0.887-0.887,1.358-2.033,1.413-3.194
		c0.018-0.383-0.304-0.696-0.687-0.696L363.457,277.554z"/>
	<path fill="#F26200" d="M354.434,271.811c0.557,0,1.008-0.451,1.008-1.008c0-0.556-0.451-1.007-1.008-1.007
		c-0.556,0-1.008,0.451-1.008,1.007C353.425,271.359,353.877,271.811,354.434,271.811"/>
	<path fill="#F26200" d="M354.434,274.635c0.557,0,1.008-0.451,1.008-1.007c0-0.558-0.451-1.009-1.008-1.009
		c-0.556,0-1.008,0.451-1.008,1.009C353.425,274.184,353.877,274.635,354.434,274.635"/>
	<path fill="#F26200" d="M294.5,33.797c-0.018,0-0.034,0.005-0.052,0.005h-37.567c-12.272,0-22.256,9.984-22.256,22.256v15.562
		c0,4.785,3.671,8.708,8.35,9.119c-0.023,0.021-0.046,0.041-0.067,0.058c-0.46,0.383-0.878,0.82-1.247,1.285
		c-0.31,0.392-0.592,0.812-0.792,1.266c-0.192,0.436-0.345,1.069,0.004,1.474c0.218,0.252,0.614,0.31,0.937,0.204
		c0.651-0.213,1.272-0.458,1.976-0.458c0.705,0,1.326,0.245,1.977,0.458c0.323,0.105,0.719,0.048,0.937-0.204
		c0.349-0.404,0.196-1.038,0.004-1.474c-0.2-0.454-0.482-0.874-0.792-1.266c-0.369-0.465-0.787-0.902-1.247-1.285
		c-0.021-0.017-0.044-0.037-0.067-0.058c4.679-0.411,8.349-4.334,8.349-9.119V56.058c0-2.169,1.765-3.934,3.934-3.934h37.566
		c0.018,0.001,0.035,0.006,0.053,0.006h6.63v-0.011c1.124-0.013,2.197-0.231,3.189-0.614v-2.469c0-0.957,0.779-1.736,1.736-1.736
		h0.001h0.001h0.001l3.037,0.005c0.697-1.292,1.093-2.77,1.093-4.342c0-1.571-0.396-3.049-1.093-4.341l-3.04,0.005
		c-0.957,0-1.736-0.779-1.736-1.736v-2.469c-0.992-0.383-2.065-0.602-3.189-0.614v-0.011H294.5z M303.841,40.065
		c0,0.795-0.645,1.44-1.44,1.44s-1.439-0.646-1.439-1.44s0.644-1.438,1.439-1.438S303.841,39.271,303.841,40.065 M302.401,47.3
		c-0.795,0-1.439-0.644-1.439-1.439c0-0.795,0.644-1.439,1.439-1.439s1.44,0.645,1.44,1.439
		C303.841,46.656,303.196,47.3,302.401,47.3 M297.034,39.299c2.024,0,3.664,1.641,3.664,3.664s-1.64,3.665-3.664,3.665
		c-2.024,0-3.664-1.642-3.664-3.665S295.009,39.299,297.034,39.299"/>
	<path fill="#F26200" d="M305.367,36.891c0,0.38,0.308,0.689,0.689,0.689h0.001l3.933-0.007c0.384-0.001,0.706-0.313,0.688-0.696
		c-0.055-1.162-0.526-2.308-1.413-3.194c-0.889-0.889-2.038-1.36-3.202-1.414c-0.01,0-0.02,0-0.03,0
		c-0.369,0-0.666,0.316-0.666,0.689V36.891z"/>
	<path fill="#F26200" d="M306.057,48.347L306.057,48.347c-0.381,0-0.69,0.309-0.69,0.689v3.933c0,0.373,0.297,0.689,0.666,0.689
		c0.01,0,0.02,0,0.03,0c1.164-0.054,2.313-0.525,3.202-1.414c0.887-0.887,1.358-2.033,1.413-3.194
		c0.019-0.383-0.304-0.696-0.687-0.696L306.057,48.347z"/>
	<path fill="#F26200" d="M297.034,42.604c0.556,0,1.007-0.451,1.007-1.008s-0.451-1.007-1.007-1.007
		c-0.557,0-1.008,0.45-1.008,1.007S296.477,42.604,297.034,42.604"/>
	<path fill="#F26200" d="M297.034,45.429c0.556,0,1.007-0.451,1.007-1.008s-0.451-1.008-1.007-1.008
		c-0.557,0-1.008,0.451-1.008,1.008S296.477,45.429,297.034,45.429"/>
	<path fill="#F26200" d="M320.615,142.224v65.954c-0.001,0.019-0.006,0.035-0.006,0.055v6.63h0.011
		c0.012,1.124,0.232,2.196,0.615,3.189h2.468c0.464,0,0.9,0.181,1.228,0.509c0.328,0.328,0.508,0.766,0.508,1.229l-0.005,3.037
		c1.292,0.696,2.771,1.093,4.342,1.093c1.571,0,3.049-0.396,4.341-1.093l-0.004-3.037c-0.001-0.464,0.179-0.9,0.507-1.229
		c0.328-0.328,0.764-0.509,1.228-0.509h2.469c0.383-0.993,0.602-2.065,0.615-3.189h0.01v-6.63c0-0.018-0.005-0.033-0.005-0.051
		v-65.958c0-12.306-10.012-22.317-22.319-22.317h-59.715c-2.181,0-3.955-1.774-3.955-3.955v-15.684c0-4.774-3.655-8.692-8.319-9.119
		c0.012-0.01,0.025-0.021,0.036-0.029c0.461-0.384,0.878-0.82,1.248-1.286c0.31-0.392,0.592-0.812,0.792-1.265
		c0.192-0.437,0.345-1.07-0.005-1.475c-0.218-0.251-0.614-0.31-0.936-0.204c-0.652,0.212-1.273,0.457-1.977,0.457
		s-1.325-0.245-1.977-0.457c-0.322-0.105-0.718-0.047-0.936,0.204c-0.35,0.404-0.197,1.038-0.005,1.475
		c0.2,0.453,0.482,0.873,0.792,1.265c0.37,0.466,0.787,0.902,1.248,1.286c0.011,0.009,0.023,0.02,0.035,0.029
		c-4.664,0.427-8.318,4.344-8.318,9.119v15.684c0,12.283,9.993,22.276,22.277,22.276h59.715
		C318.822,138.228,320.615,140.021,320.615,142.224 M334.113,216.134c0,0.795-0.645,1.439-1.44,1.439s-1.44-0.645-1.44-1.439
		s0.645-1.439,1.44-1.439S334.113,215.339,334.113,216.134 M328.318,216.134c0,0.795-0.644,1.439-1.44,1.439
		c-0.795,0-1.439-0.645-1.439-1.439s0.644-1.439,1.439-1.439C327.674,214.694,328.318,215.339,328.318,216.134 M333.44,210.765
		c0,2.024-1.64,3.664-3.664,3.664s-3.665-1.64-3.665-3.664c0-2.023,1.641-3.664,3.665-3.664S333.44,208.741,333.44,210.765"/>
	<path fill="#F26200" d="M335.849,219.099c-0.381,0-0.69,0.309-0.689,0.689l0.006,3.934c0.001,0.373,0.298,0.688,0.666,0.688
		c0.011,0,0.021,0,0.031-0.001c1.162-0.055,2.307-0.525,3.194-1.413c0.889-0.889,1.36-2.037,1.414-3.201
		c0.017-0.384-0.306-0.696-0.689-0.696H335.849z"/>
	<path fill="#F26200" d="M324.392,219.788c0-0.381-0.308-0.689-0.689-0.689h-3.933c-0.383,0-0.706,0.312-0.689,0.696
		c0.054,1.163,0.525,2.312,1.414,3.201c0.887,0.888,2.033,1.358,3.194,1.413c0.01,0.001,0.021,0.001,0.031,0.001
		c0.369,0,0.666-0.315,0.666-0.688L324.392,219.788z"/>
	<path fill="#F26200" d="M331.142,211.772c0.556,0,1.008-0.451,1.008-1.008c0-0.556-0.452-1.007-1.008-1.007
		c-0.557,0-1.008,0.451-1.008,1.007C330.134,211.321,330.585,211.772,331.142,211.772"/>
	<path fill="#F26200" d="M328.318,209.757c-0.556,0-1.008,0.451-1.008,1.009c0,0.556,0.452,1.007,1.008,1.007
		s1.008-0.451,1.008-1.007C329.326,210.208,328.874,209.757,328.318,209.757"/>
	<path fill="#F26200" d="M346.759,189.918c-0.724,0.725-1.041,1.701-0.95,2.646h4.474c0.551-0.67,1.021-0.987,1.065-1.017
		l0.171-0.11l0.201-0.039c0.293-0.058,0.576-0.086,0.843-0.086c0.835,0,1.555,0.282,2.084,0.818c0.912,0.925,0.92,2.26,0.918,2.408
		l-0.014,0.941l-0.937,0.087c-0.372,0.034-0.721,0.11-1.049,0.213c1.417,0.899,3.094,1.428,4.897,1.428
		c1.805,0,3.482-0.529,4.9-1.429c-0.328-0.102-0.678-0.178-1.052-0.212l-0.937-0.087l-0.014-0.941
		c-0.002-0.148,0.006-1.483,0.919-2.408c0.528-0.536,1.249-0.818,2.084-0.818c0.266,0,0.55,0.028,0.842,0.086l0.201,0.039
		l0.171,0.11c0.045,0.029,0.514,0.347,1.066,1.017h4.474c0.09-0.945-0.226-1.922-0.95-2.646c-0.71-0.709-1.662-1.024-2.589-0.953
		c0.03-0.302,0.046-0.607,0.046-0.918v-1.9h0.005v-6.631c0-0.017-0.004-0.033-0.005-0.051V71.618c0-4.815-3.716-8.754-8.436-9.124
		c0.062-0.054,0.12-0.104,0.169-0.145c0.46-0.385,0.878-0.82,1.247-1.286c0.31-0.392,0.592-0.812,0.792-1.266
		c0.192-0.435,0.345-1.069-0.004-1.473c-0.218-0.252-0.614-0.31-0.936-0.205c-0.652,0.212-1.273,0.457-1.977,0.457
		c-0.705,0-1.326-0.245-1.977-0.457c-0.323-0.104-0.719-0.047-0.936,0.205c-0.35,0.403-0.197,1.038-0.005,1.473
		c0.2,0.454,0.482,0.874,0.792,1.266c0.369,0.466,0.787,0.901,1.247,1.286c0.049,0.039,0.106,0.091,0.168,0.143
		c-4.734,0.357-8.466,4.302-8.466,9.126v107.845c0,0.019-0.005,0.035-0.005,0.053v6.631h0.005v1.9c0,0.311,0.017,0.616,0.047,0.918
		C348.42,188.894,347.468,189.209,346.759,189.918 M363.846,187.418c0,0.795-0.644,1.439-1.44,1.439
		c-0.795,0-1.439-0.645-1.439-1.439s0.644-1.439,1.439-1.439C363.202,185.979,363.846,186.623,363.846,187.418 M354.156,180.093
		c0-0.943,0.765-1.708,1.708-1.708h5.227c0.943,0,1.708,0.765,1.708,1.708v1.634c0,0.942-0.765,1.708-1.708,1.708h-5.227
		c-0.943,0-1.708-0.766-1.708-1.708V180.093z M354.518,185.979c0.795,0,1.44,0.645,1.44,1.439s-0.645,1.439-1.44,1.439
		s-1.44-0.645-1.44-1.439S353.723,185.979,354.518,185.979"/>
	<path fill="#F26200" d="M367.454,197.572c-0.3-3.748-2.449-5.146-2.449-5.146c-0.235-0.046-0.449-0.067-0.643-0.067
		c-1.986,0-1.955,2.166-1.955,2.166C365.655,194.824,367.454,197.572,367.454,197.572"/>
	<path fill="#F26200" d="M352.563,192.359c-0.195,0-0.409,0.021-0.644,0.066c0,0-2.148,1.399-2.448,5.147
		c0,0,1.799-2.749,5.047-3.049C354.518,194.524,354.548,192.359,352.563,192.359"/>
	<path fill="#F26200" d="M388.821,112.293v-5.259c0-0.977-0.791-1.768-1.767-1.768c-0.975,0-1.766,0.791-1.766,1.768v5.259
		c0,0.976,0.791,1.766,1.766,1.766C388.03,114.059,388.821,113.269,388.821,112.293"/>
	<path fill="#F26200" d="M323.156,91.102c-0.008,0-0.015,0.002-0.023,0.002H272.46c-4.857,0-8.82,3.782-9.13,8.561
		c-0.086-0.105-0.173-0.201-0.236-0.278c-0.384-0.46-0.82-0.878-1.286-1.247c-0.391-0.311-0.811-0.592-1.265-0.792
		c-0.436-0.192-1.07-0.345-1.473,0.004c-0.252,0.218-0.311,0.614-0.205,0.937c0.212,0.651,0.457,1.272,0.457,1.978
		c0,0.704-0.245,1.325-0.457,1.977c-0.106,0.322-0.047,0.719,0.205,0.937c0.403,0.349,1.037,0.196,1.473,0.004
		c0.454-0.2,0.874-0.482,1.265-0.792c0.466-0.369,0.902-0.787,1.286-1.247c0.063-0.077,0.15-0.173,0.236-0.279
		c0.31,4.779,4.273,8.562,9.13,8.562h50.615c0.028,0.001,0.053,0.008,0.081,0.008h6.63v-0.01c4.032-0.045,7.436-2.692,8.614-6.344
		h-1.775c-1.551,0-2.813-1.262-2.813-2.812s1.262-2.814,2.813-2.814h1.775c-1.178-3.65-4.582-6.297-8.614-6.342v-0.01H323.156z
		 M332.184,97.371c0,0.795-0.644,1.438-1.439,1.438s-1.44-0.644-1.44-1.438c0-0.797,0.645-1.44,1.44-1.44
		S332.184,96.574,332.184,97.371 M322.651,99.694l3.262-3.262c0.318-0.317,0.846-0.326,1.149,0.006
		c0.921,1.01,1.483,2.354,1.483,3.829c0,1.471-0.559,2.812-1.477,3.821c-0.302,0.333-0.83,0.325-1.148,0.008l-3.268-3.258
		C322.336,100.523,322.335,100.011,322.651,99.694 M329.305,103.164c0-0.795,0.645-1.439,1.44-1.439s1.439,0.645,1.439,1.439
		c0,0.796-0.644,1.44-1.439,1.44S329.305,103.96,329.305,103.164"/>
	<path fill="#F26200" d="M341.885,98.501h-5.259c-0.976,0-1.767,0.791-1.767,1.766c0,0.977,0.791,1.768,1.767,1.768h5.259
		c0.976,0,1.767-0.791,1.767-1.768C343.652,99.292,342.861,98.501,341.885,98.501"/>
	<path fill="#F26200" d="M336.383,234.22h-6.63v0.012c-4.032,0.044-7.436,2.69-8.614,6.342h1.775c1.551,0,2.813,1.262,2.813,2.813
		c0,1.551-1.262,2.813-2.813,2.813h-1.775c1.178,3.65,4.582,6.298,8.614,6.342v0.011h6.63c0.007,0,0.013-0.002,0.02-0.002h66.293
		c12.307,0,22.319-10.012,22.319-22.318v-72.666c0-4.9-3.85-8.891-8.689-9.138c0.203-0.12,0.398-0.303,0.533-0.415
		c0.46-0.384,0.878-0.819,1.247-1.285c0.31-0.392,0.592-0.812,0.792-1.266c0.192-0.436,0.345-1.07-0.004-1.473
		c-0.218-0.252-0.614-0.311-0.937-0.205c-0.651,0.212-1.272,0.457-1.977,0.457c-0.704,0-1.325-0.245-1.976-0.457
		c-0.323-0.105-0.719-0.047-0.937,0.205c-0.349,0.402-0.196,1.037-0.004,1.473c0.2,0.454,0.482,0.874,0.792,1.266
		c0.369,0.466,0.787,0.901,1.247,1.285c0.13,0.108,0.317,0.284,0.513,0.403c-4.948,0.128-8.922,4.17-8.922,9.149v72.666
		c0,2.203-1.793,3.996-3.997,3.996h-66.228C336.439,234.229,336.413,234.22,336.383,234.22 M327.356,246.284
		c0-0.795,0.644-1.44,1.44-1.44c0.795,0,1.439,0.646,1.439,1.44s-0.644,1.438-1.439,1.438
		C328,247.723,327.356,247.079,327.356,246.284 M330.235,240.489c0,0.795-0.644,1.439-1.439,1.439c-0.796,0-1.44-0.645-1.44-1.439
		s0.644-1.439,1.44-1.439C329.591,239.05,330.235,239.694,330.235,240.489 M336.888,243.959l-3.262,3.262
		c-0.318,0.318-0.846,0.326-1.149-0.006c-0.921-1.01-1.483-2.354-1.483-3.828c0-1.472,0.559-2.812,1.477-3.821
		c0.302-0.332,0.83-0.325,1.149-0.008l3.267,3.259C337.203,243.131,337.205,243.643,336.888,243.959"/>
	<path fill="#F26200" d="M317.655,245.153h5.259c0.976,0,1.767-0.791,1.767-1.768c0-0.975-0.791-1.766-1.767-1.766h-5.259
		c-0.976,0-1.767,0.791-1.767,1.766C315.888,244.362,316.679,245.153,317.655,245.153"/>
	<path fill="#F26200" d="M344.984,45.925c0.404,0.35,1.038,0.197,1.473,0.005c0.454-0.2,0.874-0.482,1.265-0.792
		c0.466-0.369,0.902-0.787,1.286-1.247c0.089-0.107,0.225-0.254,0.336-0.412c0.245,4.842,4.236,8.695,9.138,8.695H373.9
		c2.204,0,3.996,1.792,3.996,3.996v37.312c0,0.028-0.008,0.055-0.008,0.082v6.629h0.01c0.045,4.032,2.692,7.438,6.343,8.614v-1.774
		c0-1.551,1.262-2.813,2.813-2.813c1.552,0,2.814,1.263,2.814,2.813v1.774c3.651-1.177,6.298-4.582,6.342-8.614h0.011v-6.629
		c0-0.008-0.003-0.015-0.003-0.022V56.17c0-12.308-10.011-22.318-22.318-22.318h-15.418c-4.902,0-8.893,3.853-9.138,8.693
		c-0.111-0.158-0.247-0.305-0.336-0.411c-0.384-0.46-0.82-0.878-1.286-1.247c-0.391-0.31-0.811-0.592-1.265-0.792
		c-0.435-0.192-1.069-0.345-1.473,0.004c-0.252,0.218-0.31,0.614-0.205,0.937c0.212,0.651,0.458,1.272,0.458,1.977
		c0,0.705-0.246,1.326-0.458,1.977C344.674,45.311,344.732,45.707,344.984,45.925 M387.627,93.06l3.262,3.262
		c0.318,0.317,0.326,0.846-0.006,1.148c-1.01,0.921-2.354,1.483-3.828,1.483c-1.472,0-2.813-0.56-3.822-1.478
		c-0.332-0.302-0.325-0.83-0.007-1.147l3.257-3.269C386.799,92.744,387.311,92.744,387.627,93.06 M384.157,102.592
		c-0.795,0-1.439-0.646-1.439-1.44s0.644-1.439,1.439-1.439s1.44,0.645,1.44,1.439S384.952,102.592,384.157,102.592
		 M388.512,101.151c0-0.795,0.645-1.439,1.44-1.439c0.795,0,1.439,0.645,1.439,1.439s-0.644,1.44-1.439,1.44
		C389.157,102.592,388.512,101.946,388.512,101.151"/>
	<path fill="#F26200" d="M354.457,14.327c0,1.551-1.262,2.812-2.813,2.812h-1.775c1.178,3.651,4.582,6.298,8.614,6.342v0.012h6.63
		c0.007,0,0.014-0.003,0.021-0.003h66.237c2.197,0,3.985,1.787,3.985,3.985v15.488c0,4.879,3.817,8.855,8.627,9.133
		c-0.132,0.101-0.253,0.211-0.345,0.287c-0.46,0.384-0.878,0.82-1.247,1.286c-0.31,0.391-0.592,0.811-0.792,1.265
		c-0.192,0.436-0.345,1.069,0.004,1.474c0.218,0.252,0.614,0.31,0.937,0.204c0.651-0.212,1.272-0.457,1.977-0.457
		c0.704,0,1.325,0.245,1.977,0.457c0.322,0.105,0.718,0.048,0.936-0.204c0.349-0.404,0.196-1.038,0.004-1.474
		c-0.2-0.454-0.482-0.874-0.792-1.265c-0.369-0.466-0.787-0.902-1.247-1.286c-0.092-0.076-0.213-0.187-0.344-0.287
		c4.809-0.277,8.627-4.254,8.627-9.133V27.476c0-12.3-10.007-22.307-22.307-22.307h-66.175c-0.028-0.001-0.055-0.009-0.083-0.009
		h-6.63v0.011c-4.032,0.044-7.436,2.69-8.614,6.342h1.775C353.195,11.513,354.457,12.774,354.457,14.327 M357.526,9.989
		c0.795,0,1.439,0.645,1.439,1.439s-0.644,1.44-1.439,1.44c-0.796,0-1.44-0.646-1.44-1.44S356.73,9.989,357.526,9.989
		 M356.086,17.224c0-0.795,0.644-1.44,1.44-1.44c0.795,0,1.439,0.646,1.439,1.44s-0.644,1.439-1.439,1.439
		C356.73,18.663,356.086,18.019,356.086,17.224 M365.618,14.898l-3.262,3.263c-0.318,0.317-0.846,0.325-1.149-0.007
		c-0.921-1.01-1.483-2.354-1.483-3.827c0-1.473,0.56-2.812,1.477-3.822c0.302-0.332,0.831-0.325,1.149-0.007l3.267,3.258
		C365.934,14.07,365.934,14.583,365.618,14.898"/>
	<path fill="#F26200" d="M346.384,16.093h5.26c0.975,0,1.766-0.791,1.766-1.767s-0.791-1.767-1.766-1.767h-5.26
		c-0.976,0-1.766,0.791-1.766,1.767S345.408,16.093,346.384,16.093"/>
	<path fill="#F26200" d="M310.297,259.05v-94.832c0-0.019,0.005-0.036,0.005-0.055v-6.629h-0.01
		c-0.011-0.987-0.181-1.936-0.481-2.823h0.377c0.947,0.092,1.926-0.225,2.651-0.95c0.724-0.724,1.041-1.701,0.95-2.646h-4.474
		c-0.551,0.67-1.021,0.986-1.065,1.016l-0.171,0.112l-0.201,0.039c-0.293,0.056-0.576,0.085-0.843,0.085
		c-0.835,0-1.555-0.283-2.084-0.819c-0.912-0.925-0.92-2.259-0.918-2.408l0.003-0.188c-0.912-0.306-1.885-0.477-2.9-0.477
		s-1.988,0.171-2.9,0.477l0.003,0.188c0.002,0.149-0.006,1.483-0.919,2.408c-0.528,0.536-1.249,0.819-2.083,0.819
		c-0.267,0-0.551-0.029-0.843-0.085l-0.201-0.039l-0.171-0.112c-0.045-0.029-0.514-0.346-1.066-1.016h-4.473
		c-0.091,0.944,0.226,1.922,0.95,2.646c0.725,0.726,1.704,1.042,2.651,0.95h0.376c-0.299,0.888-0.469,1.836-0.48,2.823h-0.01v6.629
		c0,0.017,0.004,0.032,0.005,0.05v94.837c0,2.179-1.773,3.952-3.952,3.952H256.9c-2.179,0-3.952-1.773-3.952-3.952v-15.536
		c0-4.775-3.654-8.693-8.318-9.119c0.012-0.01,0.024-0.021,0.035-0.029c0.461-0.385,0.878-0.82,1.248-1.286
		c0.31-0.392,0.592-0.812,0.792-1.266c0.192-0.435,0.345-1.068-0.005-1.473c-0.218-0.252-0.614-0.31-0.936-0.205
		c-0.652,0.213-1.273,0.458-1.977,0.458c-0.704,0-1.325-0.245-1.977-0.458c-0.322-0.104-0.718-0.047-0.936,0.205
		c-0.35,0.404-0.197,1.038-0.005,1.473c0.2,0.454,0.482,0.874,0.792,1.266c0.37,0.466,0.787,0.901,1.248,1.286
		c0.011,0.009,0.023,0.02,0.035,0.029c-4.664,0.426-8.318,4.344-8.318,9.119v15.536c0,12.282,9.992,22.274,22.274,22.274h31.123
		C300.305,281.324,310.297,271.332,310.297,259.05 M295.752,156.262c0-0.796,0.645-1.439,1.44-1.439s1.439,0.644,1.439,1.439
		c0,0.795-0.644,1.439-1.439,1.439S295.752,157.057,295.752,156.262 M303.641,156.262c0-0.796,0.644-1.439,1.439-1.439
		c0.795,0,1.44,0.644,1.44,1.439c0,0.795-0.645,1.439-1.44,1.439C304.285,157.701,303.641,157.057,303.641,156.262 M296.799,163.586
		v-1.633c0-0.943,0.765-1.708,1.708-1.708h5.226c0.944,0,1.709,0.765,1.709,1.708v1.633c0,0.943-0.765,1.709-1.709,1.709h-5.226
		C297.564,165.295,296.799,164.529,296.799,163.586"/>
	<path fill="#F26200" d="M294.593,151.254c0.235,0.046,0.449,0.066,0.644,0.066c1.985,0,1.954-2.166,1.954-2.166
		c-3.248-0.3-5.047-3.048-5.047-3.048C292.444,149.854,294.593,151.254,294.593,151.254"/>
	<path fill="#F26200" d="M307.035,151.32c0.194,0,0.409-0.021,0.644-0.067c0,0,2.148-1.398,2.448-5.146c0,0-1.799,2.749-5.047,3.049
		C305.08,149.155,305.05,151.32,307.035,151.32"/>
	<path fill="#F26200" d="M451.618,152.164l-0.171,0.111l-0.201,0.039c-0.293,0.057-0.576,0.086-0.843,0.086
		c-0.835,0-1.555-0.283-2.084-0.819c-0.912-0.925-0.92-2.259-0.918-2.408l0.003-0.188c-0.912-0.306-1.886-0.478-2.9-0.478
		c-1.015,0-1.988,0.172-2.9,0.478l0.002,0.188c0.002,0.149-0.006,1.483-0.918,2.408c-0.528,0.536-1.249,0.819-2.084,0.819
		c-0.266,0-0.55-0.029-0.842-0.086l-0.201-0.039l-0.171-0.111c-0.045-0.029-0.514-0.347-1.066-1.016h-4.474
		c-0.09,0.944,0.227,1.922,0.95,2.646c0.726,0.726,1.705,1.042,2.652,0.95h0.376c-0.299,0.888-0.469,1.835-0.48,2.822h-0.011v6.63
		c0,0.017,0.005,0.034,0.006,0.051v94.605c0,2.287-1.862,4.149-4.15,4.149h-44.037c-4.765,0-8.677,3.638-9.117,8.288l-0.004-0.006
		c-0.384-0.46-0.82-0.878-1.286-1.247c-0.392-0.31-0.811-0.592-1.266-0.792c-0.435-0.192-1.069-0.345-1.473,0.005
		c-0.252,0.217-0.31,0.614-0.205,0.937c0.213,0.65,0.458,1.271,0.458,1.977c0,0.704-0.245,1.325-0.458,1.977
		c-0.105,0.322-0.047,0.719,0.205,0.937c0.404,0.349,1.038,0.196,1.473,0.004c0.455-0.2,0.874-0.482,1.266-0.792
		c0.466-0.369,0.902-0.787,1.286-1.247c0.001-0.002,0.003-0.004,0.003-0.004c0.441,4.648,4.353,8.287,9.118,8.287h44.037
		c12.391,0,22.472-10.081,22.472-22.472v-94.604c0-0.018,0.005-0.035,0.005-0.053v-6.63h-0.01c-0.011-0.987-0.181-1.935-0.48-2.822
		h0.376c0.947,0.092,1.926-0.225,2.651-0.95c0.724-0.724,1.041-1.701,0.95-2.646h-4.474
		C452.131,151.817,451.662,152.135,451.618,152.164 M439.12,156.294c0-0.795,0.644-1.438,1.44-1.438
		c0.795,0,1.439,0.644,1.439,1.438s-0.644,1.44-1.439,1.44C439.764,157.734,439.12,157.089,439.12,156.294 M440.167,163.619v-1.633
		c0-0.944,0.765-1.709,1.709-1.709h5.225c0.944,0,1.709,0.765,1.709,1.709v1.633c0,0.943-0.765,1.708-1.709,1.708h-5.225
		C440.932,165.327,440.167,164.562,440.167,163.619 M448.447,157.734c-0.795,0-1.44-0.646-1.44-1.44s0.645-1.438,1.44-1.438
		c0.795,0,1.44,0.644,1.44,1.438S449.243,157.734,448.447,157.734"/>
	<path fill="#F26200" d="M437.96,151.287c0.235,0.046,0.449,0.065,0.643,0.065c1.986,0,1.956-2.165,1.956-2.165
		c-3.249-0.3-5.048-3.048-5.048-3.048C435.812,149.888,437.96,151.287,437.96,151.287"/>
	<path fill="#F26200" d="M450.402,151.353c0.194,0,0.408-0.021,0.643-0.065c0,0,2.149-1.4,2.449-5.148c0,0-1.799,2.749-5.047,3.049
		C448.448,149.188,448.417,151.353,450.402,151.353"/>
	<path fill="#F26200" d="M237.714,218.067c0.464,0,0.9,0.182,1.228,0.51c0.328,0.329,0.508,0.765,0.508,1.229l-0.005,3.037
		c1.293,0.697,2.771,1.093,4.342,1.093c1.571,0,3.049-0.396,4.341-1.093l-0.004-3.038c-0.001-0.464,0.179-0.899,0.507-1.229
		c0.328-0.328,0.764-0.51,1.228-0.51h2.469c0.383-0.991,0.602-2.064,0.614-3.189h0.011v-6.629c0-0.02-0.005-0.036-0.005-0.054
		v-50.628c0-4.67-3.497-8.515-8.013-9.081c0.354-0.323,0.689-0.668,0.984-1.041c0.31-0.391,0.592-0.811,0.792-1.265
		c0.192-0.436,0.345-1.069-0.004-1.474c-0.218-0.251-0.614-0.31-0.937-0.204c-0.651,0.212-1.272,0.457-1.977,0.457
		c-0.704,0-1.325-0.245-1.977-0.457c-0.322-0.105-0.718-0.047-0.936,0.204c-0.349,0.404-0.196,1.038-0.004,1.474
		c0.2,0.454,0.482,0.874,0.792,1.265c0.295,0.372,0.628,0.717,0.982,1.039c-4.522,0.562-8.024,4.409-8.024,9.083v50.631
		c-0.001,0.017-0.006,0.032-0.006,0.051v6.629h0.011c0.012,1.125,0.232,2.198,0.614,3.189H237.714z M243.787,207.117
		c2.024,0,3.664,1.641,3.664,3.665c0,2.022-1.64,3.663-3.664,3.663s-3.665-1.641-3.665-3.663
		C240.122,208.758,241.763,207.117,243.787,207.117 M239.45,216.149c0-0.795,0.644-1.438,1.44-1.438
		c0.794,0,1.439,0.644,1.439,1.438c0,0.796-0.645,1.44-1.439,1.44C240.094,217.59,239.45,216.945,239.45,216.149 M246.684,217.59
		c-0.795,0-1.44-0.645-1.44-1.44c0-0.795,0.645-1.438,1.44-1.438s1.44,0.644,1.44,1.438
		C248.124,216.945,247.479,217.59,246.684,217.59"/>
	<path fill="#F26200" d="M249.859,219.115c-0.381,0-0.689,0.309-0.689,0.689l0.006,3.934c0,0.373,0.297,0.688,0.666,0.688
		c0.01,0,0.021,0,0.031-0.001c1.161-0.055,2.307-0.525,3.194-1.413c0.889-0.889,1.36-2.038,1.414-3.201
		c0.017-0.384-0.306-0.696-0.689-0.696H249.859z"/>
	<path fill="#F26200" d="M237.7,224.426c0.01,0,0.021,0.002,0.031,0.002c0.368,0,0.666-0.316,0.666-0.689l0.006-3.933
		c0-0.382-0.308-0.69-0.689-0.69h-3.933c-0.383,0-0.707,0.313-0.689,0.696c0.054,1.164,0.525,2.312,1.414,3.202
		C235.393,223.9,236.539,224.371,237.7,224.426"/>
	<path fill="#F26200" d="M245.153,211.789c0.556,0,1.008-0.451,1.008-1.007c0-0.558-0.452-1.008-1.008-1.008
		c-0.556,0-1.008,0.45-1.008,1.008C244.145,211.338,244.597,211.789,245.153,211.789"/>
	<path fill="#F26200" d="M242.329,211.789c0.556,0,1.008-0.451,1.008-1.007c0-0.558-0.452-1.008-1.008-1.008
		s-1.008,0.45-1.008,1.008C241.321,211.338,241.773,211.789,242.329,211.789"/>
	<path fill="#F26200" d="M449.361,67.945c-0.328-0.329-0.508-0.766-0.507-1.229l0.004-3.037c-1.292-0.696-2.77-1.094-4.341-1.094
		c-1.571,0-3.049,0.397-4.342,1.094l0.005,3.037c0,0.464-0.18,0.901-0.508,1.229c-0.328,0.329-0.764,0.51-1.228,0.51h-2.468
		c-0.383,0.992-0.603,2.065-0.615,3.189h-0.011v6.63c0,0.019,0.005,0.036,0.006,0.054v22.003c0,4.67,3.496,8.515,8.012,9.082
		c-0.354,0.323-0.688,0.668-0.984,1.04c-0.31,0.391-0.592,0.811-0.792,1.266c-0.192,0.436-0.344,1.069,0.005,1.474
		c0.218,0.251,0.614,0.31,0.936,0.204c0.652-0.213,1.273-0.457,1.977-0.457c0.704,0,1.325,0.244,1.977,0.457
		c0.322,0.105,0.718,0.047,0.936-0.204c0.35-0.404,0.197-1.038,0.005-1.474c-0.2-0.455-0.482-0.875-0.792-1.266
		c-0.295-0.372-0.629-0.716-0.982-1.039c4.522-0.56,8.024-4.409,8.024-9.083V78.324c0-0.018,0.005-0.033,0.005-0.05v-6.63h-0.01
		c-0.013-1.124-0.232-2.197-0.615-3.189h-2.469C450.125,68.455,449.689,68.274,449.361,67.945 M440.18,70.372
		c0-0.795,0.644-1.438,1.439-1.438c0.796,0,1.44,0.644,1.44,1.438s-0.644,1.44-1.44,1.44
		C440.824,71.812,440.18,71.167,440.18,70.372 M444.517,79.405c-2.024,0-3.665-1.641-3.665-3.664c0-2.024,1.641-3.664,3.665-3.664
		s3.664,1.64,3.664,3.664C448.181,77.765,446.541,79.405,444.517,79.405 M447.414,71.812c-0.795,0-1.44-0.646-1.44-1.44
		s0.645-1.438,1.44-1.438s1.44,0.644,1.44,1.438S448.209,71.812,447.414,71.812"/>
	<path fill="#F26200" d="M438.444,67.407c0.381,0,0.689-0.309,0.689-0.689l-0.006-3.933c-0.001-0.373-0.298-0.689-0.666-0.689
		c-0.011,0-0.021,0-0.031,0.001c-1.162,0.055-2.307,0.526-3.194,1.413c-0.889,0.889-1.36,2.038-1.414,3.202
		c-0.017,0.383,0.306,0.695,0.689,0.695H438.444z"/>
	<path fill="#F26200" d="M450.604,62.097c-0.01,0-0.02-0.001-0.031-0.001c-0.368,0-0.665,0.315-0.666,0.688l-0.006,3.934
		c0,0.381,0.308,0.689,0.689,0.689h3.933c0.383,0,0.706-0.312,0.689-0.696c-0.054-1.163-0.525-2.312-1.414-3.201
		C452.91,62.622,451.765,62.151,450.604,62.097"/>
	<path fill="#F26200" d="M443.15,74.733c-0.556,0-1.007,0.451-1.007,1.008s0.451,1.007,1.007,1.007c0.557,0,1.008-0.45,1.008-1.007
		S443.707,74.733,443.15,74.733"/>
	<path fill="#F26200" d="M445.975,74.733c-0.556,0-1.008,0.451-1.008,1.008s0.452,1.007,1.008,1.007c0.556,0,1.008-0.45,1.008-1.007
		S446.53,74.733,445.975,74.733"/>
	<path fill="#F26200" d="M238.895,18.656L238.895,18.656c0.958,0,1.737,0.779,1.737,1.736v2.469c0.992,0.382,2.065,0.602,3.19,0.614
		v0.011h6.629c0.018,0,0.034-0.005,0.052-0.006h50.686c4.67,0,8.515-3.496,9.081-8.012c0.323,0.354,0.668,0.688,1.041,0.983
		c0.391,0.311,0.811,0.592,1.265,0.792c0.435,0.192,1.069,0.346,1.473-0.005c0.252-0.218,0.31-0.614,0.205-0.936
		c-0.213-0.652-0.457-1.273-0.457-1.978s0.244-1.325,0.457-1.977c0.105-0.322,0.047-0.718-0.205-0.937
		c-0.404-0.35-1.038-0.196-1.473-0.005c-0.454,0.2-0.874,0.482-1.265,0.792c-0.372,0.295-0.716,0.629-1.039,0.982
		c-0.561-4.522-4.409-8.024-9.083-8.024h-50.685c-0.018,0-0.035-0.005-0.053-0.005h-6.629v0.01c-1.125,0.014-2.198,0.232-3.19,0.615
		v2.469c0,0.957-0.779,1.735-1.739,1.735l-3.037-0.004c-0.697,1.292-1.093,2.77-1.093,4.341s0.396,3.049,1.093,4.342L238.895,18.656
		z M247.917,17.984c-2.024,0-3.664-1.641-3.664-3.665s1.64-3.664,3.664-3.664c2.024,0,3.665,1.64,3.665,3.664
		S249.942,17.984,247.917,17.984 M242.549,15.777c0.796,0,1.44,0.645,1.44,1.439c0,0.796-0.644,1.439-1.44,1.439
		c-0.794,0-1.439-0.644-1.439-1.439C241.11,16.422,241.755,15.777,242.549,15.777 M241.11,11.422c0-0.795,0.645-1.439,1.439-1.439
		c0.796,0,1.44,0.645,1.44,1.439c0,0.796-0.644,1.44-1.44,1.44C241.755,12.862,241.11,12.218,241.11,11.422"/>
	<path fill="#F26200" d="M234.961,19.709c-0.383,0.001-0.706,0.314-0.688,0.697c0.055,1.162,0.526,2.307,1.413,3.194
		c0.889,0.889,2.037,1.359,3.202,1.414c0.009,0,0.019,0,0.029,0c0.37,0,0.667-0.316,0.667-0.689v-3.933
		c0-0.38-0.308-0.689-0.689-0.689h-0.001L234.961,19.709z"/>
	<path fill="#F26200" d="M238.895,8.936L238.895,8.936c0.381,0,0.69-0.308,0.69-0.688V4.314c0-0.373-0.297-0.689-0.667-0.689
		c-0.01,0-0.02,0-0.029,0c-1.165,0.054-2.313,0.525-3.202,1.414c-0.887,0.887-1.358,2.033-1.413,3.194
		c-0.019,0.383,0.304,0.695,0.687,0.696L238.895,8.936z"/>
	<path fill="#F26200" d="M247.918,14.679c-0.556,0-1.007,0.451-1.007,1.008c0,0.556,0.451,1.007,1.007,1.007
		c0.557,0,1.008-0.451,1.008-1.007C248.926,15.13,248.475,14.679,247.918,14.679"/>
	<path fill="#F26200" d="M247.918,11.854c-0.556,0-1.007,0.451-1.007,1.008c0,0.556,0.451,1.007,1.007,1.007
		c0.557,0,1.008-0.451,1.008-1.007C248.926,12.306,248.475,11.854,247.918,11.854"/>
	<path fill="#F26200" d="M316.569,62.432h-44.108c-4.857,0-8.821,3.783-9.131,8.562c-0.085-0.106-0.172-0.202-0.236-0.278
		c-0.384-0.461-0.82-0.878-1.286-1.248c-0.391-0.31-0.811-0.592-1.265-0.792c-0.435-0.192-1.07-0.345-1.473,0.005
		c-0.252,0.217-0.31,0.614-0.205,0.937c0.212,0.651,0.457,1.272,0.457,1.977s-0.245,1.325-0.457,1.978
		c-0.105,0.321-0.047,0.718,0.205,0.936c0.403,0.349,1.038,0.197,1.473,0.005c0.454-0.201,0.874-0.482,1.265-0.792
		c0.466-0.37,0.902-0.788,1.286-1.248c0.064-0.076,0.151-0.173,0.236-0.279c0.31,4.779,4.274,8.562,9.131,8.562h44.108
		c12.325,0,22.352-10.027,22.352-22.352V21.107c0-0.018,0.005-0.033,0.005-0.052v-6.63h-0.01c-0.011-0.986-0.181-1.934-0.48-2.822
		h0.376c0.947,0.093,1.926-0.225,2.651-0.949c0.724-0.725,1.041-1.701,0.95-2.646h-4.474c-0.551,0.67-1.021,0.987-1.065,1.016
		l-0.171,0.111l-0.201,0.039c-0.292,0.057-0.576,0.086-0.843,0.086c-0.835,0-1.555-0.283-2.084-0.818
		c-0.912-0.926-0.92-2.26-0.918-2.408l0.003-0.189c-0.912-0.305-1.885-0.476-2.9-0.476c-1.015,0-1.988,0.171-2.9,0.476l0.003,0.189
		c0.002,0.148-0.006,1.482-0.919,2.408c-0.528,0.535-1.248,0.818-2.083,0.818c-0.267,0-0.551-0.029-0.843-0.086l-0.201-0.039
		l-0.171-0.111c-0.045-0.028-0.514-0.346-1.065-1.016h-4.474c-0.091,0.945,0.226,1.922,0.95,2.646
		c0.725,0.725,1.704,1.042,2.651,0.949h0.376c-0.299,0.889-0.469,1.836-0.48,2.822h-0.01v6.63c0,0.019,0.005,0.034,0.005,0.052
		v37.295C320.599,60.624,318.791,62.432,316.569,62.432 M324.376,13.154c0-0.795,0.645-1.439,1.44-1.439
		c0.795,0,1.439,0.645,1.439,1.439s-0.644,1.439-1.439,1.439C325.021,14.594,324.376,13.949,324.376,13.154 M332.265,13.154
		c0-0.795,0.644-1.439,1.439-1.439s1.44,0.645,1.44,1.439s-0.645,1.439-1.44,1.439S332.265,13.949,332.265,13.154 M325.423,20.479
		v-1.633c0-0.943,0.765-1.708,1.709-1.708h5.225c0.944,0,1.709,0.765,1.709,1.708v1.633c0,0.943-0.765,1.708-1.709,1.708h-5.225
		C326.188,22.187,325.423,21.422,325.423,20.479"/>
	<path fill="#F26200" d="M323.217,8.146c0.235,0.046,0.449,0.066,0.644,0.066c1.985,0,1.954-2.165,1.954-2.165
		C322.567,5.747,320.768,3,320.768,3C321.068,6.747,323.217,8.146,323.217,8.146"/>
	<path fill="#F26200" d="M335.659,8.213c0.195,0,0.409-0.021,0.644-0.066c0,0,2.149-1.399,2.448-5.147c0,0-1.799,2.749-5.047,3.049
		C333.704,6.048,333.674,8.213,335.659,8.213"/>
	<path fill="#F26200" d="M272.451,247.424c1.551,0,2.814,1.263,2.814,2.813v1.774c3.651-1.178,6.298-4.582,6.342-8.614h0.011v-6.63
		c0-0.007-0.002-0.014-0.002-0.021v-79.181c0-4.864-3.794-8.831-8.582-9.132c0.114-0.09,0.218-0.185,0.299-0.251
		c0.46-0.385,0.878-0.82,1.247-1.286c0.31-0.392,0.592-0.812,0.792-1.265c0.192-0.437,0.345-1.07-0.004-1.475
		c-0.218-0.251-0.614-0.309-0.937-0.204c-0.651,0.212-1.272,0.457-1.976,0.457c-0.705,0-1.326-0.245-1.977-0.457
		c-0.323-0.104-0.719-0.047-0.937,0.204c-0.349,0.404-0.196,1.038-0.004,1.475c0.2,0.453,0.482,0.873,0.792,1.265
		c0.369,0.466,0.787,0.901,1.247,1.286c0.081,0.066,0.185,0.161,0.299,0.251c-4.788,0.301-8.582,4.268-8.582,9.132v79.118
		c-0.001,0.027-0.008,0.055-0.008,0.083v6.63h0.011c0.044,4.032,2.691,7.437,6.342,8.614v-1.774
		C269.638,248.687,270.899,247.424,272.451,247.424 M269.554,245.795c-0.795,0-1.439-0.645-1.439-1.439s0.644-1.44,1.439-1.44
		s1.44,0.646,1.44,1.44S270.349,245.795,269.554,245.795 M268.622,239.531l3.258-3.268c0.316-0.316,0.828-0.316,1.144-0.001
		l3.262,3.263c0.318,0.317,0.326,0.845-0.006,1.148c-1.01,0.921-2.354,1.482-3.829,1.482c-1.471,0-2.812-0.559-3.821-1.477
		C268.297,240.377,268.305,239.85,268.622,239.531 M273.909,244.355c0-0.795,0.645-1.44,1.44-1.44s1.439,0.646,1.439,1.44
		s-0.644,1.439-1.439,1.439S273.909,245.15,273.909,244.355"/>
	<path fill="#F26200" d="M270.684,255.496c0,0.977,0.791,1.767,1.766,1.767c0.976,0,1.767-0.79,1.767-1.767v-5.26
		c0-0.975-0.791-1.766-1.767-1.766c-0.975,0-1.766,0.791-1.766,1.766V255.496z"/>
	<path fill="#F26200" d="M404.158,104.027c-0.724,0.724-1.041,1.701-0.95,2.646h4.474c0.551-0.67,1.02-0.986,1.065-1.016
		l0.171-0.111l0.201-0.039c0.293-0.057,0.576-0.086,0.843-0.086c0.835,0,1.555,0.283,2.084,0.819
		c0.912,0.925,0.92,2.259,0.918,2.408l-0.003,0.188c0.913,0.306,1.886,0.477,2.9,0.477c1.015,0,1.988-0.171,2.9-0.477l-0.003-0.188
		c-0.002-0.149,0.006-1.483,0.918-2.408c0.529-0.536,1.249-0.819,2.084-0.819c0.267,0,0.551,0.029,0.843,0.086l0.201,0.039
		l0.171,0.111c0.045,0.029,0.514,0.346,1.066,1.016h4.474c0.09-0.944-0.227-1.922-0.951-2.646c-0.725-0.726-1.704-1.042-2.651-0.95
		h-0.376c0.299-0.888,0.469-1.835,0.48-2.822h0.01v-6.63c0-0.018-0.005-0.035-0.005-0.053V43.012c0-4.836-3.751-8.788-8.5-9.127
		c0.087-0.072,0.168-0.144,0.233-0.199c0.46-0.384,0.878-0.819,1.247-1.285c0.31-0.392,0.592-0.812,0.792-1.266
		c0.192-0.435,0.345-1.068-0.004-1.473c-0.218-0.252-0.614-0.311-0.937-0.205c-0.651,0.213-1.272,0.458-1.976,0.458
		c-0.705,0-1.326-0.245-1.977-0.458c-0.323-0.105-0.719-0.047-0.937,0.205c-0.349,0.404-0.196,1.038-0.004,1.473
		c0.2,0.454,0.482,0.874,0.792,1.266c0.369,0.466,0.787,0.901,1.247,1.285c0.065,0.055,0.145,0.125,0.232,0.197
		c-4.764,0.326-8.53,4.283-8.53,9.129v50.562c0,0.018-0.005,0.034-0.005,0.051v6.63h0.01c0.011,0.987,0.181,1.935,0.48,2.822h-0.376
		C405.862,102.985,404.883,103.302,404.158,104.027 M421.245,101.527c0,0.795-0.644,1.438-1.44,1.438
		c-0.795,0-1.439-0.644-1.439-1.438s0.644-1.44,1.439-1.44C420.601,100.087,421.245,100.732,421.245,101.527 M411.555,94.202
		c0-0.944,0.765-1.708,1.708-1.708h5.226c0.944,0,1.709,0.764,1.709,1.708v1.633c0,0.944-0.765,1.708-1.709,1.708h-5.226
		c-0.943,0-1.708-0.764-1.708-1.708V94.202z M411.917,100.087c0.795,0,1.439,0.646,1.439,1.44s-0.644,1.438-1.439,1.438
		c-0.795,0-1.44-0.644-1.44-1.438S411.122,100.087,411.917,100.087"/>
	<path fill="#F26200" d="M422.403,106.534c-0.235-0.046-0.449-0.065-0.644-0.065c-1.985,0-1.954,2.165-1.954,2.165
		c3.248,0.3,5.047,3.048,5.047,3.048C424.553,107.934,422.403,106.534,422.403,106.534"/>
	<path fill="#F26200" d="M409.961,106.468c-0.194,0-0.408,0.021-0.644,0.066c0,0-2.148,1.399-2.448,5.147
		c0,0,1.799-2.748,5.047-3.049C411.917,108.633,411.947,106.468,409.961,106.468"/>
</g>
</svg>
