<?xml version="1.0" encoding="utf-8"?>
<!-- Generator: Adobe Illustrator 16.0.4, SVG Export Plug-In . SVG Version: 6.00 Build 0)  -->
<!DOCTYPE svg PUBLIC "-//W3C//DTD SVG 1.1//EN" "http://www.w3.org/Graphics/SVG/1.1/DTD/svg11.dtd">
<svg version="1.1" id="Layer_1" xmlns="http://www.w3.org/2000/svg" xmlns:xlink="http://www.w3.org/1999/xlink" x="0px" y="0px"
	 width="70px" height="70px" viewBox="0 0 70 70" enable-background="new 0 0 70 70" xml:space="preserve">
<g>
	<path fill="none" d="M57.619,24.102c-0.174-0.166-0.404-0.271-0.662-0.271c-0.527,0-0.955,0.429-0.955,0.956
		c1.275,16.943-9.908,26.818-21,30.396c-11.101-3.58-22.309-13.465-21.018-30.424c-0.016-0.515-0.435-0.928-0.953-0.928
		c-0.244,0-0.463,0.096-0.632,0.246c-3.281,3.324-5.133,7.767-5.141,12.463C7.278,51.814,19.724,64.243,35,64.243
		c15.277,0,27.723-12.429,27.744-27.704C62.734,31.855,60.891,27.426,57.619,24.102z"/>
	<path fill="none" d="M35,46.697c9.25,0,16.773-7.523,16.773-16.771c0-9.249-7.523-16.772-16.773-16.772
		c-9.249,0-16.771,7.523-16.771,16.772C18.229,39.174,25.751,46.697,35,46.697z M38.438,24.606
		c-0.674,1.279-1.992,2.073-3.438,2.073c-1.387,0-2.678-0.747-3.369-1.95c-0.33-0.574-0.132-1.308,0.442-1.638
		c0.574-0.329,1.307-0.132,1.637,0.442c0.265,0.46,0.759,0.746,1.289,0.746c0.555,0,1.059-0.304,1.314-0.794
		c0.309-0.585,1.035-0.81,1.619-0.501C38.521,23.294,38.746,24.02,38.438,24.606z M31.507,17.178
		c0.261-0.302,0.737-0.372,1.124-0.246c0.781,0.255,1.525,0.549,2.369,0.549c0.846,0,1.588-0.294,2.371-0.549
		c0.387-0.126,0.861-0.056,1.123,0.246c0.418,0.483,0.236,1.245,0.006,1.767c-0.24,0.544-0.578,1.048-0.949,1.518
		c-0.443,0.558-0.943,1.081-1.496,1.541c-0.254,0.211-0.686,0.636-1.053,0.636c-0.369,0-0.801-0.425-1.053-0.636
		c-0.553-0.46-1.054-0.983-1.496-1.541c-0.373-0.47-0.71-0.974-0.951-1.518C31.271,18.423,31.088,17.661,31.507,17.178z"/>
	<path fill="#FF6B00" d="M32.451,20.462c0.443,0.558,0.944,1.081,1.496,1.541c0.254,0.211,0.686,0.636,1.053,0.636
		c0.369,0,0.799-0.425,1.055-0.636c0.551-0.46,1.053-0.983,1.494-1.541c0.371-0.47,0.709-0.974,0.949-1.518
		c0.23-0.521,0.414-1.283-0.006-1.767c-0.26-0.302-0.736-0.372-1.123-0.246C36.588,17.186,35.846,17.48,35,17.48
		s-1.59-0.294-2.371-0.549c-0.387-0.126-0.861-0.056-1.123,0.246c-0.419,0.483-0.236,1.245-0.006,1.767
		C31.742,19.488,32.081,19.992,32.451,20.462z"/>
	<path fill="#FF6B00" d="M20.208,10.924c0.452,0,0.881-0.146,1.241-0.418c3.941-2.986,8.645-4.564,13.603-4.564
		c4.915,0,9.589,1.555,13.511,4.494c0.877,0.657,2.227,0.46,2.879-0.412c0.682-0.907,0.496-2.198-0.412-2.881
		c-4.639-3.477-10.164-5.315-15.978-5.315c-5.863,0-11.425,1.866-16.087,5.398c-0.905,0.686-1.083,1.979-0.398,2.882
		C18.959,10.627,19.557,10.924,20.208,10.924z"/>
	<path fill="#FF6B00" d="M37.936,22.985c-0.584-0.309-1.311-0.084-1.619,0.501c-0.258,0.49-0.762,0.794-1.314,0.794
		c-0.53,0-1.024-0.286-1.289-0.746c-0.33-0.574-1.063-0.771-1.637-0.442c-0.574,0.33-0.772,1.063-0.442,1.638
		c0.691,1.203,1.982,1.95,3.369,1.95c1.445,0,2.764-0.794,3.438-2.073C38.746,24.02,38.521,23.294,37.936,22.985z"/>
	<path fill="#FF6B00" d="M49.998,15.41C46.021,11.301,40.701,9.039,35,9.039c-5.698,0-11.02,2.262-14.997,6.37
		C10.212,17.762,3.363,26.416,3.332,36.571C3.368,53.995,17.575,68.172,35,68.172c17.428,0,31.631-14.177,31.668-31.672
		C66.641,26.583,59.635,17.733,49.998,15.41z M35,13.153c9.25,0,16.773,7.523,16.773,16.772c0,9.249-7.523,16.771-16.773,16.771
		c-9.249,0-16.771-7.522-16.771-16.771C18.229,20.677,25.751,13.153,35,13.153z M35,64.243c-15.276,0-27.722-12.429-27.742-27.703
		c0.008-4.696,1.86-9.139,5.141-12.463c0.169-0.15,0.388-0.246,0.632-0.246c0.518,0,0.937,0.413,0.953,0.928
		C12.693,41.719,23.901,51.605,35,55.184c11.092-3.576,22.277-13.453,21-30.396c0-0.527,0.43-0.956,0.955-0.956
		c0.258,0,0.49,0.105,0.662,0.271c3.271,3.323,5.117,7.753,5.125,12.437C62.725,51.814,50.277,64.243,35,64.243z"/>
</g>
</svg>
