<?xml version="1.0" encoding="utf-8"?>
<!-- Generator: Adobe Illustrator 16.0.4, SVG Export Plug-In . SVG Version: 6.00 Build 0)  -->
<!DOCTYPE svg PUBLIC "-//W3C//DTD SVG 1.1 Tiny//EN" "http://www.w3.org/Graphics/SVG/1.1/DTD/svg11-tiny.dtd">
<svg version="1.1" baseProfile="tiny" id="Layer_1" xmlns="http://www.w3.org/2000/svg" xmlns:xlink="http://www.w3.org/1999/xlink"
	 x="0px" y="0px" width="62.811px" height="120px" viewBox="0 0 62.811 120" xml:space="preserve">
<g>
	<path fill="#FFFFFF" d="M54.155,44.779h-0.042v-9.484h-0.041C53.97,25.288,47.587,16.824,38.72,13.74v0.167
		c0,4.105-3.304,7.463-7.349,7.463c-4.042,0-7.347-3.357-7.347-7.463c0-0.063,0.021-0.105,0.021-0.167
		C15.18,16.824,8.776,25.288,8.674,35.294h-0.02v9.484c-4.271,0-7.8,3.148-8.497,7.256c-0.123,0.792,0.513,1.501,1.292,1.501h7.266
		V120h45.439V53.536h7.204c0.779,0,1.416-0.708,1.293-1.501C61.954,47.928,58.424,44.779,54.155,44.779 M17.706,35.732
		c-1.971,0-3.571-1.625-3.571-3.626c0-2.002,1.602-3.628,3.571-3.628s3.571,1.625,3.571,3.628
		C21.276,34.106,19.676,35.732,17.706,35.732 M37.121,47.698c0,3.231-2.564,5.838-5.748,5.838c-3.159,0-5.726-2.605-5.726-5.838
		c0-2.002,0.984-3.773,2.504-4.814c-1.521-1.043-2.504-2.814-2.504-4.815c0-3.23,2.566-5.838,5.726-5.838
		c3.184,0,5.748,2.606,5.748,5.838c0,2.001-1.007,3.772-2.523,4.815C36.114,43.924,37.121,45.697,37.121,47.698 M45.042,35.732
		c-1.971,0-3.551-1.625-3.551-3.626c0-2.002,1.58-3.628,3.551-3.628c1.99,0,3.57,1.625,3.57,3.628
		C48.613,34.106,47.033,35.732,45.042,35.732"/>
	<path fill="#FFFFFF" d="M32.066,17.909c2.009-0.343,3.352-2.269,3.313-4.336c-0.085-4.598-1.93-9.731-3.45-13.206
		c-0.213-0.489-0.893-0.489-1.105,0C29.267,3.925,27.372,9.22,27.372,13.9C27.373,16.372,29.554,18.335,32.066,17.909"/>
</g>
</svg>
