<?xml version="1.0" encoding="utf-8"?>
<!-- Generator: Adobe Illustrator 16.0.4, SVG Export Plug-In . SVG Version: 6.00 Build 0)  -->
<!DOCTYPE svg PUBLIC "-//W3C//DTD SVG 1.1 Tiny//EN" "http://www.w3.org/Graphics/SVG/1.1/DTD/svg11-tiny.dtd">
<svg version="1.1" baseProfile="tiny" id="Layer_1" xmlns="http://www.w3.org/2000/svg" xmlns:xlink="http://www.w3.org/1999/xlink"
	 x="0px" y="0px" width="62.81px" height="120px" viewBox="0 0 62.81 120" xml:space="preserve">
<g>
	<path fill="#FFFFFF" d="M54.114,35.315c-0.041-2.835-0.575-5.545-1.52-8.047h-6.135c-1.15,0-2.217-0.458-3.038-1.271
		c-0.821-0.834-1.251-1.938-1.251-3.105v-7.651c-3.202-1.751-6.876-2.753-10.755-2.753c-3.9,0-7.573,1.001-10.774,2.753v7.651
		c0,1.167-0.43,2.271-1.252,3.105c-0.821,0.812-1.888,1.271-3.037,1.271h-6.136c-0.944,2.501-1.478,5.211-1.52,8.047h-0.02V120
		h45.458V35.315H54.114z M20.641,32.105c0-2.002,1.601-3.628,3.571-3.628c1.971,0,3.571,1.625,3.571,3.628
		c0,2.001-1.601,3.626-3.571,3.626C22.242,35.732,20.641,34.106,20.641,32.105 M31.415,54.869c-5.028,0-9.092-4.147-9.092-9.233
		c0-5.108,4.063-9.236,9.092-9.236c5.008,0,9.071,4.128,9.071,9.236C40.486,50.721,36.423,54.869,31.415,54.869 M38.599,35.732
		c-1.971,0-3.571-1.625-3.571-3.626c0-2.002,1.6-3.628,3.571-3.628s3.571,1.625,3.571,3.628
		C42.17,34.106,40.57,35.732,38.599,35.732"/>
	<path fill="#FFFFFF" d="M18.052,22.896l-0.014-9.909c-0.002-0.94-0.738-1.736-1.653-1.736c-0.025,0-0.051,0-0.076,0.001
		c-2.88,0.141-5.722,1.328-7.922,3.562c-2.204,2.239-3.374,5.132-3.506,8.065c-0.043,0.964,0.758,1.753,1.708,1.753h9.754
		C17.288,24.634,18.054,23.855,18.052,22.896"/>
	<path fill="#FFFFFF" d="M54.424,14.814c-2.2-2.234-5.042-3.421-7.922-3.561c-0.026-0.002-0.05-0.002-0.077-0.002
		c-0.915,0-1.65,0.795-1.652,1.735l-0.015,9.91c-0.001,0.959,0.764,1.737,1.709,1.737h9.754c0.952,0,1.753-0.789,1.708-1.753
		C57.797,19.947,56.628,17.054,54.424,14.814"/>
	<path fill="#FFFFFF" d="M28.016,43.09c-1.38,0-2.499,1.136-2.499,2.538c0,1.403,1.119,2.54,2.499,2.54c1.38,0,2.5-1.137,2.5-2.54
		C30.516,44.227,29.396,43.09,28.016,43.09"/>
	<path fill="#FFFFFF" d="M35.021,43.09c-1.379,0-2.499,1.136-2.499,2.538c0,1.403,1.12,2.54,2.499,2.54
		c1.381,0,2.499-1.137,2.499-2.54C37.519,44.227,36.401,43.09,35.021,43.09"/>
</g>
</svg>
