<?xml version="1.0" encoding="utf-8"?>
<!-- Generator: Adobe Illustrator 16.0.4, SVG Export Plug-In . SVG Version: 6.00 Build 0)  -->
<!DOCTYPE svg PUBLIC "-//W3C//DTD SVG 1.1 Tiny//EN" "http://www.w3.org/Graphics/SVG/1.1/DTD/svg11-tiny.dtd">
<svg version="1.1" baseProfile="tiny" id="Layer_1" xmlns="http://www.w3.org/2000/svg" xmlns:xlink="http://www.w3.org/1999/xlink"
	 x="0px" y="0px" width="62.811px" height="120px" viewBox="0 0 62.811 120" xml:space="preserve">
<g>
	<path fill="#FFFFFF" d="M62.304,31.125l-11.515-9.63c0.041-0.25,0.082-0.521,0.082-0.793c0-2.772-2.216-5.022-4.943-5.022
		c-0.657,0-1.274,0.125-1.849,0.375c0-0.126,0.021-0.25,0.021-0.375c0-3.69-2.936-6.693-6.588-6.693
		c-2.607,0-4.864,1.563-5.911,3.816c-1.067-2.252-3.305-3.816-5.932-3.816c-3.633,0-6.588,3.003-6.588,6.693
		c0,0.125,0.021,0.249,0.041,0.375c-0.574-0.25-1.19-0.375-1.846-0.375c-2.75,0-4.968,2.25-4.968,5.022
		c0,0.167,0.042,0.334,0.062,0.501L0.508,31.125c-0.615,0.52-0.656,1.501-0.041,2.021c2.318,2.001,5.499,2.564,8.332,1.563
		c-0.02,0.312-0.041,0.626-0.061,0.938H8.717V120h45.377V35.649h-0.021c0-0.312-0.041-0.626-0.062-0.938
		c2.833,1.001,6.015,0.438,8.333-1.563C62.959,32.626,62.918,31.646,62.304,31.125 M20.538,36.086c-1.969,0-3.57-1.626-3.57-3.626
		c0-2.002,1.603-3.628,3.57-3.628c1.972,0,3.551,1.626,3.551,3.628C24.089,34.46,22.509,36.086,20.538,36.086 M38.599,43.841
		c-0.532,2.188-2.032,3.982-4.021,4.899c0.062,0.229,0.082,0.459,0.082,0.688c0,1.71-1.375,3.107-3.059,3.107
		c-1.703,0-3.078-1.397-3.078-3.107c0-0.229,0.041-0.458,0.082-0.688c-1.971-0.917-3.489-2.711-4.021-4.899
		C24.379,42.945,25.095,42.09,26,42.09h11.186C38.107,42.09,38.825,42.946,38.599,43.841 M42.663,36.086
		c-1.971,0-3.571-1.626-3.571-3.626c0-2.002,1.601-3.628,3.571-3.628c1.95,0,3.55,1.626,3.55,3.628
		C46.213,34.46,44.613,36.086,42.663,36.086"/>
</g>
</svg>
