<?xml version="1.0" encoding="utf-8"?>
<!-- Generator: Adobe Illustrator 16.0.4, SVG Export Plug-In . SVG Version: 6.00 Build 0)  -->
<!DOCTYPE svg PUBLIC "-//W3C//DTD SVG 1.1 Tiny//EN" "http://www.w3.org/Graphics/SVG/1.1/DTD/svg11-tiny.dtd">
<svg version="1.1" baseProfile="tiny" id="Layer_1" xmlns="http://www.w3.org/2000/svg" xmlns:xlink="http://www.w3.org/1999/xlink"
	 x="0px" y="0px" width="62.811px" height="120px" viewBox="0 0 62.811 120" xml:space="preserve">
<g>
	<path fill="#FFFFFF" d="M54.114,35.316c-0.124-10.174-6.691-18.741-15.742-21.703v4.464c0,3.919-3.119,7.086-6.978,7.086
		c-3.837,0-6.979-3.167-6.979-7.086v-4.464c-9.051,2.962-15.62,11.529-15.721,21.703H8.675V120h45.458V35.316H54.114z M24.212,29.27
		c1.971,0,3.57,1.625,3.57,3.627s-1.601,3.627-3.57,3.627c-1.972,0-3.572-1.625-3.572-3.627C20.64,30.896,22.241,29.27,24.212,29.27
		 M40.897,45.051l-8.086,8.235c-0.78,0.792-2.053,0.792-2.832,0l-8.086-8.216c-0.801-0.812-0.82-2.146,0.021-2.896
		c2.504-2.314,5.829-3.73,9.481-3.73s6.978,1.396,9.48,3.71C41.697,42.925,41.677,44.238,40.897,45.051 M38.578,36.524
		c-1.97,0-3.57-1.625-3.57-3.627c0-2.001,1.602-3.627,3.57-3.627c1.971,0,3.571,1.625,3.571,3.627
		C42.148,34.899,40.548,36.524,38.578,36.524"/>
	<path fill="#FFFFFF" d="M31.4,22.528c2.42,0,4.381-1.992,4.381-4.45V4.827c0-2.458-1.961-4.452-4.381-4.452
		s-4.381,1.994-4.381,4.452v13.25C27.019,20.535,28.98,22.528,31.4,22.528"/>
</g>
</svg>
