<?xml version="1.0" encoding="utf-8"?>
<!-- Generator: Adobe Illustrator 16.0.4, SVG Export Plug-In . SVG Version: 6.00 Build 0)  -->
<!DOCTYPE svg PUBLIC "-//W3C//DTD SVG 1.1 Tiny//EN" "http://www.w3.org/Graphics/SVG/1.1/DTD/svg11-tiny.dtd">
<svg version="1.1" baseProfile="tiny" id="Layer_1" xmlns="http://www.w3.org/2000/svg" xmlns:xlink="http://www.w3.org/1999/xlink"
	 x="0px" y="0px" width="62.811px" height="120px" viewBox="0 0 62.811 120" xml:space="preserve">
<g>
	<g>
		<path fill="#FFFFFF" d="M60.425,25.81c1.457-1.479,2.236-3.355,2.381-5.296c0.062-0.75-0.556-1.375-1.313-1.375h-9.811
			c-1.354,1.689-2.525,2.501-2.626,2.562l-0.432,0.271l-0.493,0.104c-0.738,0.146-1.437,0.209-2.093,0.209
			c-2.072,0-3.858-0.709-5.172-2.064c-2.257-2.335-2.278-5.689-2.278-6.064v-0.479c-2.258-0.751-4.658-1.19-7.183-1.19
			c-2.523,0-4.926,0.439-7.183,1.19v0.479c0,0.375-0.021,3.729-2.278,6.064c-1.314,1.355-3.101,2.064-5.172,2.064
			c-0.658,0-1.356-0.062-2.094-0.209l-0.494-0.104l-0.432-0.271c-0.102-0.083-1.271-0.874-2.626-2.562h-9.81
			c-0.76,0-1.375,0.625-1.313,1.375c0.145,1.94,0.922,3.816,2.381,5.296c1.785,1.813,4.228,2.626,6.567,2.396h0.944
			c-0.759,2.23-1.169,4.606-1.19,7.108H8.665v16.699c0,0.021,0.021,0.042,0.021,0.062V120h45.438V52.076
			c0-0.021,0.021-0.042,0.021-0.062V35.315h-0.042c-0.021-2.501-0.432-4.878-1.19-7.108h0.944
			C56.197,28.436,58.64,27.623,60.425,25.81 M18.044,32.105c0-2.002,1.602-3.628,3.571-3.628c1.969,0,3.571,1.625,3.571,3.628
			c0,2.001-1.603,3.626-3.571,3.626C19.645,35.732,18.044,34.106,18.044,32.105 M42.077,49.241c0,2.376-1.888,4.294-4.228,4.294
			H24.878c-2.339,0-4.227-1.918-4.227-4.294v-4.107c0-2.397,1.888-4.315,4.227-4.315h12.972c2.34,0,4.228,1.918,4.228,4.315V49.241z
			 M41.194,35.732c-1.97,0-3.571-1.625-3.571-3.626c0-2.002,1.602-3.628,3.571-3.628s3.571,1.625,3.571,3.628
			C44.766,34.106,43.165,35.732,41.194,35.732"/>
		<path fill="#FFFFFF" d="M15.177,19.488c0.583,0.115,1.113,0.167,1.597,0.167c4.924,0,4.849-5.454,4.849-5.454
			c-5.626-0.529-9.5-4.064-11.325-6.151c-0.112-0.129-0.256-0.185-0.397-0.185c-0.313,0-0.619,0.275-0.56,0.652
			C10.606,16.464,15.177,19.488,15.177,19.488"/>
		<path fill="#FFFFFF" d="M46.037,19.655c0.482,0,1.012-0.054,1.596-0.167c0,0,4.571-3.022,5.838-10.969
			c0.06-0.377-0.245-0.652-0.56-0.652c-0.142,0-0.286,0.055-0.398,0.184c-1.824,2.085-5.697,5.622-11.324,6.151
			C41.188,14.201,41.112,19.655,46.037,19.655"/>
	</g>
	<path fill="#FFFFFF" d="M60.425,25.81c1.457-1.479,2.236-3.355,2.381-5.296c0.062-0.75-0.556-1.375-1.313-1.375h-9.811
		c-1.354,1.689-2.525,2.501-2.626,2.562l-0.432,0.271l-0.493,0.104c-0.738,0.146-1.437,0.209-2.093,0.209
		c-2.072,0-3.858-0.709-5.172-2.064c-2.257-2.335-2.278-5.689-2.278-6.064v-0.479c-2.258-0.751-4.658-1.19-7.183-1.19
		c-2.523,0-4.926,0.439-7.183,1.19v0.479c0,0.375-0.021,3.729-2.278,6.064c-1.314,1.355-3.101,2.064-5.172,2.064
		c-0.658,0-1.356-0.062-2.094-0.209l-0.494-0.104l-0.432-0.271c-0.102-0.083-1.271-0.874-2.626-2.562h-9.81
		c-0.76,0-1.375,0.625-1.313,1.375c0.145,1.94,0.922,3.816,2.381,5.296c1.785,1.813,4.228,2.626,6.567,2.396h0.944
		c-0.759,2.23-1.169,4.606-1.19,7.108H8.665v16.699c0,0.021,0.021,0.042,0.021,0.062V120h45.438V52.076
		c0-0.021,0.021-0.042,0.021-0.062V35.315h-0.042c-0.021-2.501-0.432-4.878-1.19-7.108h0.944
		C56.197,28.436,58.64,27.623,60.425,25.81 M18.044,32.105c0-2.002,1.602-3.628,3.571-3.628c1.969,0,3.571,1.625,3.571,3.628
		c0,2.001-1.603,3.626-3.571,3.626C19.645,35.732,18.044,34.106,18.044,32.105 M42.077,49.241c0,2.376-1.888,4.294-4.228,4.294
		H24.878c-2.339,0-4.227-1.918-4.227-4.294v-4.107c0-2.397,1.888-4.315,4.227-4.315h12.972c2.34,0,4.228,1.918,4.228,4.315V49.241z
		 M41.194,35.732c-1.97,0-3.571-1.625-3.571-3.626c0-2.002,1.602-3.628,3.571-3.628s3.571,1.625,3.571,3.628
		C44.766,34.106,43.165,35.732,41.194,35.732"/>
	<path fill="#FFFFFF" d="M15.177,19.488c0.583,0.115,1.113,0.167,1.597,0.167c4.924,0,4.849-5.454,4.849-5.454
		c-5.626-0.529-9.5-4.064-11.325-6.151c-0.112-0.129-0.256-0.185-0.397-0.185c-0.313,0-0.619,0.275-0.56,0.652
		C10.606,16.464,15.177,19.488,15.177,19.488"/>
	<path fill="#FFFFFF" d="M46.037,19.655c0.482,0,1.012-0.054,1.596-0.167c0,0,4.571-3.022,5.838-10.969
		c0.06-0.377-0.245-0.652-0.56-0.652c-0.142,0-0.286,0.055-0.398,0.184c-1.824,2.085-5.697,5.622-11.324,6.151
		C41.188,14.201,41.112,19.655,46.037,19.655"/>
</g>
</svg>
