<?xml version="1.0" encoding="utf-8"?>
<!-- Generator: Adobe Illustrator 16.0.4, SVG Export Plug-In . SVG Version: 6.00 Build 0)  -->
<!DOCTYPE svg PUBLIC "-//W3C//DTD SVG 1.1//EN" "http://www.w3.org/Graphics/SVG/1.1/DTD/svg11.dtd">
<svg version="1.1" id="Layer_1" xmlns="http://www.w3.org/2000/svg" xmlns:xlink="http://www.w3.org/1999/xlink" x="0px" y="0px"
	 width="1024px" height="1024px" viewBox="0 0 1024 1024" enable-background="new 0 0 1024 1024" xml:space="preserve">
<rect x="-8" y="-8.328" fill="#FFFFFF" width="1042.168" height="1043"/>
<g>
	<g>
		<g>
			<path fill="#FF6B00" d="M616.863,679.293c0,81.154,62.505,77.855,62.505,77.855c31.846,0,58.005-24.723,60.332-55.982
				c0.138-1.85-1.313-3.441-3.172-3.441h-28.384c-1.756,0-3.174,1.42-3.174,3.174v1.16c0,14.137-11.059,26.297-25.191,26.518
				c-19.275,0-24.649-17.367-24.649-17.367s-3.51-6.873-3.51-32.377c0-25.506,3.51-32.379,3.51-32.379s4.963-17.295,24.238-17.295
				c14.089,0,25.509,11.379,25.593,25.439h0.01l-0.002,2.238c0,1.758,1.42,3.178,3.172,3.178h28.231
				c1.895,0,3.361-1.652,3.167-3.535c-2.918-27.566-23.896-50.377-51.081-54.369c-3.025-0.443-6.082-0.67-9.09-0.67
				C679.368,601.439,616.863,598.143,616.863,679.293"/>
			<path fill="#FF6B00" d="M214.924,842.049l6.355-0.939c0.739,3.938,2.27,7.406,7.295,9.283c4.18,1.564,7.98,0.434,9.25-2.955
				c1.336-3.578-0.5-6.053-4.231-9.729l-2.274-2.232c-4.998-4.9-7.498-9.289-5.125-15.645c2.289-6.117,8.641-8.709,15.484-6.15
				c5.447,2.033,8.374,5.471,9.203,10.82l-6.18,1.213c-0.558-3.316-1.898-5.266-5.105-6.467c-3.271-1.223-6.076,0.006-7.118,2.793
				c-1.155,3.088,0.079,5.137,3.583,8.514l2.209,2.207c5.872,5.715,8.401,10.387,5.934,16.984
				c-2.691,7.207-9.885,9.283-17.631,6.387C218.76,853.211,215.483,847.57,214.924,842.049z"/>
			<path fill="#FF6B00" d="M300.604,831.914l0.752,0.189l7.96,47.756l-6.9-1.717l-1.198-8.564l-18.131-4.516l-5.076,7l-6.4-1.596
				L300.604,831.914z M300.208,863.465l-1.752-12.764c-0.362-2.557-0.583-6.477-0.569-6.801c-0.109,0.17-2.02,3.561-3.631,5.754
				l-7.539,10.449L300.208,863.465z"/>
			<path fill="#FF6B00" d="M344.881,870.996l4.281-28.188l6.776,1.031l-4.226,27.799c-1.068,7.029,1.908,10.686,8.235,11.652
				c6.329,0.957,10.317-1.641,11.386-8.672l4.226-27.799l6.709,1.021l-4.282,28.182c-1.601,10.547-9.564,14.764-18.961,13.334
				C349.569,887.924,343.279,881.539,344.881,870.996z"/>
			<path fill="#FF6B00" d="M410.234,886.531l5.84-2.676c1.809,3.57,4.249,6.473,9.6,6.873c4.451,0.326,7.783-1.824,8.054-5.436
				c0.279-3.803-2.175-5.666-6.784-8.15l-2.808-1.504c-6.172-3.311-9.8-6.82-9.3-13.59c0.482-6.51,5.855-10.777,13.142-10.238
				c5.8,0.432,9.572,2.914,11.864,7.814l-5.596,2.891c-1.457-3.027-3.295-4.518-6.709-4.773c-3.482-0.258-5.828,1.707-6.053,4.67
				c-0.242,3.289,1.519,4.908,5.821,7.172l2.74,1.498c7.237,3.846,10.975,7.627,10.456,14.65
				c-0.571,7.672-6.898,11.674-15.148,11.062C417.035,896.184,412.316,891.68,410.234,886.531z"/>
			<path fill="#FF6B00" d="M490.355,854.367l0.773,0.008l18.951,44.549l-7.113-0.049l-3.173-8.041l-18.687-0.133l-3.288,7.992
				l-6.597-0.049L490.355,854.367z M497.377,885.127l-4.699-11.992c-0.955-2.4-2.091-6.162-2.15-6.484
				c-0.066,0.193-1.129,3.939-2.181,6.451l-4.87,11.926L497.377,885.127z"/>
			<path fill="#FF6B00" d="M538.125,876.092c-0.89-13.092,7.957-23.088,20.981-23.977c6.71-0.449,12.126,1.062,15.946,4.818
				l-4.268,4.891c-2.699-2.475-6.037-3.934-11.262-3.58c-9.156,0.625-15.07,8.025-14.435,17.375
				c0.637,9.35,7.563,15.941,17.562,15.264c4.447-0.301,8.241-1.725,10.574-3.566l-0.557-8.193l-11.803,0.803l-0.402-5.932
				l18.06-1.227l1.188,17.479c-2.664,2.773-8.521,6.215-16.647,6.77C549.326,897.943,539.013,889.182,538.125,876.092z"/>
			<path fill="#FF6B00" d="M610.876,847.516l27.622-4.156l0.897,5.947l-20.849,3.133l1.924,12.789l18.48-2.777l0.876,5.816
				l-18.48,2.783l1.951,12.977l21.739-3.268l0.896,5.945l-28.518,4.287L610.876,847.516z"/>
			<path fill="#FF6B00" d="M672.37,836.828l14.324-3.484c8.796-2.131,16.527,0.383,18.815,9.805
				c1.542,6.346-0.92,11.271-5.693,14.357l14.16,14.463l-7.605,1.844l-13.08-13.59l-7.729,1.879l3.848,15.832l-6.661,1.619
				L672.37,836.828z M691.618,854.707c5.653-1.373,8.356-4.494,7.046-9.895c-1.342-5.531-5.207-6.918-10.801-5.561l-7.413,1.803
				l3.753,15.451L691.618,854.707z"/>
			<path fill="#FF6B00" d="M753.146,842.594l-23.994-20.883l7.224-2.648l13.414,11.953c1.978,1.822,4.651,4.973,4.651,4.973
				s0.02-4.072,0.326-6.803l2.31-17.723l6.614-2.43l-4.266,30.775l5.703,15.539l-6.433,2.363L753.146,842.594z"/>
			<path fill="#FF6B00" d="M495.619,217.375c4.978,0,9.369-1.732,13.977-3.236c2.277-0.742,5.082-0.33,6.62,1.447
				c2.47,2.855,1.392,7.34,0.033,10.418c-1.415,3.211-3.409,6.18-5.6,8.945c-2.61,3.295-5.564,6.379-8.821,9.094
				c-1.492,1.24-4.039,3.75-6.209,3.75c-2.171,0-4.72-2.51-6.211-3.75c-3.256-2.715-6.209-5.799-8.82-9.094
				c-2.189-2.766-4.185-5.734-5.599-8.945c-1.358-3.078-2.438-7.562,0.032-10.418c1.542-1.777,4.342-2.189,6.62-1.447
				C486.249,215.643,490.641,217.375,495.619,217.375z"/>
			<path fill="#FF6B00" d="M408.386,178.713c2.669,0,5.198-0.854,7.322-2.465c23.236-17.609,50.973-26.914,80.21-26.914
				c28.988,0,56.537,9.161,79.66,26.502c5.175,3.87,13.13,2.713,16.984-2.436c4.01-5.349,2.918-12.965-2.433-16.981
				c-27.356-20.507-59.933-31.343-94.212-31.343c-34.57,0-67.371,11.01-94.86,31.835c-5.333,4.04-6.383,11.663-2.345,16.993
				C401.028,176.959,404.55,178.713,408.386,178.713z"/>
			<path fill="#FF6B00" d="M338.322,727.367h-49.539c-1.657,0-3.002-1.34-3.002-3V616.229c0-7.27-5.898-13.172-13.172-13.172
				h-18.772c-1.651,0-2.99,1.338-2.99,2.99v135.455c0,7.277,5.9,13.178,13.178,13.178h64.155c7.251,0,13.132-5.879,13.132-13.131
				v-11.191C341.312,728.705,339.975,727.367,338.322,727.367z"/>
			<path fill="#FF6B00" d="M602.828,603.057H515.44c-7.263,0-13.149,5.887-13.149,13.148v11.15c0,1.66,1.343,3,2.996,3h28.344
				c1.633,0,2.968,1.336,2.968,2.969v108.219c0,7.258,5.883,13.137,13.142,13.137h18.724c1.694,0,3.069-1.373,3.069-3.07V633.318
				c0-1.635,1.328-2.963,2.968-2.963h18.209c7.255,0,13.138-5.883,13.138-13.141V606.08
				C605.848,604.408,604.497,603.057,602.828,603.057z"/>
			<path fill="#FF6B00" d="M495.619,271.615c-8.176,0-15.785-4.404-19.862-11.496c-1.946-3.385-0.779-7.709,2.606-9.656
				c3.389-1.945,7.709-0.779,9.657,2.607c1.558,2.713,4.471,4.4,7.599,4.4c3.259,0,6.23-1.793,7.75-4.68
				c1.826-3.453,6.104-4.781,9.557-2.955c3.456,1.818,4.777,6.102,2.956,9.553C511.903,266.932,504.136,271.615,495.619,271.615z"/>
			<path fill="#FF6B00" d="M466.382,603.057h-18.82c-1.649,0-2.989,1.338-2.989,2.99l0.016,95.721v1.217
				c-0.002,14.139-11.463,25.596-25.6,25.596c-14.134,0-25.595-11.457-25.599-25.596l0,0v-1.211v-0.006v-85.582
				c0-7.25-5.863-13.129-13.112-13.129h-18.818c-1.651,0-2.986,1.338-2.986,2.99v89.482c0,30.445,22.105,56.65,51.422,60.949
				c3.016,0.447,6.074,0.67,9.098,0.67c33.368,0,60.514-27.148,60.514-60.514v-80.451
				C479.506,608.934,473.631,603.057,466.382,603.057z"/>
			<path fill="#FF6B00" d="M421.286,793.336h8.206c4.771,0,8.688,2.373,8.688,7.832c0,5.461-3.95,7.865-8.688,7.865h-3.402v7.658
				h-4.804V793.336z M429.354,804.811c2.369,0,3.882-1.064,3.882-3.643c0-2.611-1.582-3.602-3.882-3.602h-3.264v7.244H429.354z"/>
			<path fill="#FF6B00" d="M455.667,793.336h8.654c4.773,0,8.69,2.234,8.69,7.695c0,3.539-1.856,5.77-4.569,6.836l5.323,8.824
				h-5.497l-4.737-8.104h-3.056v8.104h-4.809V793.336z M464.184,804.535c2.371,0,3.883-0.932,3.883-3.504
				c0-2.609-1.58-3.465-3.883-3.465h-3.708v6.969H464.184z"/>
			<path fill="#FF6B00" d="M491.113,793.336h4.809v23.355h-4.809V793.336z"/>
			<path fill="#FF6B00" d="M514.606,793.098h0.376l11.504,12.639l11.334-12.639h0.415v23.594h-4.635v-8.758
				c0-1.576,0.17-4.088,0.17-4.088s-1.407,2.064-2.505,3.299l-4.639,5.184h-0.449l-4.635-5.184c-1.1-1.234-2.508-3.299-2.508-3.299
				s0.174,2.512,0.174,4.088v8.758h-4.603V793.098z"/>
			<path fill="#FF6B00" d="M556.856,793.336h15.453v4.23H561.66v5.354h9.378v4.121h-9.378v5.428h11.13v4.223h-15.934V793.336z"/>
			<rect x="360.801" y="802.5" fill="#FF6B00" width="36.401" height="5.047"/>
			<rect x="594.035" y="802.5" fill="#FF6B00" width="36.401" height="5.047"/>
			<path fill="#FF6B00" d="M584.053,205.163c-23.449-24.231-54.822-37.564-88.434-37.564c-33.605,0-64.977,13.333-88.428,37.562
				c-57.739,13.871-98.127,64.906-98.314,124.781c0.219,102.75,83.986,186.342,186.742,186.342
				c102.758,0,186.523-83.592,186.743-186.756C682.18,271.047,640.879,218.867,584.053,205.163z M495.619,191.855
				c54.534,0,98.898,44.363,98.898,98.898s-44.364,98.9-98.898,98.9c-54.537,0-98.899-44.365-98.899-98.9
				S441.082,191.855,495.619,191.855z M495.619,493.117c-90.081,0-163.463-73.285-163.582-163.35
				c0.042-27.703,10.967-53.893,30.312-73.49c0.995-0.895,2.29-1.453,3.731-1.453c3.055,0,5.524,2.432,5.617,5.463
				c-7.61,100.008,58.478,158.305,123.922,179.404c65.406-21.09,131.361-79.326,123.831-179.234l0,0
				c0-3.109,2.523-5.633,5.636-5.633c1.519,0,2.885,0.619,3.896,1.6c19.288,19.59,30.176,45.715,30.219,73.332
				C659.082,419.832,585.7,493.117,495.619,493.117z"/>
			<path fill="#FF6B00" d="M865.081,603.057h-18.797c-1.657,0-3.002,1.346-3.002,3.004v55.062c0,1.668-1.362,3.025-3.023,3.025
				h-37.157c-1.666,0-3.024-1.357-3.024-3.025v-44.934c0-7.254-5.881-13.133-13.136-13.133h-18.795
				c-1.659,0-3.004,1.346-3.004,3.004v135.494c0,7.25,5.877,13.125,13.126,13.125h18.805c1.657,0,3.004-1.344,3.004-3.002v-57.264
				c0-1.664,1.358-3.023,3.024-3.023h37.157c1.661,0,3.023,1.359,3.023,3.023v47.135c0,7.252,5.877,13.131,13.132,13.131h18.799
				c1.657,0,3.004-1.344,3.004-3.002V616.195C878.217,608.936,872.336,603.057,865.081,603.057z"/>
			<path fill="#FF6B00" d="M102.985,679.293c0,81.154,62.507,77.855,62.507,77.855c31.844,0,58.006-24.723,60.333-55.982
				c0.137-1.85-1.316-3.441-3.174-3.441h-28.385c-1.756,0-3.176,1.42-3.176,3.174v1.16c0,14.137-11.056,26.297-25.189,26.518
				c-19.273,0-24.648-17.367-24.648-17.367s-3.51-6.873-3.51-32.377c0-25.506,3.51-32.379,3.51-32.379s4.96-17.295,24.239-17.295
				c14.084,0,25.508,11.379,25.593,25.439h0.006v2.238c0,1.758,1.42,3.178,3.172,3.178h28.232c1.895,0,3.362-1.652,3.164-3.535
				c-2.913-27.566-23.895-50.377-51.077-54.369c-3.027-0.443-6.084-0.67-9.09-0.67C165.492,601.439,102.985,598.143,102.985,679.293
				"/>
			<g>
				<g>
					<path fill="#FF6B00" d="M897.423,613.039c0-6.738,5.243-11.607,11.716-11.607c6.525,0,11.876,4.869,11.876,11.607
						c0,6.686-5.351,11.555-11.876,11.555C902.666,624.594,897.423,619.725,897.423,613.039z M918.555,613.094
						c0-5.832-4.014-9.418-9.416-9.418c-5.349,0-9.254,3.586-9.254,9.418c0,5.668,3.905,9.307,9.254,9.307
						C914.541,622.4,918.555,618.762,918.555,613.094z M904.805,606.885h4.816c3.103,0,4.814,1.711,4.814,4.07
						c0,1.764-0.855,3.047-2.354,3.635l2.566,4.441h-3.103l-2.244-4.014h-1.605v4.014h-2.891V606.885z M909.621,612.826
						c1.179,0,1.924-0.588,1.924-1.818c0-1.072-0.745-1.609-1.924-1.609h-1.926v3.428H909.621z"/>
				</g>
			</g>
		</g>
	</g>
</g>
</svg>
