<?xml version="1.0" encoding="utf-8"?>
<!-- Generator: Adobe Illustrator 16.0.4, SVG Export Plug-In . SVG Version: 6.00 Build 0)  -->
<!DOCTYPE svg PUBLIC "-//W3C//DTD SVG 1.1 Tiny//EN" "http://www.w3.org/Graphics/SVG/1.1/DTD/svg11-tiny.dtd">
<svg version="1.1" baseProfile="tiny" id="Layer_1" xmlns="http://www.w3.org/2000/svg" xmlns:xlink="http://www.w3.org/1999/xlink"
	 x="0px" y="0px" width="195.302px" height="45.438px" viewBox="0 0 195.302 45.438" xml:space="preserve">
<g>
	<path fill="#FFFFFF" d="M65.473,38.895h1.906c1.236,0,2.15,0.609,2.15,1.906c0,1.288-0.914,1.915-2.15,1.915h-0.984v2.097h-0.922
		V38.895z M67.344,41.906c0.801,0,1.245-0.356,1.245-1.104c0-0.757-0.453-1.098-1.245-1.098h-0.949v2.202H67.344z"/>
	<path fill="#FFFFFF" d="M73.168,38.895h1.985c1.218,0,2.15,0.574,2.15,1.879c0,0.879-0.479,1.445-1.201,1.698l1.392,2.341h-1.053
		l-1.28-2.193h-1.07v2.193h-0.923V38.895z M75.119,41.845c0.783,0,1.236-0.322,1.236-1.071c0-0.765-0.461-1.07-1.236-1.07h-1.027
		v2.142H75.119z"/>
	<rect x="81.192" y="38.895" fill="#FFFFFF" width="0.914" height="5.919"/>
	<path fill="#FFFFFF" d="M86.215,38.833h0.096l2.828,3.308l2.803-3.308h0.096v5.979h-0.879v-3.072c0-0.322,0.035-0.827,0.035-0.844
		c-0.018,0.017-0.296,0.443-0.531,0.705l-1.489,1.793H89.07l-1.489-1.793c-0.217-0.253-0.496-0.672-0.522-0.705
		c0,0.017,0.035,0.521,0.035,0.844v3.072h-0.879V38.833z"/>
	<polygon fill="#FFFFFF" points="96.152,38.895 99.913,38.895 99.913,39.704 97.076,39.704 97.076,41.445 99.591,41.445 
		99.591,42.237 97.076,42.237 97.076,44.003 100.034,44.003 100.034,44.814 96.152,44.814 	"/>
	<path fill="#FFFFFF" d="M107.942,43.665l0.758-0.418c0.278,0.461,0.635,0.827,1.357,0.827c0.602,0,1.027-0.322,1.027-0.81
		c0-0.514-0.348-0.74-0.992-1.027l-0.393-0.174c-0.861-0.384-1.384-0.818-1.384-1.732c0-0.879,0.679-1.506,1.663-1.506
		c0.783,0,1.314,0.296,1.672,0.932l-0.724,0.444c-0.226-0.393-0.487-0.575-0.948-0.575c-0.47,0-0.766,0.287-0.766,0.688
		c0,0.443,0.252,0.644,0.853,0.904l0.384,0.174c1.01,0.444,1.549,0.914,1.549,1.863c0,1.035-0.81,1.636-1.924,1.636
		C108.952,44.891,108.273,44.334,107.942,43.665"/>
	<path fill="#FFFFFF" d="M117.66,38.833h0.104l2.594,5.979h-0.957l-0.436-1.079h-2.516l-0.436,1.079h-0.888L117.66,38.833z
		 M118.636,42.967l-0.645-1.609c-0.131-0.322-0.287-0.827-0.296-0.87c-0.009,0.026-0.147,0.53-0.287,0.87l-0.644,1.609H118.636z"/>
	<path fill="#FFFFFF" d="M123.588,42.733v-3.838h0.923v3.786c0,0.957,0.471,1.384,1.332,1.384s1.34-0.427,1.34-1.384v-3.786h0.914
		v3.838c0,1.437-0.975,2.158-2.254,2.158C124.554,44.891,123.588,44.169,123.588,42.733"/>
	<path fill="#FFFFFF" d="M131.583,43.665l0.757-0.418c0.278,0.461,0.636,0.827,1.358,0.827c0.601,0,1.026-0.322,1.026-0.81
		c0-0.514-0.348-0.74-0.991-1.027l-0.393-0.174c-0.862-0.384-1.385-0.818-1.385-1.732c0-0.879,0.68-1.506,1.664-1.506
		c0.783,0,1.313,0.296,1.67,0.932l-0.723,0.444c-0.226-0.393-0.486-0.575-0.947-0.575c-0.471,0-0.767,0.287-0.767,0.688
		c0,0.443,0.253,0.644,0.853,0.904l0.384,0.174c1.01,0.444,1.549,0.914,1.549,1.863c0,1.035-0.81,1.636-1.924,1.636
		C132.593,44.891,131.913,44.334,131.583,43.665"/>
	<path fill="#FFFFFF" d="M141.3,38.833h0.105l2.594,5.979h-0.958l-0.435-1.079h-2.517l-0.435,1.079h-0.889L141.3,38.833z
		 M142.274,42.967l-0.644-1.609c-0.131-0.322-0.287-0.827-0.296-0.87c-0.009,0.026-0.148,0.53-0.287,0.87l-0.645,1.609H142.274z"/>
	<path fill="#FFFFFF" d="M146.934,41.854c0-1.768,1.28-3.029,3.038-3.029c0.904,0,1.619,0.253,2.097,0.792l-0.618,0.618
		c-0.339-0.357-0.773-0.583-1.479-0.583c-1.236,0-2.098,0.939-2.098,2.202c0,1.262,0.869,2.211,2.22,2.211
		c0.6,0,1.122-0.156,1.452-0.383v-1.105h-1.592v-0.801h2.438v2.358c-0.385,0.349-1.202,0.758-2.298,0.758
		C148.239,44.892,146.934,43.621,146.934,41.854"/>
	<polygon fill="#FFFFFF" points="156.334,38.895 160.095,38.895 160.095,39.704 157.257,39.704 157.257,41.445 159.772,41.445 
		159.772,42.237 157.257,42.237 157.257,44.003 160.216,44.003 160.216,44.814 156.334,44.814 	"/>
	<path fill="#FFFFFF" d="M163.991,38.895h1.984c1.219,0,2.15,0.574,2.15,1.879c0,0.879-0.479,1.445-1.201,1.698l1.393,2.341h-1.053
		l-1.28-2.193h-1.07v2.193h-0.923V38.895z M165.94,41.845c0.783,0,1.236-0.322,1.236-1.071c0-0.765-0.461-1.07-1.236-1.07h-1.026
		v2.142H165.94z"/>
	<path fill="#FFFFFF" d="M173.272,42.646l-2.062-3.751h1.035l1.141,2.132c0.165,0.322,0.357,0.845,0.357,0.845
		s0.191-0.514,0.356-0.845l1.114-2.132h0.949l-1.968,3.689v2.229h-0.923V42.646z"/>
	<path fill="#FFFFFF" d="M142.188,18.925c0,14.143,10.894,13.567,10.894,13.567c5.55,0,10.108-4.309,10.513-9.755
		c0.024-0.323-0.229-0.6-0.553-0.6h-4.947c-0.305,0-0.552,0.246-0.552,0.553v0.202c0,2.463-1.927,4.582-4.39,4.621
		c-3.359,0-4.297-3.026-4.297-3.026s-0.61-1.198-0.61-5.643s0.61-5.643,0.61-5.643s0.865-3.014,4.225-3.014
		c2.455,0,4.445,1.982,4.46,4.434h0.002l-0.001,0.391c0,0.305,0.248,0.553,0.553,0.553h4.92c0.33,0,0.586-0.288,0.551-0.616
		c-0.508-4.804-4.163-8.779-8.899-9.475c-0.528-0.077-1.062-0.116-1.584-0.116C153.082,5.359,142.188,4.784,142.188,18.925"/>
	<path fill="#FFFFFF" d="M93.649,27.303h-8.633c-0.289,0-0.523-0.234-0.523-0.523V7.936c0-1.268-1.027-2.296-2.295-2.296h-3.271
		c-0.288,0-0.521,0.234-0.521,0.521v23.604c0,1.269,1.028,2.297,2.296,2.297h11.18c1.263,0,2.288-1.024,2.288-2.288v-1.951
		C94.17,27.537,93.938,27.303,93.649,27.303"/>
	<path fill="#FFFFFF" d="M139.743,5.64h-15.229c-1.266,0-2.291,1.026-2.291,2.291v1.944c0,0.288,0.234,0.521,0.521,0.521h4.94
		c0.284,0,0.517,0.233,0.517,0.518v18.859c0,1.264,1.025,2.288,2.29,2.288h3.263c0.295,0,0.535-0.238,0.535-0.534V10.915
		c0-0.286,0.231-0.518,0.518-0.518h3.173c1.264,0,2.289-1.024,2.289-2.289V6.167C140.27,5.876,140.034,5.64,139.743,5.64"/>
	<path fill="#FFFFFF" d="M115.966,5.64h-3.28c-0.286,0-0.521,0.233-0.521,0.521l0.003,16.68v0.213c0,2.463-1.997,4.46-4.462,4.46
		c-2.463,0-4.459-1.997-4.461-4.46v-0.212v-0.001V7.928c0-1.264-1.021-2.288-2.284-2.288h-3.279c-0.288,0-0.521,0.233-0.521,0.521
		v15.593c0,5.306,3.853,9.872,8.961,10.622c0.525,0.077,1.059,0.116,1.584,0.116c5.816,0,10.547-4.73,10.547-10.545V7.927
		C118.253,6.665,117.229,5.64,115.966,5.64"/>
	<path fill="#FFFFFF" d="M185.444,5.64h-3.275c-0.289,0-0.523,0.234-0.523,0.524v9.595c0,0.29-0.237,0.527-0.527,0.527h-6.475
		c-0.291,0-0.527-0.237-0.527-0.527v-7.83c0-1.264-1.025-2.289-2.288-2.289h-3.276c-0.289,0-0.523,0.234-0.523,0.523v23.612
		c0,1.263,1.025,2.286,2.287,2.286h3.277c0.289,0,0.523-0.233,0.523-0.522V21.56c0-0.29,0.236-0.526,0.527-0.526h6.475
		c0.29,0,0.527,0.236,0.527,0.526v8.215c0,1.264,1.024,2.287,2.287,2.287h3.277c0.289,0,0.523-0.233,0.523-0.522V7.929
		C187.733,6.666,186.708,5.64,185.444,5.64"/>
	<path fill="#FFFFFF" d="M52.64,18.925c0,14.143,10.893,13.567,10.893,13.567c5.549,0,10.107-4.309,10.513-9.755
		c0.024-0.323-0.229-0.6-0.553-0.6h-4.947c-0.305,0-0.552,0.246-0.552,0.553v0.202c0,2.463-1.927,4.582-4.39,4.621
		c-3.359,0-4.296-3.026-4.296-3.026s-0.611-1.198-0.611-5.643s0.611-5.643,0.611-5.643s0.865-3.014,4.224-3.014
		c2.455,0,4.445,1.982,4.46,4.434h0.002l-0.001,0.391c0,0.305,0.248,0.553,0.553,0.553h4.92c0.33,0,0.586-0.288,0.551-0.616
		c-0.508-4.804-4.164-8.779-8.9-9.475c-0.528-0.077-1.061-0.116-1.584-0.116C63.532,5.359,52.64,4.784,52.64,18.925"/>
	<rect x="53.565" y="41.368" fill="#FFFFFF" width="7.059" height="0.98"/>
	<rect x="180.675" y="41.368" fill="#FFFFFF" width="7.059" height="0.98"/>
	<path fill="#FFFFFF" d="M21.281,11.008c0.564,0,1.062-0.196,1.585-0.367c0.258-0.084,0.575-0.037,0.75,0.164
		c0.28,0.324,0.158,0.832,0.004,1.181c-0.161,0.364-0.387,0.701-0.635,1.014c-0.296,0.374-0.631,0.724-1,1.031
		c-0.169,0.142-0.458,0.425-0.704,0.425s-0.535-0.283-0.704-0.425c-0.369-0.308-0.704-0.657-1-1.031
		c-0.248-0.312-0.474-0.649-0.635-1.014c-0.154-0.349-0.276-0.856,0.004-1.181c0.175-0.201,0.492-0.248,0.75-0.164
		C20.219,10.812,20.717,11.008,21.281,11.008"/>
	<path fill="#FFFFFF" d="M11.392,6.625c0.302,0,0.589-0.097,0.83-0.278C14.855,4.35,18,3.294,21.314,3.294
		c3.286,0,6.409,1.038,9.031,3.005c0.586,0.438,1.488,0.308,1.925-0.276c0.455-0.606,0.331-1.47-0.275-1.925
		c-3.102-2.325-6.795-3.554-10.681-3.554c-3.919,0-7.638,1.248-10.754,3.609C9.956,4.611,9.836,5.476,10.294,6.08
		C10.558,6.426,10.957,6.625,11.392,6.625"/>
	<path fill="#FFFFFF" d="M21.281,17.157c-0.926,0-1.789-0.499-2.251-1.303c-0.221-0.384-0.089-0.874,0.295-1.095
		c0.384-0.221,0.874-0.088,1.095,0.296c0.177,0.307,0.507,0.499,0.861,0.499c0.37,0,0.706-0.204,0.879-0.531
		c0.207-0.392,0.692-0.542,1.083-0.335c0.392,0.206,0.542,0.691,0.335,1.083C23.126,16.626,22.247,17.157,21.281,17.157"/>
	<path fill="#FFFFFF" d="M31.306,9.624c-2.658-2.747-6.215-4.259-10.025-4.259s-7.366,1.512-10.025,4.258
		C4.711,11.196,0.132,16.982,0.111,23.77c0.024,11.647,9.521,21.124,21.17,21.124s21.146-9.477,21.17-21.171
		C42.431,17.093,37.748,11.177,31.306,9.624 M21.281,8.115c6.182,0,11.212,5.029,11.212,11.212c0,6.184-5.03,11.212-11.212,11.212
		c-6.183,0-11.212-5.028-11.212-11.212C10.069,13.144,15.098,8.115,21.281,8.115 M21.281,42.268
		c-10.212,0-18.531-8.309-18.545-18.52c0.005-3.14,1.243-6.108,3.437-8.331c0.112-0.101,0.259-0.163,0.423-0.163
		c0.346,0,0.626,0.274,0.636,0.618c-0.863,11.337,6.63,17.946,14.049,20.34c7.415-2.392,14.892-8.994,14.038-20.32
		c0-0.353,0.286-0.638,0.639-0.638c0.172,0,0.327,0.069,0.442,0.181c2.187,2.221,3.421,5.182,3.426,8.312
		C39.812,33.959,31.493,42.268,21.281,42.268"/>
	<path fill="#FFFFFF" d="M191.081,7.379c0-1.174,0.912-2.021,2.04-2.021c1.138,0,2.07,0.848,2.07,2.021
		c0,1.166-0.933,2.014-2.07,2.014C191.993,9.393,191.081,8.545,191.081,7.379 M194.763,7.389c0-1.016-0.699-1.641-1.642-1.641
		c-0.932,0-1.612,0.625-1.612,1.641c0,0.988,0.681,1.622,1.612,1.622C194.063,9.011,194.763,8.377,194.763,7.389 M192.366,6.308
		h0.84c0.54,0,0.838,0.299,0.838,0.708c0,0.309-0.148,0.531-0.41,0.635l0.447,0.772h-0.539l-0.393-0.699h-0.279v0.699h-0.504V6.308z
		 M193.206,7.342c0.204,0,0.336-0.102,0.336-0.315c0-0.188-0.132-0.281-0.336-0.281h-0.336v0.597H193.206z"/>
</g>
</svg>
