<?xml version="1.0" encoding="utf-8"?>
<!-- Generator: Adobe Illustrator 16.0.4, SVG Export Plug-In . SVG Version: 6.00 Build 0)  -->
<!DOCTYPE svg PUBLIC "-//W3C//DTD SVG 1.1//EN" "http://www.w3.org/Graphics/SVG/1.1/DTD/svg11.dtd">
<svg version="1.1" id="Layer_1" xmlns="http://www.w3.org/2000/svg" xmlns:xlink="http://www.w3.org/1999/xlink" x="0px" y="0px"
	 width="63.336px" height="66.344px" viewBox="0 0 63.336 66.344" enable-background="new 0 0 63.336 66.344" xml:space="preserve">
<g>
	<path fill="none" d="M54.287,22.274c-0.173-0.166-0.404-0.271-0.662-0.271c-0.527,0-0.955,0.429-0.955,0.956
		c1.276,16.943-9.908,26.819-21,30.396C20.57,49.776,9.362,39.891,10.653,22.931c-0.016-0.515-0.435-0.928-0.953-0.928
		c-0.244,0-0.463,0.096-0.632,0.246c-3.281,3.324-5.133,7.767-5.141,12.463c0.02,15.275,12.465,27.703,27.742,27.703
		s27.722-12.428,27.743-27.704C59.403,30.027,57.558,25.598,54.287,22.274z"/>
	<path fill="none" d="M31.669,44.869c9.249,0,16.772-7.523,16.772-16.771c0-9.249-7.523-16.772-16.772-16.772
		c-9.249,0-16.772,7.523-16.772,16.772C14.897,37.346,22.42,44.869,31.669,44.869z M35.105,22.778
		c-0.674,1.279-1.991,2.073-3.437,2.073c-1.386,0-2.677-0.747-3.368-1.95c-0.33-0.574-0.132-1.308,0.442-1.638
		c0.574-0.329,1.307-0.132,1.637,0.442c0.265,0.46,0.759,0.746,1.289,0.746c0.554,0,1.058-0.304,1.315-0.794
		c0.309-0.585,1.035-0.81,1.619-0.501C35.189,21.466,35.415,22.192,35.105,22.778z M28.176,15.35
		c0.261-0.302,0.736-0.372,1.123-0.246c0.781,0.255,1.526,0.549,2.37,0.549s1.588-0.294,2.37-0.549
		c0.387-0.126,0.862-0.056,1.123,0.246c0.419,0.483,0.236,1.245,0.006,1.767c-0.24,0.544-0.578,1.048-0.949,1.518
		c-0.443,0.558-0.944,1.081-1.496,1.541c-0.254,0.211-0.686,0.636-1.053,0.636c-0.368,0-0.8-0.425-1.053-0.636
		c-0.552-0.46-1.053-0.983-1.496-1.541c-0.372-0.47-0.71-0.974-0.95-1.518C27.94,16.595,27.757,15.833,28.176,15.35z"/>
	<path fill="#FF6B00" d="M29.12,18.634c0.443,0.558,0.944,1.081,1.496,1.541c0.253,0.211,0.685,0.636,1.053,0.636
		c0.368,0,0.799-0.425,1.053-0.636c0.552-0.46,1.053-0.983,1.496-1.541c0.371-0.47,0.709-0.974,0.949-1.518
		c0.23-0.521,0.413-1.283-0.006-1.767c-0.261-0.302-0.736-0.372-1.123-0.246c-0.781,0.255-1.525,0.549-2.37,0.549
		s-1.589-0.294-2.37-0.549c-0.387-0.126-0.862-0.056-1.123,0.246c-0.419,0.483-0.236,1.245-0.006,1.767
		C28.41,17.66,28.749,18.164,29.12,18.634z"/>
	<path fill="#FF6B00" d="M16.876,9.096c0.452,0,0.881-0.146,1.241-0.418c3.941-2.986,8.645-4.564,13.603-4.564
		c4.916,0,9.589,1.555,13.511,4.494c0.877,0.657,2.226,0.46,2.879-0.412c0.681-0.907,0.496-2.198-0.412-2.881
		C43.059,1.838,37.533,0,31.72,0c-5.863,0-11.425,1.866-16.087,5.398c-0.905,0.686-1.083,1.979-0.398,2.882
		C15.628,8.799,16.225,9.096,16.876,9.096z"/>
	<path fill="#FF6B00" d="M34.604,21.157c-0.584-0.309-1.311-0.084-1.619,0.501c-0.258,0.49-0.762,0.794-1.315,0.794
		c-0.53,0-1.024-0.286-1.289-0.746c-0.33-0.574-1.063-0.771-1.637-0.442c-0.574,0.33-0.772,1.063-0.442,1.638
		c0.691,1.203,1.982,1.95,3.368,1.95c1.445,0,2.763-0.794,3.437-2.073C35.415,22.192,35.189,21.466,34.604,21.157z"/>
	<path fill="#FF6B00" d="M46.666,13.582c-3.977-4.109-9.297-6.371-14.997-6.371c-5.699,0-11.02,2.262-14.997,6.37
		C6.881,15.934,0.031,24.588,0,34.743c0.036,17.424,14.243,31.601,31.669,31.601s31.631-14.177,31.668-31.672
		C63.308,24.755,56.303,15.905,46.666,13.582z M31.669,11.325c9.249,0,16.772,7.523,16.772,16.772
		c0,9.248-7.523,16.771-16.772,16.771c-9.249,0-16.772-7.523-16.772-16.771C14.897,18.849,22.42,11.325,31.669,11.325z
		 M31.669,62.415c-15.277,0-27.722-12.428-27.742-27.703c0.008-4.696,1.86-9.139,5.141-12.463c0.169-0.15,0.388-0.246,0.632-0.246
		c0.518,0,0.937,0.413,0.953,0.928c-1.291,16.96,9.917,26.846,21.016,30.425c11.092-3.577,22.277-13.453,21-30.396
		c0-0.527,0.428-0.956,0.955-0.956c0.258,0,0.489,0.105,0.662,0.271c3.271,3.323,5.116,7.753,5.125,12.437
		C59.392,49.987,46.946,62.415,31.669,62.415z"/>
</g>
</svg>
