<?xml version="1.0" encoding="utf-8"?>
<!-- Generator: Adobe Illustrator 16.0.4, SVG Export Plug-In . SVG Version: 6.00 Build 0)  -->
<!DOCTYPE svg PUBLIC "-//W3C//DTD SVG 1.1 Tiny//EN" "http://www.w3.org/Graphics/SVG/1.1/DTD/svg11-tiny.dtd">
<svg version="1.1" baseProfile="tiny" id="Layer_1" xmlns="http://www.w3.org/2000/svg" xmlns:xlink="http://www.w3.org/1999/xlink"
	 x="0px" y="0px" width="49px" height="48px" viewBox="0 0 49 48" xml:space="preserve">
<g>
	<ellipse fill="none" cx="13.615" cy="25.474" rx="2.792" ry="2.764"/>
	<ellipse fill="none" cx="35.007" cy="25.474" rx="2.792" ry="2.764"/>
	<path fill="none" d="M28.797,30.023c0-2.455-2.008-4.443-4.487-4.443c-2.478,0-4.486,1.988-4.486,4.443
		c0,1.528,0.779,2.875,1.967,3.676c-1.188,0.8-1.967,2.146-1.967,3.675c0,2.454,2.009,4.442,4.486,4.442
		c2.479,0,4.487-1.988,4.487-4.442c0-1.528-0.78-2.875-1.967-3.675C28.018,32.898,28.797,31.553,28.797,30.023z"/>
	<path fill="#FF6B00" d="M42,42h5.98c0.613,0,1.11-0.63,1.006-1.229c-0.546-3.142-3.658-5.578-6.986-5.578c-0.015,0,0,0,0,0v-7.197
		v-0.051c0-7.499-4.946-14.085-11.879-16.431c0,0.041-0.031,0.062-0.031,0.104c0,3.136-2.595,5.677-5.762,5.677
		c-3.168,0-5.754-2.556-5.754-5.691c0-0.041,0.036-0.043,0.037-0.084C11.679,13.865,7,20,7,28l0,0v7.148
		c-3,0-6.326,2.481-6.871,5.623C0.026,41.37,0.288,42,0.901,42H7v6h35V42z M13.615,28.238c-1.542,0-2.792-1.237-2.792-2.764
		c0-1.528,1.25-2.766,2.792-2.766s2.792,1.237,2.792,2.766C16.407,27.001,15.156,28.238,13.615,28.238z M28.797,37.374
		c0,2.454-2.008,4.442-4.487,4.442c-2.478,0-4.486-1.988-4.486-4.442c0-1.528,0.779-2.875,1.967-3.675
		c-1.188-0.801-1.967-2.146-1.967-3.676c0-2.455,2.009-4.443,4.486-4.443c2.479,0,4.487,1.988,4.487,4.443
		c0,1.528-0.78,2.875-1.967,3.676C28.018,34.499,28.797,35.846,28.797,37.374z M35.007,28.238c-1.542,0-2.792-1.237-2.792-2.764
		c0-1.528,1.25-2.766,2.792-2.766s2.792,1.237,2.792,2.766C37.799,27.001,36.548,28.238,35.007,28.238z"/>
	<path fill="#FF6B00" d="M23.877,1.279c-1.217,2.713-2.7,6.751-2.7,10.318c0,1.886,1.708,3.383,3.671,3.058
		c1.571-0.261,2.622-1.729,2.592-3.306c-0.065-3.506-1.509-7.42-2.697-10.07C24.576,0.907,24.044,0.907,23.877,1.279z"/>
</g>
</svg>
