<?xml version="1.0" encoding="utf-8"?>
<!-- Generator: Adobe Illustrator 16.0.4, SVG Export Plug-In . SVG Version: 6.00 Build 0)  -->
<!DOCTYPE svg PUBLIC "-//W3C//DTD SVG 1.1 Tiny//EN" "http://www.w3.org/Graphics/SVG/1.1/DTD/svg11-tiny.dtd">
<svg version="1.1" baseProfile="tiny" id="Layer_1" xmlns="http://www.w3.org/2000/svg" xmlns:xlink="http://www.w3.org/1999/xlink"
	 x="0px" y="0px" width="49.524px" height="48px" viewBox="0 0 49.524 48" xml:space="preserve">
<g>
	<ellipse fill="none" cx="13.615" cy="25.474" rx="2.792" ry="2.764"/>
	<ellipse fill="none" cx="35.007" cy="25.474" rx="2.792" ry="2.764"/>
	<path fill="none" d="M28.797,30.024c0-2.455-2.008-4.444-4.487-4.444c-2.478,0-4.487,1.989-4.487,4.444
		c0,1.528,0.78,2.875,1.967,3.675c-1.187,0.8-1.967,2.146-1.967,3.675c0,2.454,2.009,4.442,4.487,4.442
		c2.479,0,4.487-1.988,4.487-4.442c0-1.528-0.78-2.875-1.967-3.675C28.018,32.899,28.797,31.553,28.797,30.024z"/>
	<path fill="#FF6B00" d="M42,42h6.431c0.613,0,1.11-0.63,1.006-1.229c-0.546-3.141-3.688-5.577-7.016-5.577
		c-0.015,0-0.421-0.043-0.421-0.043v-7.155v-0.051c0-7.498-4.946-14.085-11.879-16.431c0,0.041-0.031,0.062-0.031,0.104
		c0,3.136-2.595,5.677-5.762,5.677c-3.168,0-5.754-2.556-5.754-5.691c0-0.041,0.037-0.043,0.038-0.084C11.679,13.865,7,20,7,28l0,0
		v7.149c-3,0-6.326,2.481-6.871,5.622C0.026,41.37,0.288,42,0.901,42H7v6h35V42z M13.615,28.238c-1.542,0-2.792-1.237-2.792-2.764
		c0-1.527,1.25-2.765,2.792-2.765c1.542,0,2.792,1.237,2.792,2.765C16.407,27.001,15.156,28.238,13.615,28.238z M28.797,37.374
		c0,2.454-2.008,4.442-4.487,4.442c-2.478,0-4.487-1.988-4.487-4.442c0-1.528,0.78-2.875,1.967-3.675
		c-1.187-0.8-1.967-2.146-1.967-3.675c0-2.455,2.009-4.444,4.487-4.444c2.479,0,4.487,1.989,4.487,4.444
		c0,1.528-0.78,2.875-1.967,3.675C28.018,34.499,28.797,35.846,28.797,37.374z M35.007,28.238c-1.542,0-2.792-1.237-2.792-2.764
		c0-1.527,1.25-2.765,2.792-2.765c1.542,0,2.792,1.237,2.792,2.765C37.799,27.001,36.548,28.238,35.007,28.238z"/>
	<path fill="#FF6B00" d="M23.877,1.279c-1.217,2.713-2.7,6.751-2.7,10.318c0,1.886,1.708,3.383,3.671,3.058
		c1.571-0.261,2.622-1.729,2.592-3.306c-0.066-3.506-1.509-7.42-2.698-10.07C24.576,0.907,24.044,0.907,23.877,1.279z"/>
</g>
</svg>
