<?xml version="1.0" encoding="utf-8"?>
<!-- Generator: Adobe Illustrator 16.0.4, SVG Export Plug-In . SVG Version: 6.00 Build 0)  -->
<!DOCTYPE svg PUBLIC "-//W3C//DTD SVG 1.1 Tiny//EN" "http://www.w3.org/Graphics/SVG/1.1/DTD/svg11-tiny.dtd">
<svg version="1.1" baseProfile="tiny" id="Layer_1" xmlns="http://www.w3.org/2000/svg" xmlns:xlink="http://www.w3.org/1999/xlink"
	 x="0px" y="0px" width="49px" height="48px" viewBox="0 0 49 48" xml:space="preserve">
<g>
	<ellipse fill="none" cx="16.046" cy="25.899" rx="2.788" ry="2.76"/>
	<path fill="none" d="M29.072,33h-8.752c-0.711,0-1.278,0.775-1.108,1.459c0.415,1.672,1.6,3.093,3.148,3.795
		c-0.038,0.168-0.062,0.372-0.062,0.551c0,1.312,1.074,2.389,2.397,2.389c1.325,0,2.398-1.055,2.398-2.366
		c0-0.179-0.022-0.349-0.062-0.517c1.55-0.703,2.732-2.183,3.148-3.854C30.348,33.773,29.781,33,29.072,33z"/>
	<ellipse fill="none" cx="33.344" cy="25.899" rx="2.787" ry="2.76"/>
	<path fill="#FF6B00" d="M42,29.292v-0.375c0-0.75-0.14-0.636-0.153-0.875c0.786,0.272,4.181,0.572,6.581-1.451
		c0.479-0.401,0.611-1.231,0.127-1.626l-8.925-7.384c0.031-0.198,0.103-0.418,0.103-0.625c0-2.117-1.712-3.843-3.852-3.843
		c-0.513,0-0.99,0.099-1.438,0.278c0.006-0.095,0.035-0.189,0.035-0.286c0-2.818-2.306-5.104-5.153-5.104
		c-2.047,0-3.8,1.191-4.632,2.905C23.861,9.193,22.11,8,20.062,8c-2.849,0-5.154,2.285-5.154,5.103c0,0.097,0.021,0.188,0.028,0.284
		c-0.447-0.18-0.936-0.284-1.448-0.284c-2.138,0-3.871,1.716-3.871,3.833c0,0.131,0.026,0.256,0.04,0.383l-9.278,7.563
		c-0.483,0.396-0.513,1.144-0.036,1.544C2.16,27.957,4.645,28.764,6.846,28C7.043,28.188,7,28.66,7,28.66V48h35V29.292z
		 M16.046,28.659c-1.54,0-2.788-1.236-2.788-2.759c0-1.524,1.248-2.76,2.788-2.76c1.539,0,2.787,1.236,2.787,2.76
		C18.833,27.423,17.584,28.659,16.046,28.659z M30.179,34.459c-0.416,1.672-1.599,3.093-3.148,3.795
		c0.039,0.168,0.062,0.372,0.062,0.551c0,1.312-1.073,2.389-2.398,2.389c-1.323,0-2.397-1.055-2.397-2.366
		c0-0.179,0.024-0.349,0.062-0.517c-1.549-0.703-2.733-2.183-3.148-3.854C19.041,33.773,19.608,33,20.319,33h8.752
		C29.781,33,30.348,33.775,30.179,34.459z M33.344,28.659c-1.54,0-2.787-1.236-2.787-2.759c0-1.524,1.248-2.76,2.787-2.76
		s2.787,1.236,2.787,2.76C36.132,27.423,34.883,28.659,33.344,28.659z"/>
</g>
</svg>
