<?xml version="1.0" encoding="utf-8"?>
<!-- Generator: Adobe Illustrator 16.0.4, SVG Export Plug-In . SVG Version: 6.00 Build 0)  -->
<!DOCTYPE svg PUBLIC "-//W3C//DTD SVG 1.1//EN" "http://www.w3.org/Graphics/SVG/1.1/DTD/svg11.dtd">
<svg version="1.1" id="Layer_1" xmlns="http://www.w3.org/2000/svg" xmlns:xlink="http://www.w3.org/1999/xlink" x="0px" y="0px"
	 width="97.667px" height="246px" viewBox="0 0 97.667 246" enable-background="new 0 0 97.667 246" xml:space="preserve">
<g>
	<defs>
		<rect id="SVGID_1_" x="3.369" y="9.194" width="90.929" height="227.611"/>
	</defs>
	<clipPath id="SVGID_2_">
		<use xlink:href="#SVGID_1_"  overflow="visible"/>
	</clipPath>
	<path clip-path="url(#SVGID_2_)" fill="#FF6B00" d="M54.305,229.101c-0.951-1.198-2.026-2.321-3.212-3.31
		c-0.542-0.453-1.47-1.365-2.261-1.365c-0.789,0-1.718,0.912-2.261,1.365c-1.185,0.988-2.26,2.111-3.211,3.31
		c-0.799,1.008-1.523,2.088-2.039,3.258c-0.494,1.12-0.888,2.753,0.012,3.792c0.562,0.647,1.581,0.798,2.41,0.526
		c1.679-0.547,3.276-1.177,5.09-1.177c1.812,0,3.41,0.63,5.088,1.177c0.83,0.271,1.849,0.121,2.411-0.526
		c0.899-1.039,0.506-2.672,0.011-3.792C55.828,231.188,55.103,230.108,54.305,229.101"/>
	<path clip-path="url(#SVGID_2_)" fill="#FF6B00" d="M31.989,21.07c0.605,0.118,1.156,0.171,1.657,0.171
		c5.111,0,5.032-5.574,5.032-5.574c-5.839-0.539-9.86-4.152-11.753-6.282c-0.118-0.133-0.267-0.19-0.414-0.19
		c-0.326,0-0.643,0.283-0.581,0.668C27.245,17.981,31.989,21.07,31.989,21.07"/>
	<path clip-path="url(#SVGID_2_)" fill="#FF6B00" d="M64.018,21.241c0.501,0,1.052-0.053,1.657-0.171c0,0,4.744-3.089,6.058-11.209
		c0.063-0.384-0.254-0.667-0.579-0.667c-0.148,0-0.297,0.059-0.414,0.19c-1.894,2.13-5.913,5.744-11.753,6.282
		C58.986,15.667,58.907,21.241,64.018,21.241"/>
	<path clip-path="url(#SVGID_2_)" fill="#FF6B00" d="M85.208,72.611L72.422,85.396V54.369c0-0.022,0.006-0.044,0.006-0.067V37.235
		H72.4c-0.026-2.54-0.465-4.979-1.235-7.266h0.969c2.438,0.238,4.958-0.577,6.826-2.444c1.503-1.504,2.324-3.432,2.463-5.397
		c0.054-0.77-0.585-1.414-1.354-1.414H69.887c-1.424,1.729-2.634,2.546-2.741,2.614l-0.44,0.287l-0.517,0.102
		c-0.754,0.146-1.483,0.22-2.171,0.22c-2.148,0-4.003-0.729-5.363-2.109c-2.349-2.381-2.369-5.814-2.363-6.197l0.006-0.487
		c-2.348-0.784-4.853-1.226-7.464-1.226c-2.613,0-5.118,0.441-7.466,1.226l0.006,0.487c0.006,0.383-0.015,3.816-2.363,6.197
		c-1.358,1.381-3.215,2.109-5.364,2.109c-0.687,0-1.416-0.074-2.17-0.22l-0.516-0.102l-0.441-0.287
		c-0.106-0.068-1.317-0.886-2.74-2.614H17.598c-0.771,0-1.41,0.645-1.355,1.414c0.139,1.966,0.96,3.894,2.463,5.397
		c1.868,1.867,4.389,2.683,6.826,2.444h0.968c-0.771,2.287-1.208,4.726-1.236,7.266h-0.026v17.066c0,0.023,0.007,0.044,0.007,0.066
		v31.026L12.46,72.611c-2.08-2.079-5.45-2.079-7.53,0c-2.081,2.08-2.081,5.452,0,7.531l20.313,20.314v100.387h0.007
		c0,13.023,10.558,23.582,23.583,23.582c13.023,0,23.582-10.559,23.582-23.582h0.007V100.459l20.316-20.316
		c2.08-2.079,2.08-5.451,0-7.531C90.658,70.532,87.288,70.532,85.208,72.611 M34.974,33.962c0-2.047,1.658-3.706,3.705-3.706
		c2.046,0,3.706,1.659,3.706,3.706c0,2.046-1.66,3.706-3.706,3.706C36.632,37.668,34.974,36.008,34.974,33.962 M59.917,51.469
		c0,2.429-1.969,4.397-4.398,4.397H42.066c-2.43,0-4.398-1.969-4.398-4.397v-4.203c0-2.429,1.969-4.398,4.398-4.398h13.452
		c2.43,0,4.398,1.97,4.398,4.398V51.469z M58.986,37.668c-2.048,0-3.706-1.66-3.706-3.706c0-2.047,1.658-3.706,3.706-3.706
		c2.046,0,3.705,1.659,3.705,3.706C62.691,36.008,61.032,37.668,58.986,37.668"/>
</g>
</svg>
