<?xml version="1.0" encoding="utf-8"?>
<!-- Generator: Adobe Illustrator 16.0.4, SVG Export Plug-In . SVG Version: 6.00 Build 0)  -->
<!DOCTYPE svg PUBLIC "-//W3C//DTD SVG 1.1 Tiny//EN" "http://www.w3.org/Graphics/SVG/1.1/DTD/svg11-tiny.dtd">
<svg version="1.1" baseProfile="tiny" id="Layer_1" xmlns="http://www.w3.org/2000/svg" xmlns:xlink="http://www.w3.org/1999/xlink"
	 x="0px" y="0px" width="49.524px" height="48px" viewBox="0 0 49.524 48" xml:space="preserve">
<g>
	<path fill="#FF6B00" d="M24.243,38.861c-0.514,0.158-1.058,0.681-1.399,0.965c-0.879,0.732-1.679,1.565-2.383,2.456
		c-0.593,0.748-1.129,1.549-1.513,2.417c-0.367,0.833-0.66,2.044,0.008,2.816c0.417,0.48,1.172,0.591,1.789,0.391
		c1.245-0.406,2.432-0.875,3.778-0.875c1.344,0,2.531,0.468,3.777,0.875c0.615,0.2,1.372,0.089,1.789-0.391
		c0.667-0.772,0.375-1.983,0.008-2.816c-0.382-0.867-0.922-1.669-1.514-2.417c-0.705-0.891-1.504-1.724-2.383-2.456
		c-0.341-0.284-0.883-0.807-1.397-0.965c-0.094,0.001-0.186,0.014-0.28,0.014C24.429,38.875,24.337,38.862,24.243,38.861z"/>
	<path fill="#FF6B00" d="M7,21h0.019c0,10,7.687,17.525,17.224,17.676c0.095-0.028,0.189,0.043,0.28,0.043s0.185-0.118,0.28-0.089
		C34.339,38.479,42.026,31,42.026,21H42V0H7V21z"/>
	<path fill="#FF6B00" d="M24.243,38.861c0.094,0.001,0.186,0.014,0.28,0.014c0.095,0,0.186-0.013,0.28-0.014
		c-0.095-0.029-0.188-0.05-0.28-0.05S24.338,38.832,24.243,38.861z"/>
</g>
</svg>
