<?xml version="1.0" encoding="utf-8"?>
<!-- Generator: Adobe Illustrator 16.0.4, SVG Export Plug-In . SVG Version: 6.00 Build 0)  -->
<!DOCTYPE svg PUBLIC "-//W3C//DTD SVG 1.1 Tiny//EN" "http://www.w3.org/Graphics/SVG/1.1/DTD/svg11-tiny.dtd">
<svg version="1.1" baseProfile="tiny" id="Layer_1" xmlns="http://www.w3.org/2000/svg" xmlns:xlink="http://www.w3.org/1999/xlink"
	 x="0px" y="0px" width="49px" height="48px" viewBox="0 0 49 48" xml:space="preserve">
<g>
	<g>
		<path fill="#FF6B00" d="M24.498,16.785c1.864,0,3.373-1.51,3.373-3.373V3.372C27.871,1.51,26.363,0,24.498,0
			c-1.862,0-3.372,1.51-3.372,3.372v10.042C21.127,15.275,22.637,16.785,24.498,16.785"/>
	</g>
	<g>
		<path fill="#FF6B00" d="M42,48.051c0-0.018,0-21.58,0-21.58h-0.02c-0.085-7.698-5.14-14.197-12.108-16.446v3.388
			c0,2.961-2.41,5.372-5.372,5.372c-2.962,0-5.372-2.411-5.372-5.372v-3.388c-6.97,2.249-12.022,8.748-12.108,16.446H7
			c0,0,0,21.562,0,21.578L42,48.051z M18.968,21.895c1.519,0,2.749,1.229,2.749,2.748c0,1.518-1.229,2.748-2.749,2.748
			c-1.518,0-2.748-1.23-2.748-2.748C16.219,23.124,17.449,21.895,18.968,21.895 M31.809,33.852l-6.221,6.238
			c-0.601,0.605-1.578,0.605-2.182,0.002l-6.227-6.227c-0.606-0.607-0.622-1.617,0.012-2.193c1.929-1.758,4.493-2.832,7.308-2.832
			c2.81,0,5.368,1.068,7.297,2.82C32.43,32.236,32.416,33.246,31.809,33.852 M30.031,27.391c-1.517,0-2.748-1.23-2.748-2.748
			c0-1.519,1.231-2.748,2.748-2.748c1.518,0,2.749,1.229,2.749,2.748C32.78,26.16,31.548,27.391,30.031,27.391"/>
	</g>
</g>
</svg>
