<?xml version="1.0" encoding="utf-8"?>
<!-- Generator: Adobe Illustrator 16.0.4, SVG Export Plug-In . SVG Version: 6.00 Build 0)  -->
<!DOCTYPE svg PUBLIC "-//W3C//DTD SVG 1.1//EN" "http://www.w3.org/Graphics/SVG/1.1/DTD/svg11.dtd">
<svg version="1.1" id="Layer_1" xmlns="http://www.w3.org/2000/svg" xmlns:xlink="http://www.w3.org/1999/xlink" x="0px" y="0px"
	 width="52px" height="58px" viewBox="0 0 52 58" enable-background="new 0 0 52 58" xml:space="preserve">
<path fill="#FFFFFF" d="M42.188,0C27.183,0,14.877,11.694,13.534,26.354c-0.03-0.046-0.06,0.033-0.09-0.012
	c-1.207-1.447-2.579-2.706-4.042-3.867c-1.237-0.966-2.548-1.827-3.981-2.462c-1.373-0.603-3.363-1.056-4.63,0.029
	c-0.784,0.693-0.965,1.938-0.633,2.947c0.663,2.052,1.432,4.016,1.432,6.218c0,2.216-0.769,4.163-1.432,6.214
	c-0.332,1.011-0.151,2.263,0.633,2.941c1.267,1.102,3.257,0.619,4.63,0.017c1.433-0.618,2.744-1.509,3.981-2.489
	c1.463-1.161,2.835-2.472,4.042-3.92c0.03-0.031,0.06-0.076,0.09-0.106C14.875,46.51,27.161,57.979,42.147,58H52V0H42.188z"/>
</svg>
