<?xml version="1.0" encoding="utf-8"?>
<!-- Generator: Adobe Illustrator 16.0.4, SVG Export Plug-In . SVG Version: 6.00 Build 0)  -->
<!DOCTYPE svg PUBLIC "-//W3C//DTD SVG 1.1//EN" "http://www.w3.org/Graphics/SVG/1.1/DTD/svg11.dtd">
<svg version="1.1" id="Layer_1" xmlns="http://www.w3.org/2000/svg" xmlns:xlink="http://www.w3.org/1999/xlink" x="0px" y="0px"
	 width="97.667px" height="246px" viewBox="0 0 97.667 246" enable-background="new 0 0 97.667 246" xml:space="preserve">
<g>
	<defs>
		<rect id="SVGID_1_" x="3.591" y="5.75" width="90.485" height="234.499"/>
	</defs>
	<clipPath id="SVGID_2_">
		<use xlink:href="#SVGID_1_"  overflow="visible"/>
	</clipPath>
	<path clip-path="url(#SVGID_2_)" fill="#FF6B00" d="M92.523,76.854c-2.069-2.068-5.424-2.068-7.493,0L72.219,89.667V60.18h7.443
		c0.809,0,1.465-0.719,1.328-1.517c-0.722-4.188-4.37-7.375-8.765-7.375c-0.019,0-0.037,0.003-0.056,0.003v-9.646h-0.027
		c-0.11-10.188-6.714-18.798-15.869-21.926c0,0.055,0.007,0.11,0.007,0.164c0,4.182-3.403,7.584-7.585,7.584
		c-4.184,0-7.587-3.402-7.587-7.584c0-0.054,0.007-0.109,0.008-0.164c-9.154,3.128-15.758,11.738-15.869,21.926H25.22v9.644
		c-4.394,0-8.044,3.187-8.764,7.375c-0.137,0.798,0.519,1.517,1.328,1.517h7.498V89.5L12.637,76.854
		c-2.07-2.068-5.424-2.068-7.494,0c-2.069,2.071-2.069,5.426,0,7.495l20.14,20.138v99.984h0.006
		c0,12.957,10.505,23.462,23.462,23.462c12.958,0,23.463-10.505,23.463-23.462h0.006v-99.817l20.305-20.305
		C94.594,82.28,94.594,78.925,92.523,76.854 M34.572,42.074c-2.037,0-3.688-1.65-3.688-3.687s1.65-3.687,3.688-3.687
		c2.035,0,3.687,1.65,3.687,3.687S36.607,42.074,34.572,42.074 M54.62,54.255c0,3.272-2.652,5.925-5.925,5.925
		s-5.926-2.652-5.926-5.925c0-2.038,1.03-3.834,2.598-4.9c-1.567-1.066-2.598-2.862-2.598-4.9c0-3.273,2.653-5.926,5.926-5.926
		s5.925,2.652,5.925,5.926c0,2.038-1.03,3.834-2.598,4.9C53.59,50.421,54.62,52.217,54.62,54.255 M59.132,38.387
		c0-2.036,1.651-3.687,3.688-3.687c2.035,0,3.687,1.65,3.687,3.687s-1.651,3.687-3.687,3.687
		C60.783,42.074,59.132,40.423,59.132,38.387"/>
	<path clip-path="url(#SVGID_2_)" fill="#FF6B00" d="M43.307,232.584c-0.794,1.002-1.517,2.076-2.029,3.24
		c-0.491,1.114-0.883,2.738,0.012,3.772c0.56,0.645,1.573,0.794,2.398,0.524c1.668-0.544,3.259-1.172,5.062-1.172
		c1.805,0,3.396,0.628,5.064,1.172c0.825,0.27,1.84,0.12,2.398-0.524c0.895-1.034,0.503-2.658,0.011-3.772
		c-0.512-1.164-1.234-2.238-2.029-3.24c-0.945-1.193-2.015-2.311-3.194-3.294c-0.539-0.449-1.463-1.357-2.25-1.357
		c-0.783,0-1.709,0.908-2.249,1.357C45.321,230.274,44.253,231.391,43.307,232.584"/>
	<path clip-path="url(#SVGID_2_)" fill="#FF6B00" d="M49.406,23.959c2.073-0.347,3.462-2.305,3.423-4.408
		c-0.087-4.675-1.993-9.895-3.563-13.429c-0.22-0.496-0.922-0.496-1.142,0c-1.608,3.618-3.566,9.003-3.566,13.76
		C44.558,22.397,46.812,24.393,49.406,23.959"/>
</g>
</svg>
