<?xml version="1.0" encoding="utf-8"?>
<!-- Generator: Adobe Illustrator 16.0.4, SVG Export Plug-In . SVG Version: 6.00 Build 0)  -->
<!DOCTYPE svg PUBLIC "-//W3C//DTD SVG 1.1 Tiny//EN" "http://www.w3.org/Graphics/SVG/1.1/DTD/svg11-tiny.dtd">
<svg version="1.1" baseProfile="tiny" id="Layer_1" xmlns="http://www.w3.org/2000/svg" xmlns:xlink="http://www.w3.org/1999/xlink"
	 x="0px" y="0px" width="49px" height="48px" viewBox="0 0 49 48" xml:space="preserve">
<g>
	<ellipse fill="none" cx="32.373" cy="24.573" rx="2.807" ry="2.779"/>
	<path fill="none" d="M34,34.682C34,32.859,31.737,32,29.898,32h-10C18.06,32,17,32.859,17,34.682v3.151
		C17,39.654,18.06,41,19.899,41h10C31.737,41,34,39.654,34,37.833V34.682z"/>
	<ellipse fill="none" cx="16.995" cy="24.573" rx="2.806" ry="2.779"/>
	<path fill="#FF6B00" d="M7.34,6.501c0.996,6.088,4.589,8.405,4.589,8.405c0.458,0.088,0.875,0.128,1.254,0.128
		c3.871,0,3.812-4.18,3.812-4.18C12.572,10.45,9.527,7.74,8.093,6.143C8.004,6.043,7.892,6,7.78,6C7.533,6,7.293,6.212,7.34,6.501z"
		/>
	<path fill="#FF6B00" d="M32.373,10.854c0,0-0.061,4.18,3.811,4.18c0.379,0,0.796-0.04,1.255-0.128c0,0,3.593-2.316,4.588-8.406
		C42.074,6.212,41.834,6,41.587,6c-0.112,0-0.225,0.044-0.313,0.143C39.84,7.74,36.796,10.45,32.373,10.854z"/>
	<path fill="#FF6B00" d="M42,39.876c0-0.017,0-0.033,0-0.05V26.997v-0.05c0-1.5-0.186-3.947-0.77-4.947h0.734
		c1.846,0,3.754-0.643,5.169-2.043c1.138-1.128,1.76-2.498,1.866-3.972C49.041,15.408,48.557,15,47.974,15h-7.345
		c-1.079,1-1.995,1.729-2.076,1.779l-0.334,0.125l-0.391,0.032c-0.571,0.109-1.124,0.142-1.645,0.142
		c-1.627,0-3.031-0.558-4.062-1.593c-1.779-1.786-1.794-4.366-1.79-4.653l0.005-0.369c-1.778-0.588-3.675-0.92-5.653-0.92
		s-3.876,0.33-5.654,0.918l0.005,0.365c0.004,0.287-0.012,2.862-1.79,4.647c-1.029,1.036-2.436,1.582-4.062,1.582
		c-0.521,0-1.072-0.056-1.644-0.165l-0.392-0.076l-0.334-0.035C10.734,16.729,9.816,16,8.74,15H1.029
		c-0.583,0-1.067,0.303-1.026,0.88c0.104,1.474,0.727,3.04,1.865,4.167C3.282,21.447,5.192,22,7.037,22H7.77C7.187,23,7.021,26,7,27
		l0,0v12.826c0,0.018,0,0.033,0,0.05V48h35V39.876z M14.188,24.573c0-1.535,1.256-2.779,2.807-2.779c1.55,0,2.807,1.244,2.807,2.779
		c0,1.534-1.257,2.778-2.807,2.778C15.444,27.352,14.188,26.107,14.188,24.573z M32.929,37.667c0,1.821-1.192,3.333-3.031,3.333h-10
		C18.06,41,17,39.654,17,37.833V34.68c0-1.82,1.06-2.68,2.898-2.68h10c1.838,0,3.03,0.693,3.03,2.514V37.667z M32.373,27.354
		c-1.55,0-2.808-1.246-2.808-2.779c0-1.535,1.256-2.779,2.808-2.779c1.55,0,2.806,1.244,2.806,2.779
		C35.179,26.107,33.923,27.354,32.373,27.354z"/>
</g>
</svg>
