<?xml version="1.0" encoding="utf-8"?>
<!-- Generator: Adobe Illustrator 17.0.0, SVG Export Plug-In . SVG Version: 6.00 Build 0)  -->
<!DOCTYPE svg PUBLIC "-//W3C//DTD SVG 1.1//EN" "http://www.w3.org/Graphics/SVG/1.1/DTD/svg11.dtd">
<svg version="1.1" id="Layer_1" xmlns="http://www.w3.org/2000/svg" xmlns:xlink="http://www.w3.org/1999/xlink" x="0px" y="0px"
	 width="52px" height="58px" viewBox="0 0 52 58" enable-background="new 0 0 52 58" xml:space="preserve">
<path fill="#FFFFFF" d="M9.853,58c14.986-0.021,27.271-11.49,28.612-26.136c0.031,0.03,0.061,0.075,0.091,0.106
	c1.207,1.448,2.579,2.759,4.042,3.92c1.236,0.981,2.548,1.871,3.98,2.489c1.373,0.602,3.363,1.086,4.631-0.016
	c0.783-0.679,0.965-1.93,0.633-2.94c-0.663-2.052-1.432-3.997-1.432-6.213c0-2.202,0.769-4.163,1.432-6.215
	c0.332-1.01,0.15-2.247-0.633-2.94c-1.268-1.085-3.258-0.618-4.631-0.016c-1.433,0.635-2.744,1.523-3.98,2.489
	c-1.463,1.161-2.835,2.474-4.042,3.921c-0.03,0.045-0.06-0.143-0.091-0.097C37.123,11.694,24.816,0,9.812,0H0v58H9.853z"/>
</svg>
