<?xml version="1.0" encoding="utf-8"?>
<!-- Generator: Adobe Illustrator 16.0.4, SVG Export Plug-In . SVG Version: 6.00 Build 0)  -->
<!DOCTYPE svg PUBLIC "-//W3C//DTD SVG 1.1//EN" "http://www.w3.org/Graphics/SVG/1.1/DTD/svg11.dtd">
<svg version="1.1" id="Layer_1" xmlns="http://www.w3.org/2000/svg" xmlns:xlink="http://www.w3.org/1999/xlink" x="0px" y="0px"
	 width="97.667px" height="246px" viewBox="0 0 97.667 246" enable-background="new 0 0 97.667 246" xml:space="preserve">
<g>
	<defs>
		<rect id="SVGID_1_" x="3.369" y="5.369" width="90.929" height="235.263"/>
	</defs>
	<clipPath id="SVGID_2_">
		<use xlink:href="#SVGID_1_"  overflow="visible"/>
	</clipPath>
	<path clip-path="url(#SVGID_2_)" fill="#FF6B00" d="M43.389,232.926c-0.799,1.008-1.524,2.088-2.04,3.258
		c-0.494,1.12-0.887,2.753,0.013,3.792c0.562,0.647,1.581,0.798,2.41,0.526c1.677-0.547,3.276-1.177,5.089-1.177
		s3.411,0.63,5.089,1.177c0.829,0.271,1.849,0.121,2.41-0.526c0.9-1.039,0.505-2.672,0.012-3.792c-0.516-1.17-1.24-2.25-2.038-3.258
		c-0.951-1.198-2.026-2.321-3.211-3.31c-0.543-0.453-1.473-1.365-2.262-1.365c-0.791,0-1.718,0.912-2.261,1.365
		C45.415,230.605,44.34,231.728,43.389,232.926"/>
	<path clip-path="url(#SVGID_2_)" fill="#FF6B00" d="M48.86,28.002c2.512,0,4.547-2.036,4.547-4.547V9.916
		c0-2.511-2.035-4.547-4.547-4.547s-4.547,2.036-4.547,4.547v13.54C44.313,25.966,46.349,28.002,48.86,28.002"/>
	<path clip-path="url(#SVGID_2_)" fill="#FF6B00" d="M85.207,76.437L72.45,89.195v-31c0-0.023,0.007-0.044,0.007-0.067V41.061H72.43
		c-0.113-10.38-6.929-19.143-16.326-22.175v4.569c0,3.993-3.249,7.242-7.242,7.242c-3.994,0-7.244-3.249-7.244-7.242v-4.569
		c-9.398,3.032-16.21,11.795-16.326,22.175h-0.027v17.066c0,0.023,0.008,0.044,0.008,0.067v31.054L12.46,76.437
		c-2.081-2.079-5.45-2.079-7.531,0c-2.08,2.08-2.08,5.452,0,7.531l20.343,20.342v100.359h0.007
		c0,13.024,10.558,23.582,23.583,23.582c13.023,0,23.581-10.558,23.581-23.582h0.008V104.256l20.288-20.288
		c2.08-2.079,2.08-5.451,0-7.531C90.657,74.358,87.288,74.358,85.207,76.437 M41.402,34.89c2.047,0,3.706,1.659,3.706,3.706
		c0,2.046-1.659,3.705-3.706,3.705s-3.706-1.659-3.706-3.705C37.696,36.549,39.355,34.89,41.402,34.89 M58.716,51.014l-8.386,8.411
		c-0.811,0.814-2.13,0.815-2.943,0.002l-8.396-8.396c-0.818-0.818-0.84-2.178,0.015-2.957c2.601-2.372,6.059-3.817,9.855-3.817
		c3.788,0,7.238,1.439,9.837,3.801C59.554,48.836,59.534,50.195,58.716,51.014 M56.318,42.301c-2.046,0-3.705-1.659-3.705-3.705
		c0-2.047,1.659-3.706,3.705-3.706c2.047,0,3.707,1.659,3.707,3.706C60.025,40.642,58.365,42.301,56.318,42.301"/>
</g>
</svg>
