<?xml version="1.0" encoding="utf-8"?>
<!-- Generator: Adobe Illustrator 16.0.4, SVG Export Plug-In . SVG Version: 6.00 Build 0)  -->
<!DOCTYPE svg PUBLIC "-//W3C//DTD SVG 1.1//EN" "http://www.w3.org/Graphics/SVG/1.1/DTD/svg11.dtd">
<svg version="1.1" id="Layer_1" xmlns="http://www.w3.org/2000/svg" xmlns:xlink="http://www.w3.org/1999/xlink" x="0px" y="0px"
	 width="97.667px" height="246px" viewBox="0 0 97.667 246" enable-background="new 0 0 97.667 246" xml:space="preserve">
<g>
	<defs>
		<rect id="SVGID_1_" x="3.59" y="11.471" width="90.486" height="223.059"/>
	</defs>
	<clipPath id="SVGID_2_">
		<use xlink:href="#SVGID_1_"  overflow="visible"/>
	</clipPath>
	<path clip-path="url(#SVGID_2_)" fill="#FF6B00" d="M43.416,226.862c-0.794,1.002-1.516,2.077-2.029,3.241
		c-0.491,1.114-0.884,2.738,0.012,3.773c0.558,0.646,1.573,0.794,2.398,0.525c1.669-0.545,3.261-1.172,5.064-1.172
		c1.804,0,3.396,0.627,5.065,1.172c0.826,0.269,1.84,0.12,2.397-0.525c0.896-1.035,0.504-2.659,0.013-3.773
		c-0.514-1.164-1.235-2.239-2.029-3.241c-0.946-1.193-2.018-2.312-3.196-3.294c-0.54-0.45-1.464-1.358-2.25-1.358
		c-0.785,0-1.71,0.908-2.249,1.358C45.432,224.551,44.362,225.669,43.416,226.862"/>
	<path clip-path="url(#SVGID_2_)" fill="#FF6B00" d="M23.23,25.078h10.075c0.976,0,1.766-0.792,1.765-1.767l-0.016-10.077
		c-0.001-0.955-0.762-1.764-1.706-1.764c-0.026,0-0.052,0.001-0.079,0.002c-2.975,0.141-5.909,1.349-8.181,3.62
		c-2.278,2.277-3.485,5.22-3.623,8.202C21.421,24.275,22.249,25.078,23.23,25.078"/>
	<path clip-path="url(#SVGID_2_)" fill="#FF6B00" d="M64.417,25.078h10.075c0.982,0,1.81-0.803,1.765-1.783
		c-0.138-2.982-1.345-5.925-3.622-8.202c-2.273-2.271-5.207-3.479-8.182-3.62c-0.027-0.001-0.053-0.002-0.078-0.002
		c-0.945,0-1.706,0.809-1.708,1.764l-0.015,10.077C62.651,24.286,63.442,25.078,64.417,25.078"/>
	<path clip-path="url(#SVGID_2_)" fill="#FF6B00" d="M45.361,43.845c-1.425,0-2.58,1.155-2.58,2.581s1.155,2.581,2.58,2.581
		c1.426,0,2.581-1.155,2.581-2.581S46.787,43.845,45.361,43.845"/>
	<path clip-path="url(#SVGID_2_)" fill="#FF6B00" d="M52.595,43.845c-1.425,0-2.581,1.155-2.581,2.581s1.156,2.581,2.581,2.581
		s2.581-1.155,2.581-2.581S54.02,43.845,52.595,43.845"/>
	<path clip-path="url(#SVGID_2_)" fill="#FF6B00" d="M85.03,71.135L72.335,83.83V52.98c0.001-0.022,0.007-0.044,0.007-0.066V35.931
		h-0.025c-0.033-2.881-0.595-5.629-1.576-8.171h-6.324c-1.188,0-2.305-0.463-3.146-1.304c-0.84-0.842-1.302-1.959-1.3-3.149
		l0.012-7.779c-3.311-1.785-7.097-2.802-11.122-2.802c-4.024,0-7.81,1.017-11.121,2.802l0.011,7.779
		c0.002,1.19-0.46,2.308-1.3,3.149c-0.841,0.841-1.957,1.304-3.147,1.304H26.98c-0.98,2.542-1.542,5.29-1.574,8.171H25.38v16.983
		c0,0.022,0.007,0.044,0.007,0.066v30.904l-12.751-12.75c-2.07-2.069-5.423-2.069-7.493,0c-2.07,2.07-2.07,5.425,0,7.494
		l20.244,20.244v99.869h0.007c0,12.961,10.506,23.468,23.467,23.468c12.961,0,23.467-10.507,23.467-23.468h0.007V98.818
		l20.188-20.189c2.069-2.069,2.069-5.424,0-7.494C90.454,69.065,87.1,69.065,85.03,71.135 M37.751,32.673
		c0-2.037,1.652-3.688,3.688-3.688c2.037,0,3.688,1.65,3.688,3.688s-1.651,3.688-3.688,3.688
		C39.403,36.361,37.751,34.71,37.751,32.673 M48.861,55.812c-5.185,0-9.387-4.202-9.387-9.387c0-5.184,4.202-9.387,9.387-9.387
		c5.184,0,9.387,4.203,9.387,9.387C58.249,51.61,54.045,55.812,48.861,55.812 M56.284,36.361c-2.037,0-3.688-1.651-3.688-3.688
		s1.651-3.688,3.688-3.688s3.688,1.65,3.688,3.688S58.321,36.361,56.284,36.361"/>
</g>
</svg>
