<?xml version="1.0" encoding="utf-8"?>
<!-- Generator: Adobe Illustrator 16.0.4, SVG Export Plug-In . SVG Version: 6.00 Build 0)  -->
<!DOCTYPE svg PUBLIC "-//W3C//DTD SVG 1.1 Tiny//EN" "http://www.w3.org/Graphics/SVG/1.1/DTD/svg11-tiny.dtd">
<svg version="1.1" baseProfile="tiny" id="Layer_1" xmlns="http://www.w3.org/2000/svg" xmlns:xlink="http://www.w3.org/1999/xlink"
	 x="0px" y="0px" width="49.524px" height="48px" viewBox="0 0 49.524 48" xml:space="preserve">
<g>
	<ellipse fill="none" cx="19.113" cy="24.515" rx="2.807" ry="2.779"/>
	<path fill="none" d="M24.762,27.804c-3.946,0-7.144,3.167-7.144,7.073c0,3.907,3.198,7.074,7.144,7.074
		c3.945,0,7.144-3.167,7.144-7.074C31.906,30.971,28.707,27.804,24.762,27.804z M22.097,36.823c-1.084,0-1.963-0.87-1.963-1.945
		c0-1.073,0.879-1.944,1.963-1.944c1.085,0,1.965,0.871,1.965,1.944C24.062,35.953,23.183,36.823,22.097,36.823z M27.604,36.823
		c-1.084,0-1.965-0.87-1.965-1.945c0-1.073,0.88-1.944,1.965-1.944s1.964,0.871,1.964,1.944
		C29.568,35.953,28.688,36.823,27.604,36.823z"/>
	<ellipse fill="none" cx="30.41" cy="24.514" rx="2.806" ry="2.779"/>
	<path fill="#FF6B00" d="M6.669,11.267c-1.734,1.716-2.652,4.038-2.756,6.284C3.878,18.29,4.509,19,5.256,19h7.667
		c0.743,0,1.343-0.702,1.343-1.437l-0.012-7.645c0-0.72-0.58-1.356-1.298-1.356c-0.02,0-0.04-0.012-0.061-0.011
		C10.631,8.658,8.398,9.555,6.669,11.267z"/>
	<path fill="#FF6B00" d="M35.268,9.866l-0.01,7.698C35.256,18.298,35.857,19,36.6,19h7.667c0.748,0,1.378-0.71,1.344-1.449
		c-0.105-2.246-1.024-4.516-2.757-6.231c-1.73-1.712-3.962-2.648-6.227-2.755c-0.021-0.001-0.04-0.016-0.06-0.016
		C35.849,8.549,35.27,9.146,35.268,9.866z"/>
	<ellipse fill="#FF6B00" cx="22.097" cy="34.878" rx="1.963" ry="1.945"/>
	<ellipse fill="#FF6B00" cx="27.604" cy="34.878" rx="1.965" ry="1.945"/>
	<path fill="#FF6B00" d="M42,39.817c0-0.017,0-0.032,0-0.05V26.506v-0.05C42,24.206,42.16,23,41.413,21H36.6
		c-0.905,0-1.755-0.444-2.395-1.077c-0.639-0.635-0.991-1.523-0.989-2.419l0.008-5.887c-2.519-1.345-5.4-2.122-8.463-2.122
		s-5.944,0.76-8.464,2.105l0.008,5.86c0.001,0.896-0.349,1.83-0.989,2.464C14.677,20.557,13.828,21,12.923,21H8.11
		C7.364,23,7,24.416,7,26.666v0.159v12.943c0,0.018,0,0.033,0,0.39V48h35V39.817z M16.306,24.515c0-1.535,1.257-2.779,2.807-2.779
		c1.55,0,2.807,1.244,2.807,2.779c0,1.534-1.257,2.779-2.807,2.779C17.563,27.293,16.306,26.049,16.306,24.515z M24.762,41.952
		c-3.946,0-7.144-3.167-7.144-7.074c0-3.907,3.198-7.073,7.144-7.073c3.945,0,7.144,3.167,7.144,7.073
		C31.906,38.785,28.707,41.952,24.762,41.952z M30.41,27.293c-1.55,0-2.806-1.245-2.806-2.779c0-1.535,1.256-2.779,2.806-2.779
		s2.807,1.244,2.807,2.779C33.216,26.049,31.96,27.293,30.41,27.293z"/>
</g>
</svg>
