<?xml version="1.0" encoding="utf-8"?>
<!-- Generator: Adobe Illustrator 16.0.4, SVG Export Plug-In . SVG Version: 6.00 Build 0)  -->
<!DOCTYPE svg PUBLIC "-//W3C//DTD SVG 1.1//EN" "http://www.w3.org/Graphics/SVG/1.1/DTD/svg11.dtd">
<svg version="1.1" id="Layer_1" xmlns="http://www.w3.org/2000/svg" xmlns:xlink="http://www.w3.org/1999/xlink" x="0px" y="0px"
	 width="97.667px" height="246px" viewBox="0 0 97.667 246" enable-background="new 0 0 97.667 246" xml:space="preserve">
<g>
	<defs>
		<rect id="SVGID_1_" x="3.591" y="10.345" width="90.485" height="225.311"/>
	</defs>
	<clipPath id="SVGID_2_">
		<use xlink:href="#SVGID_1_"  overflow="visible"/>
	</clipPath>
	<path clip-path="url(#SVGID_2_)" fill="#FF6B00" d="M85.03,72.314L72.373,84.972l0.002-47.506h-0.027
		c-0.003-0.321-0.032-0.638-0.048-0.956c2.908,1.019,6.204,0.448,8.603-1.594c0.631-0.535,0.593-1.532-0.047-2.059l-11.892-9.791
		c0.041-0.265,0.081-0.53,0.081-0.806c0-2.823-2.288-5.111-5.111-5.111c-0.677,0-1.321,0.139-1.912,0.378
		c0.007-0.127,0.038-0.249,0.038-0.378c0-3.758-3.047-6.805-6.806-6.805c-2.704,0-5.021,1.59-6.118,3.875
		c-1.099-2.285-3.413-3.875-6.118-3.875c-3.759,0-6.806,3.047-6.806,6.805c0,0.129,0.03,0.251,0.038,0.378
		c-0.592-0.239-1.235-0.378-1.913-0.378c-2.822,0-5.11,2.288-5.11,5.111c0,0.175,0.035,0.341,0.052,0.511L17.027,32.857
		c-0.64,0.526-0.678,1.523-0.047,2.059c2.399,2.042,5.695,2.612,8.604,1.594c-0.017,0.318-0.044,0.635-0.048,0.956H25.51
		l0.002,47.724L12.637,72.314c-2.07-2.069-5.423-2.069-7.493,0c-2.071,2.07-2.071,5.425,0,7.494l20.368,20.369l0.004,99.765h0.006
		c0,12.935,10.486,23.419,23.421,23.419c12.934,0,23.418-10.484,23.418-23.419h0.007l0.004-99.981l20.152-20.152
		c2.07-2.069,2.07-5.424,0-7.494C90.453,70.245,87.101,70.245,85.03,72.314 M37.715,37.895c-2.033,0-3.682-1.648-3.682-3.68
		c0-2.033,1.648-3.681,3.682-3.681c2.031,0,3.68,1.647,3.68,3.681C41.395,36.246,39.746,37.895,37.715,37.895 M52.22,50.771
		c0.051,0.224,0.082,0.455,0.082,0.694c0,1.748-1.418,3.166-3.166,3.166s-3.166-1.418-3.166-3.166c0-0.239,0.031-0.471,0.082-0.694
		c-2.047-0.936-3.609-2.749-4.158-4.979c-0.223-0.91,0.526-1.782,1.465-1.782h11.557c0.937,0,1.686,0.872,1.463,1.782
		C55.829,48.021,54.268,49.835,52.22,50.771 M56.877,34.215c0-2.033,1.647-3.681,3.681-3.681c2.032,0,3.68,1.647,3.68,3.681
		c0,2.031-1.647,3.68-3.68,3.68C58.524,37.895,56.877,36.246,56.877,34.215"/>
	<path clip-path="url(#SVGID_2_)" fill="#FF6B00" d="M43.507,228.004c-0.792,1-1.513,2.073-2.023,3.234
		c-0.491,1.112-0.882,2.733,0.011,3.767c0.559,0.644,1.57,0.792,2.395,0.523c1.665-0.543,3.254-1.169,5.054-1.169
		s3.388,0.626,5.053,1.169c0.824,0.269,1.837,0.12,2.395-0.523c0.893-1.033,0.502-2.654,0.011-3.767
		c-0.511-1.161-1.232-2.234-2.024-3.234c-0.943-1.19-2.012-2.305-3.188-3.287c-0.539-0.448-1.462-1.355-2.245-1.355
		c-0.785,0-1.707,0.907-2.246,1.355C45.52,225.699,44.452,226.813,43.507,228.004"/>
</g>
</svg>
