<?xml version="1.0" encoding="utf-8"?>
<!-- Generator: Adobe Illustrator 16.0.4, SVG Export Plug-In . SVG Version: 6.00 Build 0)  -->
<!DOCTYPE svg PUBLIC "-//W3C//DTD SVG 1.1 Tiny//EN" "http://www.w3.org/Graphics/SVG/1.1/DTD/svg11-tiny.dtd">
<svg version="1.1" baseProfile="tiny" id="Layer_1" xmlns="http://www.w3.org/2000/svg" xmlns:xlink="http://www.w3.org/1999/xlink"
	 x="0px" y="0px" width="34.817px" height="30.717px" viewBox="0 0 34.817 30.717" xml:space="preserve">
<g>
	<g>
		<path fill="#FF6B00" d="M28.496,21.003H7.011c-0.69,0-1.25-0.56-1.25-1.25V5.476c0-0.69,0.56-1.25,1.25-1.25H33.54
			c0.406,0,0.786,0.197,1.021,0.528c0.234,0.331,0.293,0.755,0.158,1.138l-5.044,14.277C29.498,20.669,29.025,21.003,28.496,21.003z
			 M8.261,18.503h19.35l4.161-11.777H8.261V18.503z"/>
	</g>
	<g>
		<path fill="#FF6B00" d="M7.011,25.229c-0.69,0-1.25-0.56-1.25-1.25V1.25c0-0.69,0.56-1.25,1.25-1.25s1.25,0.56,1.25,1.25v22.729
			C8.261,24.669,7.702,25.229,7.011,25.229z"/>
	</g>
	<g>
		<path fill="#FF6B00" d="M7.011,2.5H1.25C0.56,2.5,0,1.94,0,1.25S0.56,0,1.25,0h5.761c0.69,0,1.25,0.56,1.25,1.25
			S7.702,2.5,7.011,2.5z"/>
	</g>
</g>
<g>
	<path fill="#FF6B00" d="M28.496,25.229H7.011c-0.69,0-1.25-0.56-1.25-1.25s0.56-1.25,1.25-1.25h21.484c0.69,0,1.25,0.56,1.25,1.25
		S29.186,25.229,28.496,25.229z"/>
</g>
<g>
	<g>
		<path fill="#FF6B00" d="M27.831,30.706c-1.056,0-1.915-0.859-1.915-1.915s0.859-1.915,1.915-1.915s1.915,0.859,1.915,1.915
			S28.887,30.706,27.831,30.706z M27.831,28.206c-0.323,0-0.585,0.262-0.585,0.585s0.262,0.585,0.585,0.585s0.585-0.262,0.585-0.585
			S28.153,28.206,27.831,28.206z"/>
	</g>
	<g>
		<path fill="#FF6B00" d="M12.991,21.003c-0.69,0-1.25-0.56-1.25-1.25V5.476c0-0.69,0.56-1.25,1.25-1.25s1.25,0.56,1.25,1.25v14.277
			C14.241,20.443,13.681,21.003,12.991,21.003z"/>
	</g>
	<g>
		<path fill="#FF6B00" d="M24.834,21.003c-0.69,0-1.25-0.56-1.25-1.25V5.476c0-0.69,0.56-1.25,1.25-1.25s1.25,0.56,1.25,1.25v14.277
			C26.084,20.443,25.525,21.003,24.834,21.003z"/>
	</g>
	<g>
		<path fill="#FF6B00" d="M18.885,21.003c-0.69,0-1.25-0.56-1.25-1.25V5.476c0-0.69,0.56-1.25,1.25-1.25s1.25,0.56,1.25,1.25v14.277
			C20.135,20.443,19.576,21.003,18.885,21.003z"/>
	</g>
	<g>
		<path fill="#FF6B00" d="M7.676,30.706c-1.056,0-1.915-0.859-1.915-1.915s0.859-1.915,1.915-1.915s1.915,0.859,1.915,1.915
			S8.732,30.706,7.676,30.706z M7.676,28.206c-0.323,0-0.585,0.262-0.585,0.585s0.262,0.585,0.585,0.585s0.585-0.262,0.585-0.585
			S7.999,28.206,7.676,28.206z"/>
	</g>
</g>
</svg>
