<?xml version="1.0" encoding="utf-8"?>
<!-- Generator: Adobe Illustrator 16.0.4, SVG Export Plug-In . SVG Version: 6.00 Build 0)  -->
<!DOCTYPE svg PUBLIC "-//W3C//DTD SVG 1.1 Tiny//EN" "http://www.w3.org/Graphics/SVG/1.1/DTD/svg11-tiny.dtd">
<svg version="1.1" baseProfile="tiny" id="Layer_1" xmlns="http://www.w3.org/2000/svg" xmlns:xlink="http://www.w3.org/1999/xlink"
	 x="0px" y="0px" width="45.806px" height="46.038px" viewBox="0 0 45.806 46.038" xml:space="preserve">
<path fill="#FFFFFF" d="M33.199,17.738c0.336,7.473-5.236,15.804-15.101,15.804c-3,0-5.792-0.88-8.144-2.387
	c2.819,0.332,5.632-0.45,7.866-2.201c-2.325-0.043-4.287-1.578-4.963-3.689c0.832,0.159,1.65,0.113,2.398-0.09
	c-2.555-0.514-4.318-2.815-4.262-5.277c0.717,0.398,1.536,0.638,2.408,0.664c-2.367-1.581-3.036-4.705-1.645-7.093
	c2.619,3.215,6.534,5.33,10.949,5.551c-0.774-3.322,1.747-6.522,5.176-6.522c1.528,0,2.909,0.645,3.878,1.677
	c1.209-0.238,2.346-0.68,3.373-1.289c-0.396,1.241-1.238,2.282-2.336,2.939c1.075-0.128,2.1-0.414,3.052-0.836
	C35.139,16.052,34.238,16.989,33.199,17.738"/>
</svg>
