<?xml version="1.0" encoding="utf-8"?>
<!-- Generator: Adobe Illustrator 16.0.4, SVG Export Plug-In . SVG Version: 6.00 Build 0)  -->
<!DOCTYPE svg PUBLIC "-//W3C//DTD SVG 1.1//EN" "http://www.w3.org/Graphics/SVG/1.1/DTD/svg11.dtd">
<svg version="1.1" id="Layer_1" xmlns="http://www.w3.org/2000/svg" xmlns:xlink="http://www.w3.org/1999/xlink" x="0px" y="0px"
	 width="45.807px" height="46.039px" viewBox="0 0 45.807 46.039" enable-background="new 0 0 45.807 46.039" xml:space="preserve">
<g>
	<path fill="#FF6B00" d="M33.791,12.905v2.815c0,0.451-0.366,0.817-0.816,0.817H30.22c-0.451,0-0.818-0.366-0.818-0.817v-2.815
		c0-0.451,0.367-0.817,0.818-0.817h2.754C33.425,12.088,33.791,12.454,33.791,12.905 M36.12,19.206h-7.524
		c0.768,1.077,1.221,2.394,1.221,3.816c0,3.642-2.953,6.593-6.594,6.593s-6.592-2.951-6.592-6.593c0-1.423,0.452-2.739,1.221-3.816
		h-7.492v11.553c0,2.812,2.281,5.094,5.096,5.094h15.57c2.813,0,5.096-2.281,5.096-5.094L36.12,19.206L36.12,19.206z M23.222,28.102
		c2.801,0,5.078-2.278,5.078-5.079c0-1.52-0.673-2.885-1.732-3.816c-0.373-0.326-0.793-0.6-1.25-0.808
		c-0.639-0.29-1.348-0.453-2.096-0.453c-0.746,0-1.455,0.163-2.095,0.453c-0.456,0.208-0.877,0.481-1.249,0.808
		c-1.062,0.932-1.732,2.297-1.732,3.816C18.146,25.824,20.422,28.102,23.222,28.102 M36.12,15.053c0-2.814-2.282-5.094-5.096-5.094
		H17.103v6.422h-1.045V9.959h-0.604c-0.04,0-0.078,0.001-0.118,0.002v6.42h-1.045v-6.288c-0.252,0.059-0.498,0.137-0.734,0.231
		v6.057H12.51v-5.486c-1.302,0.923-2.151,2.441-2.151,4.158v3.346h8.168c1.195-1.213,2.856-1.967,4.695-1.967
		c1.84,0,3.5,0.754,4.696,1.967h8.2L36.12,15.053L36.12,15.053z M26.531,22.969c0,1.847-1.497,3.344-3.344,3.344
		c-1.848,0-3.345-1.497-3.345-3.344c0-1.847,1.497-3.344,3.345-3.344C25.034,19.625,26.531,21.122,26.531,22.969z"/>
</g>
</svg>
