<?xml version="1.0" encoding="utf-8"?>
<!-- Generator: Adobe Illustrator 16.0.4, SVG Export Plug-In . SVG Version: 6.00 Build 0)  -->
<!DOCTYPE svg PUBLIC "-//W3C//DTD SVG 1.1 Tiny//EN" "http://www.w3.org/Graphics/SVG/1.1/DTD/svg11-tiny.dtd">
<svg version="1.1" baseProfile="tiny" id="Layer_1" xmlns="http://www.w3.org/2000/svg" xmlns:xlink="http://www.w3.org/1999/xlink"
	 x="0px" y="0px" width="45.806px" height="46.038px" viewBox="0 0 45.806 46.038" xml:space="preserve">
<g>
	<path fill="#FFFFFF" d="M33.791,12.905v2.815c0,0.451-0.366,0.817-0.817,0.817H30.22c-0.451,0-0.818-0.366-0.818-0.817v-2.815
		c0-0.451,0.367-0.817,0.818-0.817h2.754C33.425,12.088,33.791,12.454,33.791,12.905 M36.12,19.206h-7.525
		c0.768,1.077,1.221,2.394,1.221,3.816c0,3.642-2.953,6.592-6.594,6.592c-3.64,0-6.591-2.95-6.591-6.592
		c0-1.423,0.452-2.739,1.22-3.816h-7.492v11.553c0,2.812,2.281,5.094,5.096,5.094h15.57c2.814,0,5.096-2.281,5.096-5.094V19.206z
		 M23.222,28.102c2.801,0,5.079-2.278,5.079-5.079c0-1.52-0.673-2.885-1.733-3.816c-0.373-0.326-0.793-0.6-1.25-0.808
		c-0.639-0.29-1.348-0.453-2.096-0.453c-0.746,0-1.455,0.163-2.094,0.453c-0.456,0.208-0.877,0.481-1.249,0.808
		c-1.062,0.932-1.733,2.297-1.733,3.816C18.146,25.823,20.422,28.102,23.222,28.102 M36.12,15.053c0-2.814-2.282-5.094-5.096-5.094
		H17.103v6.422h-1.045V9.959h-0.604c-0.04,0-0.078,0.001-0.118,0.002v6.42h-1.045v-6.288c-0.252,0.059-0.498,0.137-0.735,0.231
		v6.057h-1.045v-5.486c-1.302,0.923-2.152,2.441-2.152,4.158v3.346h8.168c1.195-1.213,2.857-1.967,4.695-1.967
		c1.84,0,3.5,0.754,4.697,1.967h8.2L36.12,15.053L36.12,15.053z M26.531,22.969c0,1.847-1.497,3.344-3.344,3.344
		s-3.344-1.497-3.344-3.344s1.497-3.344,3.344-3.344S26.531,21.122,26.531,22.969z"/>
</g>
</svg>
