<?xml version="1.0" encoding="utf-8"?>
<!-- Generator: Adobe Illustrator 16.0.4, SVG Export Plug-In . SVG Version: 6.00 Build 0)  -->
<!DOCTYPE svg PUBLIC "-//W3C//DTD SVG 1.1 Tiny//EN" "http://www.w3.org/Graphics/SVG/1.1/DTD/svg11-tiny.dtd">
<svg version="1.1" baseProfile="tiny" id="Layer_1" xmlns="http://www.w3.org/2000/svg" xmlns:xlink="http://www.w3.org/1999/xlink"
	 x="0px" y="0px" width="40.032px" height="20px" viewBox="0 0 40.032 20" xml:space="preserve">
<g>
	<path fill="#FF6A00" d="M12.659,16.531C22.842,15.381,31.867,9.201,36.685,0H22.578C22.12,6.97,18.266,13.029,12.659,16.531z"/>
	<path fill="#FFFFFF" d="M38.367,0h-1.682c-4.818,9.201-13.843,15.381-24.026,16.531C18.266,13.029,22.12,6.97,22.578,0h-1.503
		H19.57C18.854,9.343,11.022,16.725,1.5,16.725c-0.829,0-1.5,0.809-1.5,1.637S0.671,20,1.5,20h7.704c13.205,0,25.21-7.988,30.828-20
		H38.367z"/>
</g>
</svg>
