<?xml version="1.0" encoding="utf-8"?>
<!-- Generator: Adobe Illustrator 16.0.4, SVG Export Plug-In . SVG Version: 6.00 Build 0)  -->
<!DOCTYPE svg PUBLIC "-//W3C//DTD SVG 1.1//EN" "http://www.w3.org/Graphics/SVG/1.1/DTD/svg11.dtd">
<svg version="1.1" id="Layer_1" xmlns="http://www.w3.org/2000/svg" xmlns:xlink="http://www.w3.org/1999/xlink" x="0px" y="0px"
	 width="564.204px" height="217.121px" viewBox="0 0 564.204 217.121" enable-background="new 0 0 564.204 217.121"
	 xml:space="preserve">
<g>
	<g>
		<g>
			<polygon fill="#FF6B00" points="282.08,76.869 418.657,213.445 145.504,213.445 			"/>
		</g>
	</g>
	<g>
		<g>
			
				<polygon fill="none" stroke="#FFFFFF" stroke-width="9" stroke-linecap="round" stroke-linejoin="round" stroke-miterlimit="10" points="
				282.08,76.869 418.657,213.445 145.504,213.445 			"/>
		</g>
	</g>
	<g>
		<g>
			<polygon fill="#FF6B00" points="195.692,62.603 346.534,213.443 44.85,213.443 			"/>
		</g>
	</g>
	<g>
		<g>
			
				<polygon fill="none" stroke="#FFFFFF" stroke-width="9" stroke-linecap="round" stroke-linejoin="round" stroke-miterlimit="10" points="
				195.692,62.603 346.534,213.443 44.85,213.443 			"/>
		</g>
	</g>
	<g>
		<g>
			<polygon fill="#FF6B00" points="368.467,62.603 519.309,213.443 217.626,213.443 			"/>
		</g>
	</g>
	<g>
		<g>
			
				<polygon fill="none" stroke="#FFFFFF" stroke-width="9" stroke-linecap="round" stroke-linejoin="round" stroke-miterlimit="10" points="
				368.467,62.603 519.309,213.443 217.626,213.443 			"/>
		</g>
	</g>
	<g>
		<g>
			<rect x="188.823" y="117.258" fill="#FF6B00" width="186.513" height="96.188"/>
		</g>
	</g>
	<g>
		<g>
			
				<rect x="188.823" y="117.258" fill="none" stroke="#FFFFFF" stroke-width="9" stroke-linecap="round" stroke-linejoin="round" stroke-miterlimit="10" width="186.513" height="96.188"/>
		</g>
	</g>
	<g>
		<g>
			<rect x="85.678" y="132.188" fill="#FF6B00" width="103.145" height="81.258"/>
		</g>
	</g>
	<g>
		<g>
			
				<rect x="85.678" y="132.188" fill="none" stroke="#FFFFFF" stroke-width="9" stroke-linecap="round" stroke-linejoin="round" stroke-miterlimit="10" width="103.145" height="81.258"/>
		</g>
	</g>
	<g>
		<g>
			
				<line fill="none" stroke="#FFFFFF" stroke-width="4.5" stroke-linecap="round" stroke-linejoin="round" stroke-miterlimit="10" x1="188.823" y1="145.439" x2="85.678" y2="145.439"/>
		</g>
	</g>
	<g>
		<g>
			
				<line fill="none" stroke="#FFFFFF" stroke-width="4.5" stroke-linecap="round" stroke-linejoin="round" stroke-miterlimit="10" x1="375.274" y1="132.188" x2="188.824" y2="132.188"/>
		</g>
	</g>
	<g>
		<g>
			
				<line fill="none" stroke="#FFFFFF" stroke-width="4.5" stroke-linecap="round" stroke-linejoin="round" stroke-miterlimit="10" x1="176.536" y1="181.247" x2="113.128" y2="181.247"/>
		</g>
	</g>
	<g>
		<g>
			
				<rect x="113.128" y="166.861" fill="none" stroke="#FFFFFF" stroke-width="4.5" stroke-linecap="round" stroke-linejoin="round" stroke-miterlimit="10" width="63.408" height="46.584"/>
		</g>
	</g>
	<g>
		<g>
			
				<rect x="129.22" y="166.861" fill="none" stroke="#FFFFFF" stroke-width="4.5" stroke-linecap="round" stroke-linejoin="round" stroke-miterlimit="10" width="31.224" height="46.584"/>
		</g>
	</g>
	<g>
		<g>
			<path fill="#FFFFFF" d="M103.867,177.753c0,2.062-1.672,3.733-3.734,3.733s-3.733-1.672-3.733-3.733s1.671-3.733,3.733-3.733
				S103.867,175.691,103.867,177.753"/>
		</g>
	</g>
	<g>
		<g>
			
				<line fill="none" stroke="#FFFFFF" stroke-width="4.5" stroke-linecap="round" stroke-linejoin="round" stroke-miterlimit="10" x1="113.128" y1="156.15" x2="188.824" y2="156.15"/>
		</g>
	</g>
	<g>
		<g>
			<rect x="375.336" y="132.188" fill="#FF6B00" width="103.146" height="81.258"/>
		</g>
	</g>
	<g>
		<g>
			
				<rect x="375.336" y="132.188" fill="none" stroke="#FFFFFF" stroke-width="9.11" stroke-linecap="round" stroke-linejoin="round" stroke-miterlimit="10" width="103.146" height="81.258"/>
		</g>
	</g>
	<g>
		<g>
			
				<line fill="none" stroke="#FFFFFF" stroke-width="4.5" stroke-linecap="round" stroke-linejoin="round" stroke-miterlimit="10" x1="375.336" y1="145.439" x2="478.483" y2="145.439"/>
		</g>
	</g>
	<g>
		<g>
			
				<line fill="none" stroke="#FFFFFF" stroke-width="4.5" stroke-linecap="round" stroke-linejoin="round" stroke-miterlimit="10" x1="387.625" y1="181.247" x2="451.034" y2="181.247"/>
		</g>
	</g>
	<g>
		<g>
			
				<rect x="387.625" y="166.861" fill="none" stroke="#FFFFFF" stroke-width="4.5" stroke-linecap="round" stroke-linejoin="round" stroke-miterlimit="10" width="63.408" height="46.584"/>
		</g>
	</g>
	<g>
		<g>
			
				<rect x="403.717" y="166.861" fill="none" stroke="#FFFFFF" stroke-width="4.5" stroke-linecap="round" stroke-linejoin="round" stroke-miterlimit="10" width="31.225" height="46.584"/>
		</g>
	</g>
	<g>
		<g>
			<path fill="#FFFFFF" d="M460.645,181.247c0,1.86,1.508,3.368,3.367,3.368s3.367-1.508,3.367-3.368s-1.508-3.368-3.367-3.368
				S460.645,179.387,460.645,181.247"/>
		</g>
	</g>
	<g>
		<g>
			
				<line fill="none" stroke="#FFFFFF" stroke-width="4.5" stroke-linecap="round" stroke-linejoin="round" stroke-miterlimit="10" x1="451.034" y1="156.15" x2="375.336" y2="156.15"/>
		</g>
	</g>
	<g>
		<g>
			
				<line fill="none" stroke="#FFFFFF" stroke-width="4.5" stroke-linecap="round" stroke-linejoin="round" stroke-miterlimit="10" x1="208.692" y1="181.247" x2="272.1" y2="181.247"/>
		</g>
	</g>
	<g>
		<g>
			
				<rect x="208.692" y="166.861" fill="none" stroke="#FFFFFF" stroke-width="4.5" stroke-linecap="round" stroke-linejoin="round" stroke-miterlimit="10" width="63.408" height="46.584"/>
		</g>
	</g>
	<g>
		<g>
			
				<rect x="224.784" y="166.861" fill="none" stroke="#FFFFFF" stroke-width="4.5" stroke-linecap="round" stroke-linejoin="round" stroke-miterlimit="10" width="31.224" height="46.584"/>
		</g>
	</g>
	<g>
		<g>
			
				<rect x="208.692" y="152.477" fill="none" stroke="#FFFFFF" stroke-width="4.5" stroke-linecap="round" stroke-linejoin="round" stroke-miterlimit="10" width="63.408" height="14.388"/>
		</g>
	</g>
	<g>
		<g>
			
				<line fill="none" stroke="#FFFFFF" stroke-width="4.5" stroke-linecap="round" stroke-linejoin="round" stroke-miterlimit="10" x1="292" y1="181.247" x2="355.407" y2="181.247"/>
		</g>
	</g>
	<g>
		<g>
			
				<rect x="291.999" y="166.861" fill="none" stroke="#FFFFFF" stroke-width="4.5" stroke-linecap="round" stroke-linejoin="round" stroke-miterlimit="10" width="63.408" height="46.584"/>
		</g>
	</g>
	<g>
		<g>
			
				<rect x="308.09" y="166.861" fill="none" stroke="#FFFFFF" stroke-width="4.5" stroke-linecap="round" stroke-linejoin="round" stroke-miterlimit="10" width="31.225" height="46.584"/>
		</g>
	</g>
	<g>
		<g>
			
				<rect x="291.999" y="152.477" fill="none" stroke="#FFFFFF" stroke-width="4.5" stroke-linecap="round" stroke-linejoin="round" stroke-miterlimit="10" width="63.408" height="14.388"/>
		</g>
	</g>
	<g>
		<g>
			
				<line fill="none" stroke="#FFFFFF" stroke-width="9" stroke-linecap="round" stroke-linejoin="round" stroke-miterlimit="10" x1="4.5" y1="213.443" x2="559.661" y2="213.443"/>
		</g>
	</g>
	<g>
		<g>
			<path fill="#FF6B00" d="M298.417,25.912c0,9.022-7.312,16.335-16.334,16.335s-16.336-7.313-16.336-16.335
				s7.314-16.335,16.336-16.335C291.102,9.577,298.417,16.89,298.417,25.912"/>
		</g>
	</g>
	<g>
		<g>
			
				<circle fill="none" stroke="#FFFFFF" stroke-width="9" stroke-linecap="round" stroke-linejoin="round" stroke-miterlimit="10" cx="282.08" cy="25.912" r="16.335"/>
		</g>
	</g>
</g>
</svg>
