<?xml version="1.0" encoding="utf-8"?>
<!-- Generator: Adobe Illustrator 16.0.4, SVG Export Plug-In . SVG Version: 6.00 Build 0)  -->
<!DOCTYPE svg PUBLIC "-//W3C//DTD SVG 1.1//EN" "http://www.w3.org/Graphics/SVG/1.1/DTD/svg11.dtd">
<svg version="1.1" id="Layer_1" xmlns="http://www.w3.org/2000/svg" xmlns:xlink="http://www.w3.org/1999/xlink" x="0px" y="0px"
	 width="564.204px" height="217.121px" viewBox="0 0 564.204 217.121" enable-background="new 0 0 564.204 217.121"
	 xml:space="preserve">
<g>
	<g>
		<path fill="#FF6B00" d="M422.616,21.066c-1.014,0-1.996,0.121-2.938,0.347c-0.045-8.775-7.172-15.881-15.965-15.881
			c-8.785,0-15.918,7.106-15.963,15.881c-0.942-0.226-1.924-0.347-2.938-0.347c-6.962,0-12.612,5.645-12.612,12.612
			c0,6.962,5.65,12.612,12.612,12.612h37.804c6.967,0,12.617-5.65,12.617-12.612C435.233,26.711,429.583,21.066,422.616,21.066"/>
	</g>
	<g>
		<path fill="none" stroke="#FFFFFF" stroke-width="9" stroke-linecap="round" stroke-linejoin="round" stroke-miterlimit="10" d="
			M422.616,21.066c-1.014,0-1.996,0.121-2.938,0.347c-0.045-8.775-7.172-15.881-15.965-15.881c-8.785,0-15.918,7.106-15.963,15.881
			c-0.942-0.226-1.924-0.347-2.938-0.347c-6.962,0-12.612,5.645-12.612,12.612c0,6.962,5.65,12.612,12.612,12.612h37.804
			c6.967,0,12.617-5.65,12.617-12.612C435.233,26.711,429.583,21.066,422.616,21.066z"/>
	</g>
	<g>
		<path fill="#FF6B00" d="M163.624,63.29c5.811,0,10.522-4.711,10.522-10.522s-4.711-10.521-10.522-10.521
			c-3.29,0-6.227,1.51-8.157,3.874"/>
	</g>
	<g>
		<path fill="none" stroke="#FFFFFF" stroke-width="9" stroke-linecap="round" stroke-linejoin="round" stroke-miterlimit="10" d="
			M163.624,63.29c5.811,0,10.522-4.711,10.522-10.522s-4.711-10.521-10.522-10.521c-3.29,0-6.227,1.51-8.157,3.874"/>
	</g>
	<g>
		<path fill="none" stroke="#FFFFFF" stroke-width="9" stroke-linecap="round" stroke-linejoin="round" stroke-miterlimit="10" d="
			M132.088,42.249c0.846,0,1.665,0.101,2.451,0.29c0.037-7.321,5.982-13.248,13.317-13.248c7.33,0,13.28,5.927,13.317,13.248
			c0.786-0.189,1.605-0.29,2.451-0.29c5.808,0,10.521,4.709,10.521,10.521c0,5.808-4.713,10.521-10.521,10.521h-31.536
			c-5.812,0-10.526-4.713-10.526-10.521C121.562,46.958,126.276,42.249,132.088,42.249z"/>
	</g>
	<g>
		<path fill="#FF6B00" d="M384.813,46.29c-6.966,0-12.613-5.647-12.613-12.613c0-6.966,5.647-12.612,12.613-12.612
			c3.943,0,7.465,1.81,9.777,4.644"/>
	</g>
	<g>
		<path fill="none" stroke="#FFFFFF" stroke-width="9" stroke-linecap="round" stroke-linejoin="round" stroke-miterlimit="10" d="
			M384.813,46.29c-6.966,0-12.613-5.647-12.613-12.613c0-6.966,5.647-12.612,12.613-12.612c3.943,0,7.465,1.81,9.777,4.644"/>
	</g>
	<g>
		<path fill="none" stroke="#FFFFFF" stroke-width="9" stroke-linecap="round" stroke-linejoin="round" stroke-miterlimit="10" d="
			M387.752,21.496c0-8.816,7.147-15.964,15.965-15.964c8.816,0,15.963,7.148,15.963,15.964c0,3.309-1.008,6.383-2.73,8.932"/>
	</g>
</g>
</svg>
