<?xml version="1.0" encoding="utf-8"?>
<!-- Generator: Adobe Illustrator 16.0.4, SVG Export Plug-In . SVG Version: 6.00 Build 0)  -->
<!DOCTYPE svg PUBLIC "-//W3C//DTD SVG 1.1//EN" "http://www.w3.org/Graphics/SVG/1.1/DTD/svg11.dtd">
<svg version="1.1" id="Layer_1" xmlns="http://www.w3.org/2000/svg" xmlns:xlink="http://www.w3.org/1999/xlink" x="0px" y="0px"
	 width="564.204px" height="217.121px" viewBox="0 0 564.204 217.121" enable-background="new 0 0 564.204 217.121"
	 xml:space="preserve">
<g>
	<defs>
		<rect id="SVGID_1_" y="1.032" width="564.161" height="216.968"/>
	</defs>
	<clipPath id="SVGID_2_">
		<use xlink:href="#SVGID_1_"  overflow="visible"/>
	</clipPath>
	<path clip-path="url(#SVGID_2_)" fill="#FF6B00" d="M422.616,21.066c-1.014,0-1.996,0.121-2.938,0.347
		c-0.045-8.775-7.172-15.881-15.965-15.881c-8.785,0-15.918,7.106-15.963,15.881c-0.942-0.226-1.924-0.347-2.938-0.347
		c-6.962,0-12.612,5.645-12.612,12.612c0,6.962,5.65,12.612,12.612,12.612h37.803c6.967,0,12.617-5.65,12.617-12.612
		C435.233,26.711,429.583,21.066,422.616,21.066"/>
	
		<path clip-path="url(#SVGID_2_)" fill="none" stroke="#FFFFFF" stroke-width="9" stroke-linecap="round" stroke-linejoin="round" stroke-miterlimit="10" d="
		M422.616,21.066c-1.014,0-1.996,0.121-2.938,0.347c-0.045-8.775-7.172-15.881-15.965-15.881c-8.785,0-15.918,7.106-15.963,15.881
		c-0.942-0.226-1.924-0.347-2.938-0.347c-6.962,0-12.612,5.645-12.612,12.612c0,6.962,5.65,12.612,12.612,12.612h37.803
		c6.967,0,12.617-5.65,12.617-12.612C435.233,26.711,429.583,21.066,422.616,21.066z"/>
	<path clip-path="url(#SVGID_2_)" fill="#FF6B00" d="M163.624,63.29c5.811,0,10.522-4.711,10.522-10.522
		s-4.711-10.521-10.522-10.521c-3.29,0-6.227,1.51-8.157,3.874"/>
	
		<path clip-path="url(#SVGID_2_)" fill="none" stroke="#FFFFFF" stroke-width="9" stroke-linecap="round" stroke-linejoin="round" stroke-miterlimit="10" d="
		M163.624,63.29c5.811,0,10.522-4.711,10.522-10.522s-4.711-10.521-10.522-10.521c-3.29,0-6.227,1.51-8.157,3.874"/>
	
		<path clip-path="url(#SVGID_2_)" fill="none" stroke="#FFFFFF" stroke-width="9" stroke-linecap="round" stroke-linejoin="round" stroke-miterlimit="10" d="
		M132.088,42.249c0.846,0,1.665,0.101,2.451,0.29c0.037-7.321,5.982-13.248,13.317-13.248c7.33,0,13.28,5.927,13.317,13.248
		c0.786-0.189,1.605-0.29,2.451-0.29c5.808,0,10.521,4.709,10.521,10.521c0,5.808-4.713,10.521-10.521,10.521h-31.536
		c-5.812,0-10.526-4.713-10.526-10.521C121.562,46.958,126.276,42.249,132.088,42.249z"/>
	<polygon clip-path="url(#SVGID_2_)" fill="#FF6B00" points="282.08,76.869 418.657,213.445 145.504,213.445 	"/>
	
		<polygon clip-path="url(#SVGID_2_)" fill="none" stroke="#FFFFFF" stroke-width="9" stroke-linecap="round" stroke-linejoin="round" stroke-miterlimit="10" points="
		282.08,76.869 418.657,213.445 145.504,213.445 	"/>
	<polygon clip-path="url(#SVGID_2_)" fill="#FF6B00" points="195.692,62.603 346.534,213.444 44.85,213.444 	"/>
	
		<polygon clip-path="url(#SVGID_2_)" fill="none" stroke="#FFFFFF" stroke-width="9" stroke-linecap="round" stroke-linejoin="round" stroke-miterlimit="10" points="
		195.692,62.603 346.534,213.444 44.85,213.444 	"/>
	<polygon clip-path="url(#SVGID_2_)" fill="#FF6B00" points="368.468,62.603 519.31,213.444 217.626,213.444 	"/>
	
		<polygon clip-path="url(#SVGID_2_)" fill="none" stroke="#FFFFFF" stroke-width="9" stroke-linecap="round" stroke-linejoin="round" stroke-miterlimit="10" points="
		368.468,62.603 519.31,213.444 217.626,213.444 	"/>
	<rect x="188.823" y="117.258" clip-path="url(#SVGID_2_)" fill="#FF6B00" width="186.513" height="96.188"/>
	
		<rect x="188.823" y="117.258" clip-path="url(#SVGID_2_)" fill="none" stroke="#FFFFFF" stroke-width="9" stroke-linecap="round" stroke-linejoin="round" stroke-miterlimit="10" width="186.513" height="96.188"/>
	<rect x="85.678" y="132.187" clip-path="url(#SVGID_2_)" fill="#FF6B00" width="103.145" height="81.259"/>
	
		<rect x="85.678" y="132.187" clip-path="url(#SVGID_2_)" fill="none" stroke="#FFFFFF" stroke-width="9" stroke-linecap="round" stroke-linejoin="round" stroke-miterlimit="10" width="103.145" height="81.259"/>
	
		<line clip-path="url(#SVGID_2_)" fill="none" stroke="#FFFFFF" stroke-width="4.5" stroke-linecap="round" stroke-linejoin="round" stroke-miterlimit="10" x1="188.823" y1="145.439" x2="85.678" y2="145.439"/>
	
		<line clip-path="url(#SVGID_2_)" fill="none" stroke="#FFFFFF" stroke-width="4.5" stroke-linecap="round" stroke-linejoin="round" stroke-miterlimit="10" x1="375.274" y1="132.187" x2="188.824" y2="132.187"/>
	
		<line clip-path="url(#SVGID_2_)" fill="none" stroke="#FFFFFF" stroke-width="4.5" stroke-linecap="round" stroke-linejoin="round" stroke-miterlimit="10" x1="176.536" y1="181.247" x2="113.128" y2="181.247"/>
	
		<rect x="113.128" y="166.862" clip-path="url(#SVGID_2_)" fill="none" stroke="#FFFFFF" stroke-width="4.5" stroke-linecap="round" stroke-linejoin="round" stroke-miterlimit="10" width="63.408" height="46.583"/>
	
		<rect x="129.22" y="166.862" clip-path="url(#SVGID_2_)" fill="none" stroke="#FFFFFF" stroke-width="4.5" stroke-linecap="round" stroke-linejoin="round" stroke-miterlimit="10" width="31.224" height="46.583"/>
	<path clip-path="url(#SVGID_2_)" fill="#FFFFFF" d="M103.867,177.753c0,2.062-1.672,3.734-3.734,3.734s-3.733-1.672-3.733-3.734
		c0-2.062,1.671-3.733,3.733-3.733S103.867,175.691,103.867,177.753"/>
	
		<line clip-path="url(#SVGID_2_)" fill="none" stroke="#FFFFFF" stroke-width="4.5" stroke-linecap="round" stroke-linejoin="round" stroke-miterlimit="10" x1="113.128" y1="156.15" x2="188.824" y2="156.15"/>
	<rect x="375.336" y="132.187" clip-path="url(#SVGID_2_)" fill="#FF6B00" width="103.146" height="81.259"/>
	
		<rect x="375.336" y="132.187" clip-path="url(#SVGID_2_)" fill="none" stroke="#FFFFFF" stroke-width="9.11" stroke-linecap="round" stroke-linejoin="round" stroke-miterlimit="10" width="103.146" height="81.259"/>
	
		<line clip-path="url(#SVGID_2_)" fill="none" stroke="#FFFFFF" stroke-width="4.5" stroke-linecap="round" stroke-linejoin="round" stroke-miterlimit="10" x1="375.336" y1="145.439" x2="478.482" y2="145.439"/>
	
		<line clip-path="url(#SVGID_2_)" fill="none" stroke="#FFFFFF" stroke-width="4.5" stroke-linecap="round" stroke-linejoin="round" stroke-miterlimit="10" x1="387.625" y1="181.247" x2="451.033" y2="181.247"/>
	
		<rect x="387.625" y="166.862" clip-path="url(#SVGID_2_)" fill="none" stroke="#FFFFFF" stroke-width="4.5" stroke-linecap="round" stroke-linejoin="round" stroke-miterlimit="10" width="63.408" height="46.583"/>
	
		<rect x="403.717" y="166.862" clip-path="url(#SVGID_2_)" fill="none" stroke="#FFFFFF" stroke-width="4.5" stroke-linecap="round" stroke-linejoin="round" stroke-miterlimit="10" width="31.224" height="46.583"/>
	<path clip-path="url(#SVGID_2_)" fill="#FFFFFF" d="M460.644,181.247c0,1.86,1.509,3.368,3.368,3.368s3.368-1.508,3.368-3.368
		s-1.509-3.368-3.368-3.368S460.644,179.387,460.644,181.247"/>
	
		<line clip-path="url(#SVGID_2_)" fill="none" stroke="#FFFFFF" stroke-width="4.5" stroke-linecap="round" stroke-linejoin="round" stroke-miterlimit="10" x1="451.033" y1="156.15" x2="375.336" y2="156.15"/>
	
		<line clip-path="url(#SVGID_2_)" fill="none" stroke="#FFFFFF" stroke-width="4.5" stroke-linecap="round" stroke-linejoin="round" stroke-miterlimit="10" x1="208.692" y1="181.247" x2="272.1" y2="181.247"/>
	
		<rect x="208.692" y="166.862" clip-path="url(#SVGID_2_)" fill="none" stroke="#FFFFFF" stroke-width="4.5" stroke-linecap="round" stroke-linejoin="round" stroke-miterlimit="10" width="63.408" height="46.583"/>
	
		<rect x="224.784" y="166.862" clip-path="url(#SVGID_2_)" fill="none" stroke="#FFFFFF" stroke-width="4.5" stroke-linecap="round" stroke-linejoin="round" stroke-miterlimit="10" width="31.224" height="46.583"/>
	
		<rect x="208.692" y="152.477" clip-path="url(#SVGID_2_)" fill="none" stroke="#FFFFFF" stroke-width="4.5" stroke-linecap="round" stroke-linejoin="round" stroke-miterlimit="10" width="63.408" height="14.386"/>
	
		<line clip-path="url(#SVGID_2_)" fill="none" stroke="#FFFFFF" stroke-width="4.5" stroke-linecap="round" stroke-linejoin="round" stroke-miterlimit="10" x1="292" y1="181.247" x2="355.407" y2="181.247"/>
	
		<rect x="291.999" y="166.862" clip-path="url(#SVGID_2_)" fill="none" stroke="#FFFFFF" stroke-width="4.5" stroke-linecap="round" stroke-linejoin="round" stroke-miterlimit="10" width="63.408" height="46.583"/>
	
		<rect x="308.09" y="166.862" clip-path="url(#SVGID_2_)" fill="none" stroke="#FFFFFF" stroke-width="4.5" stroke-linecap="round" stroke-linejoin="round" stroke-miterlimit="10" width="31.225" height="46.583"/>
	
		<rect x="291.999" y="152.477" clip-path="url(#SVGID_2_)" fill="none" stroke="#FFFFFF" stroke-width="4.5" stroke-linecap="round" stroke-linejoin="round" stroke-miterlimit="10" width="63.408" height="14.386"/>
	
		<line clip-path="url(#SVGID_2_)" fill="none" stroke="#FFFFFF" stroke-width="9" stroke-linecap="round" stroke-linejoin="round" stroke-miterlimit="10" x1="4.5" y1="213.444" x2="559.661" y2="213.444"/>
	<path clip-path="url(#SVGID_2_)" fill="#FF6B00" d="M384.813,46.29c-6.966,0-12.613-5.647-12.613-12.613
		s5.647-12.612,12.613-12.612c3.943,0,7.465,1.81,9.778,4.644"/>
	
		<path clip-path="url(#SVGID_2_)" fill="none" stroke="#FFFFFF" stroke-width="9" stroke-linecap="round" stroke-linejoin="round" stroke-miterlimit="10" d="
		M384.813,46.29c-6.966,0-12.613-5.647-12.613-12.613s5.647-12.612,12.613-12.612c3.943,0,7.465,1.81,9.778,4.644"/>
	
		<path clip-path="url(#SVGID_2_)" fill="none" stroke="#FFFFFF" stroke-width="9" stroke-linecap="round" stroke-linejoin="round" stroke-miterlimit="10" d="
		M387.753,21.496c0-8.816,7.147-15.964,15.964-15.964s15.963,7.148,15.963,15.964c0,3.309-1.007,6.383-2.73,8.932"/>
	<path clip-path="url(#SVGID_2_)" fill="#FF6B00" d="M298.416,25.912c0,9.022-7.313,16.335-16.335,16.335
		c-9.022,0-16.336-7.313-16.336-16.335s7.314-16.335,16.336-16.335C291.102,9.577,298.416,16.89,298.416,25.912"/>
	
		<circle clip-path="url(#SVGID_2_)" fill="none" stroke="#FFFFFF" stroke-width="9" stroke-linecap="round" stroke-linejoin="round" stroke-miterlimit="10" cx="282.08" cy="25.912" r="16.335"/>
</g>
</svg>
