<?xml version="1.0" encoding="utf-8"?>
<!-- Generator: Adobe Illustrator 16.0.4, SVG Export Plug-In . SVG Version: 6.00 Build 0)  -->
<!DOCTYPE svg PUBLIC "-//W3C//DTD SVG 1.1 Tiny//EN" "http://www.w3.org/Graphics/SVG/1.1/DTD/svg11-tiny.dtd">
<svg version="1.1" baseProfile="tiny" id="Layer_1" xmlns="http://www.w3.org/2000/svg" xmlns:xlink="http://www.w3.org/1999/xlink"
	 x="0px" y="0px" width="14.453px" height="14.489px" viewBox="0 0 14.453 14.489" xml:space="preserve">
<path fill="#FF6B00" d="M9.015,7.166l5.033-5.032c0.488-0.488,0.488-1.279,0-1.768s-1.279-0.488-1.768,0L7.207,5.438L2.134,0.366
	c-0.488-0.488-1.28-0.488-1.768,0c-0.488,0.488-0.488,1.279,0,1.768L5.4,7.166l-5.009,5.058c-0.486,0.491-0.482,1.282,0.009,1.768
	c0.243,0.242,0.562,0.362,0.879,0.362c0.322,0,0.644-0.124,0.889-0.37l5.039-5.089l5.04,5.089c0.244,0.246,0.565,0.37,0.888,0.37
	c0.318,0,0.636-0.12,0.88-0.362c0.49-0.485,0.494-1.276,0.008-1.768L9.015,7.166z"/>
</svg>
